<svg width="9" height="7" viewBox="0 0 9 7" fill="none" xmlns="http://www.w3.org/2000/svg">
<path d="M4.504 0.5C4.59886 0.5 4.68638 0.519254 4.76654 0.557762C4.84673 0.596289 4.92521 0.663164 5.00198 0.758389L8.8674 5.55253C8.94983 5.65476 8.99387 5.78011 8.99952 5.92857C9.00517 6.07704 8.96113 6.20939 8.8674 6.32565C8.77366 6.44188 8.66977 6.5 8.55572 6.5C8.44167 6.5 8.33778 6.44188 8.24405 6.32565L4.504 1.68699L0.763947 6.32565C0.681519 6.42788 0.580454 6.4825 0.460752 6.48951C0.341049 6.49651 0.234332 6.44188 0.140599 6.32565C0.0468664 6.20939 -3.66703e-08 6.08054 -4.90365e-08 5.93909C-6.14042e-08 5.79762 0.0468663 5.66877 0.140599 5.55253L4.00601 0.758389C4.08279 0.663165 4.16127 0.596289 4.24145 0.557762C4.32162 0.519254 4.40913 0.5 4.504 0.5Z" fill="white" fill-opacity="0.8"/>
</svg>
