<svg width="6" height="9" viewBox="0 0 6 9" fill="none" xmlns="http://www.w3.org/2000/svg">
<path d="M6 4.504C6 4.59886 5.98075 4.68638 5.94224 4.76655C5.90371 4.84673 5.83684 4.92521 5.74161 5.00199L0.947471 8.8674C0.845237 8.94983 0.719889 8.99387 0.571427 8.99952C0.422964 9.00517 0.290606 8.96113 0.174352 8.8674C0.058117 8.77366 -1.44347e-08 8.66977 -1.942e-08 8.55572C-2.44053e-08 8.44167 0.0581169 8.33778 0.174352 8.24405L4.81301 4.504L0.174352 0.763947C0.072118 0.681519 0.0174961 0.580454 0.0104863 0.460752C0.00349466 0.341049 0.0581166 0.234332 0.174352 0.140599C0.290606 0.0468664 0.419459 -1.83351e-08 0.560911 -2.45182e-08C0.702382 -3.07021e-08 0.831235 0.0468664 0.94747 0.140599L5.74161 4.00601C5.83684 4.08279 5.90371 4.16127 5.94224 4.24145C5.98075 4.32162 6 4.40913 6 4.504Z" fill="#666666"/>
</svg>
