<svg width="36" height="36" viewBox="0 0 36 36" fill="none" xmlns="http://www.w3.org/2000/svg">
<path d="M11.8269 27.7499V29.1634C11.8269 29.6041 11.6725 29.9787 11.3637 30.2872C11.0548 30.5957 10.6798 30.7499 10.2387 30.7499C9.79752 30.7499 9.4231 30.5957 9.11542 30.2872C8.80772 29.9787 8.65387 29.6041 8.65387 29.1634V26.6653C8.18465 26.3096 7.75004 25.8062 7.35004 25.1552C6.95001 24.5043 6.75 23.773 6.75 22.9615V8.99996C6.75 7.18436 7.65231 5.85548 9.45694 5.0133C11.2615 4.1711 14.109 3.75 17.9995 3.75C22.0306 3.75 24.9134 4.15469 26.648 4.96406C28.3826 5.77344 29.2499 7.11874 29.2499 8.99996V22.9615C29.2499 23.773 29.0499 24.5043 28.6499 25.1552C28.2499 25.8062 27.8153 26.3096 27.3461 26.6653V29.1634C27.3461 29.6041 27.1916 29.9787 26.8828 30.2872C26.574 30.5957 26.199 30.7499 25.7579 30.7499C25.3167 30.7499 24.9422 30.5957 24.6346 30.2872C24.3269 29.9787 24.1731 29.6041 24.1731 29.1634V27.7499H11.8269ZM18.0461 7.90384H26.6769H9.41531H18.0461ZM24 18H8.99996H27H24ZM8.99996 15.75H27V10.1538H8.99996V15.75ZM12.7534 23.7115C13.2992 23.7115 13.762 23.5204 14.1418 23.1384C14.5216 22.7563 14.7115 22.2924 14.7115 21.7466C14.7115 21.2008 14.5204 20.738 14.1384 20.3582C13.7563 19.9784 13.2924 19.7885 12.7465 19.7885C12.2007 19.7885 11.738 19.9795 11.3582 20.3616C10.9784 20.7436 10.7884 21.2076 10.7884 21.7534C10.7884 22.2992 10.9795 22.762 11.3616 23.1418C11.7436 23.5216 12.2076 23.7115 12.7534 23.7115ZM23.2534 23.7115C23.7992 23.7115 24.262 23.5204 24.6418 23.1384C25.0216 22.7563 25.2115 22.2924 25.2115 21.7466C25.2115 21.2008 25.0204 20.738 24.6384 20.3582C24.2563 19.9784 23.7924 19.7885 23.2465 19.7885C22.7008 19.7885 22.238 19.9795 21.8582 20.3616C21.4784 20.7436 21.2885 21.2076 21.2885 21.7534C21.2885 22.2992 21.4795 22.762 21.8616 23.1418C22.2436 23.5216 22.7076 23.7115 23.2534 23.7115ZM9.41531 7.90384H26.6769C26.3596 7.30574 25.5558 6.8389 24.2654 6.50333C22.975 6.16775 20.9019 5.99996 18.0461 5.99996C15.2365 5.99996 13.1865 6.17545 11.8961 6.52643C10.6057 6.87738 9.77879 7.33651 9.41531 7.90384ZM12 25.5H24C24.825 25.5 25.5312 25.2062 26.1187 24.6187C26.7062 24.0312 27 23.325 27 22.5V18H8.99996V22.5C8.99996 23.325 9.29371 24.0312 9.88121 24.6187C10.4687 25.2062 11.175 25.5 12 25.5Z" fill="white" fill-opacity="0.6"/>
</svg>
