<svg width="34" height="34" viewBox="0 0 34 34" fill="none" xmlns="http://www.w3.org/2000/svg">
<path d="M6.18392 30.8125C5.4847 30.8125 4.92441 30.531 4.50305 29.968C4.08168 29.405 3.94729 28.7666 4.09986 28.0528C4.41408 26.7124 4.62749 25.3675 4.74009 24.018C4.85269 22.6685 4.92534 21.31 4.95804 19.9423C3.96274 19.6009 3.18266 18.9965 2.61782 18.1293C2.05294 17.262 1.77051 16.2953 1.77051 15.2292V14.5372C1.77051 14.0759 1.90264 13.6595 2.16689 13.2881C2.43115 12.9167 2.78213 12.6429 3.21983 12.4667C5.55372 11.5604 7.74637 10.4212 9.7978 9.04902C11.8493 7.67684 13.8094 6.16163 15.6784 4.5034C15.8745 4.3363 16.0816 4.21325 16.2995 4.13425C16.5174 4.05525 16.7508 4.01575 16.9996 4.01575C17.2485 4.01575 17.4818 4.05525 17.6998 4.13425C17.9177 4.21325 18.1248 4.3363 18.3209 4.5034C20.1898 6.16163 22.15 7.67684 24.2015 9.04902C26.2529 10.4212 28.4456 11.5604 30.7795 12.4667C31.2172 12.6429 31.5681 12.9167 31.8324 13.2881C32.0966 13.6595 32.2288 14.0759 32.2288 14.5372V15.2292C32.2288 16.2953 31.9464 17.262 31.3815 18.1293C30.8167 18.9965 30.0366 19.6009 29.0413 19.9423C29.074 21.31 29.1466 22.6685 29.2592 24.018C29.3718 25.3675 29.5852 26.7124 29.8995 28.0528C30.052 28.7666 29.9176 29.405 29.4963 29.968C29.0749 30.531 28.5147 30.8125 27.8154 30.8125L6.18392 30.8125ZM6.83226 13.1042H27.1671C25.3 12.1942 23.525 11.1567 21.8423 9.9916C20.1595 8.82649 18.5453 7.55194 16.9997 6.16795C15.454 7.55194 13.8398 8.8265 12.1571 9.99164C10.4743 11.1568 8.69938 12.1942 6.83226 13.1042ZM20.5413 18.0625C21.2679 18.0625 21.8627 17.781 22.3258 17.2179C22.789 16.6549 23.0205 15.992 23.0205 15.2291H18.0621C18.0621 15.992 18.2937 16.6549 18.7569 17.2179C19.22 17.781 19.8148 18.0626 20.5413 18.0626V18.0625ZM13.458 18.0625C14.1845 18.0625 14.7793 17.781 15.2425 17.2179C15.7056 16.6549 15.9372 15.992 15.9372 15.2291H10.9788C10.9788 15.992 11.2104 16.6549 11.6735 17.2179C12.1367 17.781 12.7315 18.0626 13.458 18.0626V18.0625ZM6.37467 18.0625C7.10119 18.0625 7.69601 17.781 8.15914 17.2179C8.6223 16.6549 8.85388 15.992 8.85388 15.2291H3.89547C3.89547 15.992 4.12705 16.6549 4.59021 17.2179C5.05334 17.781 5.64816 18.0626 6.37467 18.0626V18.0625ZM6.124 28.6875H10.6901C10.9207 27.18 11.0974 25.6821 11.22 24.1937C11.3426 22.7053 11.4347 21.2028 11.4965 19.6862C11.1696 19.5409 10.874 19.3556 10.6097 19.1304C10.3454 18.9052 10.1143 18.6436 9.91634 18.3458C9.59488 18.8126 9.18758 19.2026 8.69447 19.5159C8.20135 19.8292 7.66418 20.0313 7.08297 20.1221C7.03575 21.5769 6.94858 23.0163 6.82146 24.4402C6.69431 25.8642 6.46182 27.2799 6.124 28.6875ZM12.8368 28.6875H21.1625C20.9464 27.2709 20.7807 25.8565 20.6653 24.4443C20.55 23.0322 20.4615 21.606 20.3997 20.1657C19.7004 20.1639 19.0502 19.9959 18.449 19.6617C17.8478 19.3275 17.3647 18.878 16.9997 18.3131C16.6346 18.878 16.1515 19.3275 15.5503 19.6617C14.9491 19.9959 14.2989 20.1639 13.5996 20.1657C13.5379 21.606 13.4494 23.0322 13.334 24.4443C13.2187 25.8565 13.053 27.2708 12.8368 28.6875ZM23.3093 28.6875H27.8754C27.5375 27.2799 27.305 25.8642 27.1779 24.4402C27.0508 23.0163 26.9636 21.5769 26.9164 20.1221C26.3352 20.0313 25.7935 19.8306 25.2913 19.52C24.7891 19.2094 24.3863 18.8089 24.083 18.3185C23.8941 18.6255 23.6675 18.8916 23.4033 19.1168C23.139 19.342 22.8389 19.5318 22.5029 19.6862C22.5646 21.2028 22.6604 22.7053 22.7903 24.1937C22.9201 25.6821 23.0931 27.18 23.3093 28.6875ZM27.6247 18.0625C28.3512 18.0625 28.946 17.781 29.4091 17.2179C29.8723 16.6549 30.1039 15.992 30.1039 15.2291H25.1455C25.1455 15.992 25.3771 16.6549 25.8402 17.2179C26.3033 17.781 26.8982 18.0626 27.6247 18.0626V18.0625Z" fill="white" fill-opacity="0.6"/>
</svg>
