<svg width="40" height="40" viewBox="0 0 40 40" fill="none" xmlns="http://www.w3.org/2000/svg">
<path d="M18.1414 32.5H10.6735C10.2467 32.5 9.88893 32.3556 9.60021 32.0669C9.31146 31.7781 9.16709 31.4204 9.16709 30.9936V19.1666H7.42359C7.07745 19.1666 6.84561 19.0074 6.72809 18.6891C6.61056 18.3707 6.68396 18.1033 6.94829 17.8868L18.9876 7.02573C19.2631 6.75223 19.6012 6.61548 20.0019 6.61548C20.4026 6.61548 20.7397 6.75223 21.0132 7.02573L26.5388 12.0257V8.70202C26.5388 8.50119 26.6142 8.32545 26.7648 8.17481C26.9154 8.02415 27.0912 7.94881 27.292 7.94881H29.6317C29.8325 7.94881 30.0083 8.02415 30.1589 8.17481C30.3096 8.32545 30.3849 8.50119 30.3849 8.70202V15.468L33.0547 17.8846C33.3175 18.1132 33.3902 18.384 33.2727 18.6971C33.1551 19.0101 32.9233 19.1666 32.5772 19.1666H30.8337V30.9936C30.8337 31.4204 30.6893 31.7781 30.4005 32.0669C30.1118 32.3556 29.7541 32.5 29.3273 32.5H21.8594V23.141H18.1414V32.5ZM11.667 30H15.6415V20.6411H24.3593V30H28.3337V17L20.0004 9.50002L11.667 17V30ZM16.8273 16.6923H23.1735C23.1735 15.8569 22.8561 15.1705 22.2215 14.6331C21.5869 14.0956 20.8465 13.8269 20.0004 13.8269C19.1542 13.8269 18.4139 14.0952 17.7793 14.6316C17.1446 15.168 16.8273 15.8549 16.8273 16.6923Z" fill="white" fill-opacity="0.6"/>
</svg>
