<svg width="37" height="37" viewBox="0 0 37 37" fill="none" xmlns="http://www.w3.org/2000/svg">
<path d="M13.0149 30.6852C10.6846 29.8373 8.65423 28.5575 6.92381 26.8458C5.19339 25.1342 4.21452 23.0738 3.9872 20.6644C3.95755 20.2869 4.06577 19.9603 4.31184 19.6846C4.55792 19.4088 4.86971 19.271 5.24721 19.271H6.93711V7.99901C6.93711 7.65314 7.05323 7.35123 7.28549 7.09328C7.51771 6.83536 7.80677 6.68565 8.15267 6.64415L32.1255 3.97884C32.416 3.93735 32.6586 4.00999 32.8533 4.19676C33.048 4.38353 33.1454 4.6222 33.1454 4.91275C33.1454 5.13608 33.0623 5.33472 32.8963 5.50864C32.7303 5.68257 32.5356 5.78238 32.3123 5.80807L16.1278 7.60766V10.5398H32.2263C32.4911 10.5398 32.7105 10.6268 32.8844 10.8007C33.0584 10.9746 33.1454 11.194 33.1454 11.4589C33.1454 11.7237 33.0584 11.9431 32.8844 12.117C32.7105 12.291 32.4911 12.3779 32.2263 12.3779H16.1278V19.271H31.7519C32.1294 19.271 32.4437 19.4088 32.6947 19.6846C32.9457 19.9603 33.0564 20.2869 33.0267 20.6644C32.7994 23.0836 31.8181 25.1515 30.0827 26.8681C28.3474 28.5847 26.3047 29.857 23.9546 30.6852V31.7525C23.9546 32.1497 23.8217 32.4813 23.5559 32.7471C23.2901 33.013 22.9585 33.1459 22.5612 33.1459H14.4083C14.011 33.1459 13.6794 33.013 13.4136 32.7471C13.1478 32.4813 13.0149 32.1497 13.0149 31.7525V30.6852ZM12.4515 10.5398H14.2897V7.81813L12.4515 8.01678V10.5398ZM8.77524 10.5398H10.6134V8.22729L8.77524 8.4111V10.5398ZM12.4515 19.271H14.2897V12.3779H12.4515V19.271ZM8.77524 19.271H10.6134V12.3779H8.77524V19.271ZM15.3273 30.8334H21.6422V29.108L23.0356 28.5743C24.7215 27.9972 26.2178 27.1107 27.5243 25.915C28.8307 24.7192 29.7735 23.2753 30.3526 21.5834H6.6465C7.21574 23.2753 8.1536 24.7231 9.46008 25.9268C10.7665 27.1305 12.2578 28.013 13.9339 28.5743L15.3273 29.108V30.8334Z" fill="white" fill-opacity="0.6"/>
</svg>
