<svg width="146" height="144" viewBox="0 0 146 144" fill="none" xmlns="http://www.w3.org/2000/svg">
<g clip-path="url(#clip0_42_216)">
<path d="M144.799 86.928L131.922 76.416C139.466 67.776 143.43 57.312 143.43 46.104C143.43 20.664 122.504 0 96.7733 0C86.8029 0 76.9046 3.264 68.9283 9.168C61.4805 14.808 55.9548 22.2 52.9276 30.6C24.53 34.488 3.21986 58.632 3.21986 87.12C3.21986 101.352 8.40926 114.792 17.8751 125.136L0.985536 138.888C0.0485603 139.824 -0.23974 140.88 0.24076 142.248C0.793336 143.352 1.82641 144 2.97961 144H60.8318C90.6469 144 115.633 121.344 118.3 92.16H142.973C144.127 92.16 145.16 91.512 145.712 90.408C146.337 89.16 145.976 87.744 144.799 86.928ZM61.0721 138.24H11.6526L24.6261 127.728C25.1787 127.176 25.5391 126.312 25.5391 125.52C25.5391 124.776 25.2508 124.296 25.0586 123.936L24.9144 123.672C24.8424 123.528 24.7463 123.408 24.6261 123.288C14.872 113.88 9.27416 100.704 9.27416 87.12C9.27416 58.92 32.5063 36 61.0481 36C89.5898 36 112.822 58.944 112.822 87.12C112.822 115.296 89.5898 138.24 61.0481 138.24H61.0721ZM59.8468 30.384C66.2375 15.648 80.6284 6.24 97.0375 6.24C119.429 6.24 137.64 24.216 137.64 46.32C137.64 57.072 133.387 67.2 125.675 74.808C125.123 75.36 124.762 76.224 124.762 77.04C124.762 77.784 125.051 78.264 125.243 78.624L125.387 78.888C125.483 79.08 125.603 79.224 125.771 79.368L134.757 86.64H118.636C118.42 71.352 111.909 56.592 100.641 45.96C89.4696 35.424 75.0546 30 59.8468 30.36V30.384Z" fill="white"/>
<path d="M85.3599 84H36.7573C34.2587 84 32.1445 86.088 32.1445 88.56C32.1445 91.032 34.2587 93.12 36.7573 93.12H85.3599C87.8585 93.12 89.9727 91.032 89.9727 88.56C89.9727 86.088 87.8585 84 85.3599 84Z" fill="white"/>
<path d="M85.3599 66H36.7573C34.2587 66 32.1445 68.088 32.1445 70.56C32.1445 73.032 34.2587 75.12 36.7573 75.12H85.3599C87.8585 75.12 89.9727 73.032 89.9727 70.56C89.9727 68.088 87.8585 66 85.3599 66Z" fill="white"/>
<path d="M85.3599 102H36.7573C34.2587 102 32.1445 104.088 32.1445 106.56C32.1445 109.032 34.2587 111.12 36.7573 111.12H85.3599C87.9787 111.12 89.9727 109.152 89.9727 106.56C89.9727 103.968 87.8585 102 85.3599 102Z" fill="white"/>
</g>
<defs>
<clipPath id="clip0_42_216">
<rect width="146" height="144" fill="white"/>
</clipPath>
</defs>
</svg>
