<svg width="133" height="206" viewBox="0 0 133 206" fill="none" xmlns="http://www.w3.org/2000/svg">
<g clip-path="url(#clip0_42_213)">
<path d="M95.2958 147.629C95.2958 146.608 94.6158 145.211 93.9359 144.53L69.5933 120.147C67.8935 118.444 65.1396 118.444 63.4397 120.147L39.0972 144.19C37.3973 145.892 37.3973 148.651 39.0972 150.388L63.4397 174.771C64.4597 175.793 65.4796 176.133 66.5335 176.133C67.5875 176.133 68.5734 175.452 69.6273 175.112L93.9699 150.728C94.9898 149.707 95.3298 148.651 95.3298 147.629H95.2958ZM66.4995 165.474L48.3446 147.289L66.4995 129.103L84.6544 147.289L66.4995 165.474Z" fill="white"/>
<path d="M115.865 90.3144H128.546C130.96 90.3144 133 88.2711 133 85.8532V60.1075C133 57.6895 130.96 55.6462 128.546 55.6462H115.865V25.7457C115.865 24.7241 115.185 23.3278 114.505 22.6467L105.938 14.0648C104.238 12.362 101.484 12.362 99.784 14.0648C98.0841 15.7676 98.0841 18.526 99.784 20.2288L106.992 27.4485V55.6122H97.6081C96.6222 44.1356 89.4486 34.532 79.4192 30.1048C82.445 26.9036 84.3829 22.6467 84.3829 17.8449C84.3829 7.90081 76.4954 0 66.568 0C56.6406 0 48.7531 7.90081 48.7531 17.8449C48.7531 22.7829 50.691 27.1761 53.8528 30.4113C44.0953 34.9747 36.9898 44.4421 35.9018 55.6462H25.8044V27.4826L33.352 20.2629C35.0519 18.5601 35.0519 15.8016 33.352 14.0989C31.6521 12.3961 28.8983 12.3961 27.1644 14.0989L18.5969 22.6808C17.5769 23.7024 17.237 24.7241 17.237 25.7798V55.6462H4.45373C2.03988 55.6462 0 57.6895 0 60.1075V85.8532C0 88.2711 2.03988 90.3144 4.45373 90.3144H17.135V182.774C16.931 183.285 16.795 183.83 16.795 184.409C16.795 184.988 16.931 185.567 17.135 186.078V197.112H4.45373C2.03988 197.112 0 199.189 0 201.573C0 203.957 2.03988 206.034 4.45373 206.034H128.546C130.96 206.034 133 203.957 133 201.573C133 199.189 130.96 197.112 128.546 197.112H115.865V90.3144ZM66.5 8.58191C71.6337 8.58191 75.7474 12.7026 75.7474 17.8449C75.7474 22.9873 71.6337 27.108 66.5 27.108C61.3663 27.108 57.2526 22.9873 57.2526 17.8449C57.2526 12.7026 61.3663 8.58191 66.5 8.58191ZM66.84 36.0645C78.1613 36.0645 87.7147 44.4421 89.2446 55.6462H44.4693C45.9992 44.7145 55.5527 36.0645 66.84 36.0645ZM8.56748 64.5346H124.433V81.6985H113.077C112.567 81.4941 111.989 81.3579 111.411 81.3579C110.833 81.3579 110.255 81.4941 109.745 81.6985H23.1866C22.7106 81.4941 22.1667 81.3579 21.5887 81.3579C21.0107 81.3579 20.4328 81.4941 19.9228 81.6985H8.56748V64.5346ZM106.958 90.2804V98.5217H25.7025V90.2804H106.958ZM25.7025 197.078V188.836H51.4049C53.8188 188.836 55.8586 186.759 55.8586 184.375C55.8586 181.991 53.8188 179.914 51.4049 179.914H25.7025V107.478H106.958V179.914H81.2551C78.8413 179.914 76.8014 181.991 76.8014 184.375C76.8014 186.759 78.8413 188.836 81.2551 188.836H106.958V197.078H25.7025Z" fill="white"/>
</g>
<defs>
<clipPath id="clip0_42_213">
<rect width="133" height="206" fill="white"/>
</clipPath>
</defs>
</svg>
