<svg width="155" height="155" viewBox="0 0 155 155" fill="none" xmlns="http://www.w3.org/2000/svg">
<g clip-path="url(#clip0_33_287)">
<path d="M80.8323 0H72.0892V0.0990626C31.5741 2.93886 0 36.6862 0 77.5C0 118.314 32.2009 152.788 73.3759 154.967H80.8323C122.436 153.217 155 119.172 155 77.5C155 35.8277 122.436 1.78313 80.8323 0ZM74.2997 111.115V147.636C63.2801 139.249 54.3391 128.418 48.4004 116.267C56.6816 113.262 65.3917 111.545 74.2997 111.082V111.115ZM42.4287 118.71C47.5756 129.475 54.768 139.084 63.742 147.273C49.984 144.532 37.0179 137.532 27.0541 127.527C31.805 124.092 36.9519 121.121 42.4287 118.71ZM74.2997 104.676C64.4679 105.105 54.9 107.054 45.794 110.389C42.3627 101.836 40.3502 92.6896 39.7563 83.2456H74.2997V104.676ZM33.2897 83.2456C33.8836 93.4821 36.0941 103.421 39.8553 112.799C33.7846 115.474 28.0438 118.842 22.765 122.739C13.4281 111.445 7.91826 97.8409 6.73052 83.3117H33.2897V83.2456ZM44.2433 48.7058C53.8112 52.4372 63.94 54.5835 74.2997 55.0788V76.7405H39.5253C39.5913 67.2305 41.175 57.7865 44.2103 48.7058H44.2433ZM63.742 7.69386C53.8442 16.7416 45.8599 27.9357 40.6801 40.1204C34.9063 37.3466 29.4625 33.9785 24.5136 30.115C34.8074 18.5908 48.6973 10.6657 63.742 7.69386ZM74.2997 7.29761V48.6067C64.7648 48.1444 55.4278 46.1302 46.5528 42.663C52.4585 28.7942 62.0594 16.5765 74.2997 7.29761ZM38.3376 46.1632C34.9393 55.9374 33.1577 66.2399 33.1247 76.8066H6.43359C6.56556 61.683 11.4155 47.2859 20.4885 35.1342C26.0643 39.493 32.069 43.1913 38.3376 46.1632ZM148.566 76.7405H121.116C121.017 66.7352 119.401 56.8289 116.267 47.3519C122.931 44.4791 129.332 40.7478 135.336 36.2239C143.848 48.0784 148.401 62.0793 148.566 76.7405ZM148.335 83.1796C147.214 97.3125 141.968 110.62 133.159 121.715C127.451 117.686 121.314 114.318 114.848 111.677C118.312 102.662 120.358 93.1189 120.951 83.2126H148.368L148.335 83.1796ZM108.777 109.398C99.7701 106.426 90.3342 104.808 80.7333 104.577V83.2126H114.485C113.891 92.3264 111.977 101.143 108.777 109.398ZM112.34 117.587C118.114 119.965 123.69 122.97 128.87 126.569C118.51 137.4 104.818 144.764 90.2352 147.405C99.6711 138.886 107.095 128.847 112.307 117.587H112.34ZM80.7333 111.016C89.5094 111.247 98.0875 112.7 106.27 115.375C100.43 127.593 91.6209 138.523 80.7333 146.976V111.016ZM80.7333 48.7058V7.99105C92.8746 17.435 102.311 29.7848 108.051 43.7196C99.2752 46.8566 90.0702 48.5407 80.7333 48.7718V48.7058ZM114.023 41.2761C108.843 28.5631 100.595 16.8737 90.2352 7.46272C106.204 10.3686 120.754 18.7559 131.377 31.1057C125.966 35.1672 120.127 38.6014 114.023 41.2431V41.2761ZM80.7333 55.1449C90.8621 54.9137 100.793 53.0976 110.262 49.6964C113.099 58.447 114.584 67.5277 114.65 76.7405H80.7333V55.1449Z" fill="white"/>
</g>
<defs>
<clipPath id="clip0_33_287">
<rect width="155" height="155" fill="white"/>
</clipPath>
</defs>
</svg>
