<svg width="146" height="48" viewBox="0 0 146 48" fill="none" xmlns="http://www.w3.org/2000/svg">
<g clip-path="url(#clip0_35_31)">
<path d="M42.7079 36.4979C41.7102 36.1446 41.5212 35.9091 41.5212 35.5039C41.5212 35.0987 41.8082 34.7766 42.4908 34.7766C42.9914 34.7766 43.3239 34.9394 43.688 35.2372L44.045 34.8043C43.625 34.4718 43.1979 34.2778 42.5258 34.2778C41.5947 34.2778 40.9646 34.7489 40.9646 35.5385C40.9646 36.252 41.3287 36.5983 42.4068 36.9793C43.3204 37.3049 43.597 37.5646 43.597 38.0218C43.597 38.5448 43.1839 38.8704 42.5223 38.8704C42.0078 38.8704 41.5737 38.6349 41.1957 38.2781L40.8281 38.6868C41.2202 39.0816 41.8258 39.3726 42.5048 39.3726C43.5445 39.3726 44.157 38.7699 44.157 37.9976C44.157 37.2252 43.8175 36.8962 42.7114 36.5014L42.7079 36.4979Z" fill="white"/>
<path d="M46.4173 35.5143C45.9308 35.5143 45.4897 35.632 45.1607 35.8086L45.3637 36.2381C45.6682 36.0615 45.9903 35.9541 46.3823 35.9541C46.9284 35.9541 47.1944 36.2208 47.1944 36.7749V37.2113C46.9739 37.0901 46.6344 36.9966 46.2598 36.9966C45.5212 36.9966 44.8281 37.3499 44.8281 38.1811C44.8281 39.0747 45.4407 39.3656 46.0218 39.3656C46.5608 39.3656 46.9284 39.1162 47.1944 38.8357V39.2894H47.7265V36.7057C47.7265 35.8467 47.2224 35.5073 46.4173 35.5073V35.5143ZM47.1944 38.3855C46.9669 38.6937 46.6028 38.9396 46.1198 38.9396C45.6612 38.9396 45.3532 38.7006 45.3532 38.1499C45.3532 37.6858 45.6822 37.4226 46.2318 37.4226C46.6869 37.4226 46.9494 37.5057 47.1944 37.6373V38.3889V38.3855Z" fill="white"/>
<path d="M53.0967 37.1249V39.293H53.6288V37.0383C53.6288 35.9577 53.1527 35.5144 52.3896 35.5144C51.7806 35.5144 51.476 35.7949 51.2555 36.1482C51.077 35.7949 50.7584 35.5144 50.2299 35.5144C49.7888 35.5144 49.4738 35.7257 49.2813 36.0443V35.5941H48.7422V39.2965H49.2813V37.1284C49.2813 36.3075 49.5998 35.9716 50.1144 35.9716C50.6289 35.9716 50.9195 36.2798 50.9195 37.1284V39.2965H51.455V37.1284C51.455 36.3075 51.7806 35.9716 52.2881 35.9716C52.8272 35.9716 53.0932 36.2798 53.0932 37.1284L53.0967 37.1249Z" fill="white"/>
<path d="M55.7737 37.1386C55.1401 36.8546 54.9511 36.7333 54.9511 36.4182C54.9511 36.148 55.1751 35.961 55.5706 35.961C55.9662 35.961 56.2112 36.0649 56.5017 36.2935L56.7993 35.9021C56.5158 35.6701 56.1167 35.5107 55.6056 35.5107C54.923 35.5107 54.4365 35.8917 54.4365 36.4528C54.4365 37.0451 54.748 37.2702 55.5006 37.5888C56.1622 37.8694 56.3827 38.0391 56.3827 38.3438C56.3827 38.704 56.1412 38.9153 55.6266 38.9153C55.2556 38.9153 54.9055 38.7664 54.608 38.5066L54.293 38.8911C54.65 39.1751 55.0981 39.3656 55.6126 39.3656C56.2602 39.3656 56.8938 39.0504 56.8938 38.3196C56.8938 37.6581 56.4807 37.4537 55.7702 37.1351L55.7737 37.1386Z" fill="white"/>
<path d="M60.0176 37.7552C60.0176 38.5657 59.608 38.9086 59.0935 38.9086C58.4914 38.9086 58.2078 38.5518 58.2078 37.7552V35.5906H57.6758V37.8453C57.6758 38.9086 58.1973 39.3692 58.9849 39.3692C59.4575 39.3692 59.8041 39.151 60.0176 38.8393V39.293H60.5531V35.5906H60.0176V37.7552Z" fill="white"/>
<path d="M64.334 39.293V37.0383C64.334 35.9716 63.8124 35.5144 63.0213 35.5144C62.5523 35.5144 62.2022 35.7326 61.9922 36.0443V35.5941H61.4531V39.2965H61.9922V37.1284C61.9922 36.3179 62.3947 35.9716 62.9128 35.9716C63.5114 35.9716 63.7984 36.3318 63.7984 37.1284V39.2965H64.334V39.293Z" fill="white"/>
<path d="M66.0162 40.2487L66.1878 40.6505C67.5774 40.6089 68.0815 40.0721 68.0815 38.9569V35.5869H67.5459V36.0026C67.2834 35.7047 66.9614 35.5107 66.4923 35.5107C65.7082 35.5107 65.0781 36.1861 65.0781 37.4988C65.0781 38.8114 65.6732 39.3656 66.4188 39.3656C66.9264 39.3656 67.2834 39.1162 67.5459 38.8357V39.0261C67.5459 39.8885 67.2624 40.2141 66.0127 40.2453L66.0162 40.2487ZM66.5553 38.9084C65.9637 38.9084 65.6067 38.4235 65.6067 37.4918C65.6067 36.4978 65.9112 35.9679 66.5343 35.9679C66.9789 35.9679 67.3394 36.2138 67.5459 36.5221V38.375C67.2834 38.7006 66.9544 38.9084 66.5553 38.9084Z" fill="white"/>
<path d="M73.9856 36.7888C73.9856 35.0952 73.0195 34.354 71.7103 34.354H70.3906V39.2929H71.6123C72.946 39.2929 73.9856 38.5794 73.9856 36.7888ZM70.9472 34.8527H71.6683C72.8164 34.8527 73.429 35.5454 73.429 36.8061C73.429 38.2261 72.7569 38.7907 71.6823 38.7907H70.9472V34.8527Z" fill="white"/>
<path d="M75.4106 36.0477V35.5906H74.875V39.293H75.4106V37.1179C75.4106 36.4114 75.7046 35.9992 76.2262 35.9992C76.4747 35.9992 76.6357 36.0547 76.7862 36.1412L76.9193 35.6079C76.7932 35.5525 76.6147 35.5178 76.3347 35.5178C75.9321 35.5178 75.5786 35.7568 75.4106 36.0512V36.0477Z" fill="white"/>
<path d="M80.1173 38.9397L79.8652 38.5587C79.5222 38.7839 79.2667 38.912 78.8291 38.912C78.22 38.912 77.8385 38.4098 77.7895 37.6236H80.2818C80.2993 37.537 80.3063 37.4608 80.3063 37.3361C80.3063 36.2798 79.7742 35.5178 78.7976 35.5178C77.9085 35.5178 77.2539 36.2486 77.2539 37.4227C77.2539 38.8808 78.087 39.3726 78.7731 39.3726C79.3367 39.3726 79.6657 39.2237 80.1173 38.9432V38.9397ZM78.7976 35.9715C79.4522 35.9715 79.7672 36.4737 79.8092 37.1907H77.7895C77.8525 36.3629 78.241 35.9715 78.7976 35.9715Z" fill="white"/>
<path d="M82.0909 39.369C82.6264 39.369 82.994 39.1197 83.2565 38.8391V39.2928H83.7921V36.7091C83.7921 35.8502 83.288 35.5107 82.4829 35.5107C81.9964 35.5107 81.5553 35.6285 81.2263 35.8051L81.4258 36.2346C81.7338 36.058 82.0524 35.9506 82.4444 35.9506C82.994 35.9506 83.2565 36.2173 83.2565 36.7714V37.2078C83.036 37.0866 82.6999 36.9931 82.3254 36.9931C81.5833 36.9931 80.8867 37.3464 80.8867 38.1776C80.8867 39.0712 81.5028 39.3621 82.0874 39.3621L82.0909 39.369ZM82.2974 37.4191C82.7525 37.4191 83.0185 37.5022 83.26 37.6338V38.3854C83.0325 38.6937 82.6684 38.9396 82.1854 38.9396C81.7303 38.9396 81.4188 38.7006 81.4188 38.1499C81.4188 37.6858 81.7513 37.4226 82.2974 37.4226V37.4191Z" fill="white"/>
<path d="M89.1609 37.1249V39.293H89.6964V37.0383C89.6964 35.9577 89.2204 35.5144 88.4573 35.5144C87.8517 35.5144 87.5437 35.7949 87.3266 36.1482C87.1481 35.7949 86.8296 35.5144 86.301 35.5144C85.8564 35.5144 85.5449 35.7257 85.3524 36.0443V35.5941H84.8203V39.2965H85.3524V37.1284C85.3524 36.3075 85.6744 35.9716 86.189 35.9716C86.7035 35.9716 86.9976 36.2798 86.9976 37.1284V39.2965H87.5297V37.1284C87.5297 36.3075 87.8552 35.9716 88.3663 35.9716C88.9053 35.9716 89.1714 36.2798 89.1714 37.1284L89.1609 37.1249Z" fill="white"/>
<path d="M42.7079 43.844C41.7067 43.4908 41.5247 43.2587 41.5247 42.85C41.5247 42.4414 41.8118 42.1262 42.4943 42.1262C42.9949 42.1262 43.3309 42.2855 43.6915 42.5834L44.0485 42.1539C43.6285 41.8249 43.1979 41.6274 42.5293 41.6274C41.5947 41.6274 40.9681 42.0915 40.9681 42.8881C40.9681 43.6016 41.3322 43.9445 42.4103 44.3255C43.3239 44.6545 43.6005 44.9108 43.6005 45.3714C43.6005 45.891 43.1874 46.2165 42.5223 46.2165C42.0078 46.2165 41.5737 45.981 41.1957 45.6243L40.8281 46.033C41.2202 46.4278 41.8258 46.7153 42.5048 46.7153C43.5445 46.7153 44.1535 46.1161 44.1535 45.3403C44.1535 44.5645 43.814 44.2389 42.7114 43.844H42.7079Z" fill="white"/>
<path d="M46.4264 43.3176C46.8044 43.3176 47.0529 43.4492 47.3225 43.6916L47.6445 43.2968C47.3505 43.0405 46.9619 42.8569 46.4614 42.8569C45.6773 42.8569 44.8477 43.4353 44.8477 44.8034C44.8477 46.0953 45.6003 46.7118 46.4229 46.7118C46.9479 46.7118 47.312 46.5143 47.627 46.1957L47.305 45.8598C47.0494 46.1057 46.8079 46.2511 46.4439 46.2511C45.7823 46.2511 45.3867 45.6658 45.3867 44.7549C45.3867 43.844 45.8383 43.3106 46.4229 43.3106L46.4264 43.3176Z" fill="white"/>
<path d="M49.9276 42.8604C49.4585 42.8604 49.105 43.0786 48.8914 43.3903V41.6516H48.3594V46.6459H48.8914V44.4778C48.8914 43.6673 49.301 43.321 49.8191 43.321C50.4211 43.321 50.7047 43.6777 50.7047 44.4778V46.6459H51.2402V44.3843C51.2402 43.321 50.7187 42.8604 49.9276 42.8604Z" fill="white"/>
<path d="M53.6308 42.8604C52.7207 42.8604 51.9961 43.5357 51.9961 44.793C51.9961 46.0502 52.6927 46.7186 53.6028 46.7186C54.5129 46.7186 55.2445 46.0225 55.2445 44.7653C55.2445 43.508 54.5409 42.8604 53.6308 42.8604ZM53.6203 46.258C52.9692 46.258 52.5317 45.7523 52.5317 44.7791C52.5317 43.8059 52.9692 43.321 53.6203 43.321C54.2714 43.321 54.7089 43.8059 54.7089 44.7791C54.7089 45.7523 54.2679 46.258 53.6203 46.258Z" fill="white"/>
<path d="M56.5824 41.6482H56.0469V46.6425H56.5824V41.6482Z" fill="white"/>
<path d="M59.031 42.8604C58.5445 42.8604 58.1034 42.9816 57.7779 43.1582L57.9774 43.5911C58.2854 43.4145 58.6075 43.3071 58.9995 43.3071C59.5456 43.3071 59.8116 43.5773 59.8116 44.1245V44.5644C59.5911 44.4431 59.255 44.3496 58.8805 44.3496C58.1384 44.3496 57.4453 44.7029 57.4453 45.5376C57.4453 46.4312 58.0579 46.7186 58.6425 46.7186C59.178 46.7186 59.5456 46.4727 59.8116 46.1922V46.6459H60.3472V44.0656C60.3472 43.1998 59.8396 42.8638 59.0345 42.8638L59.031 42.8604ZM59.8081 45.7316C59.5841 46.0363 59.213 46.2857 58.7335 46.2857C58.2784 46.2857 57.9704 46.0467 57.9704 45.496C57.9704 45.0285 58.2994 44.7722 58.849 44.7722C59.304 44.7722 59.5666 44.8484 59.8081 44.9835V45.7316Z" fill="white"/>
<path d="M61.8988 43.3973V42.9332H61.3633V46.6391H61.8988V44.464C61.8988 43.7609 62.1859 43.3419 62.7109 43.3419C62.963 43.3419 63.124 43.3973 63.2745 43.4839L63.411 42.947C63.2815 42.8916 63.1065 42.8535 62.8265 42.8535C62.4274 42.8535 62.0669 43.0925 61.9023 43.3938L61.8988 43.3973Z" fill="white"/>
<path d="M65.4607 44.4882C64.8272 44.2042 64.6346 44.076 64.6346 43.7678C64.6346 43.5011 64.8622 43.3106 65.2542 43.3106C65.6463 43.3106 65.8983 43.418 66.1888 43.6431L66.4864 43.2552C66.1993 43.0231 65.8038 42.8604 65.2892 42.8604C64.6101 42.8604 64.1166 43.2413 64.1166 43.8059C64.1166 44.3704 64.4316 44.6232 65.1807 44.9384C65.8423 45.219 66.0628 45.3921 66.0628 45.6935C66.0628 46.0571 65.8213 46.2649 65.3102 46.2649C64.9357 46.2649 64.5891 46.116 64.2881 45.8562L63.9766 46.2441C64.3336 46.5281 64.7817 46.7152 65.2962 46.7152C65.9438 46.7152 66.5774 46.3965 66.5774 45.6727C66.5774 45.0077 66.1643 44.8068 65.4572 44.4882H65.4607Z" fill="white"/>
<path d="M69.0209 42.8604C68.5449 42.8604 68.1983 43.0786 67.9848 43.3903V41.6516H67.4492V46.6459H67.9848V44.4778C67.9848 43.6673 68.3908 43.321 68.9124 43.321C69.511 43.321 69.7945 43.6777 69.7945 44.4778V46.6459H70.3301V44.3843C70.3301 43.321 69.812 42.8604 69.0209 42.8604Z" fill="white"/>
<path d="M71.9188 42.9331H71.3867V46.639H71.9188V42.9331Z" fill="white"/>
<path d="M71.662 41.52C71.445 41.52 71.2734 41.6897 71.2734 41.9045C71.2734 42.1192 71.445 42.2785 71.662 42.2785C71.8615 42.2785 72.033 42.1053 72.033 41.9045C72.033 41.6897 71.8615 41.52 71.662 41.52Z" fill="white"/>
<path d="M74.6588 42.8604C74.1547 42.8604 73.7977 43.1097 73.5317 43.3903V42.9365H72.9961V48.0036H73.5317V46.2268C73.7942 46.5212 74.1162 46.7186 74.5888 46.7186C75.3694 46.7186 75.9995 46.0398 75.9995 44.7306C75.9995 43.4214 75.4044 42.8604 74.6588 42.8604ZM74.5433 46.258C74.1022 46.258 73.7382 46.0121 73.5317 45.7004V43.8509C73.7942 43.5288 74.1232 43.3175 74.5223 43.3175C75.1174 43.3175 75.4744 43.8024 75.4744 44.7341C75.4744 45.7281 75.1664 46.2545 74.5468 46.2545L74.5433 46.258Z" fill="white"/>
<path d="M78.8339 42.2023H81.2072V41.7036H78.2773V46.6425H78.8339V44.3393H80.2026V43.8406H78.8339V42.2023Z" fill="white"/>
<path d="M82.8296 42.8604C81.9195 42.8604 81.1914 43.5357 81.1914 44.793C81.1914 46.0502 81.8915 46.7186 82.8016 46.7186C83.7117 46.7186 84.4433 46.0225 84.4433 44.7653C84.4433 43.508 83.7467 42.8604 82.8296 42.8604ZM82.8156 46.258C82.1645 46.258 81.734 45.7523 81.734 44.7791C81.734 43.8059 82.168 43.321 82.8156 43.321C83.4632 43.321 83.9078 43.8059 83.9078 44.7791C83.9078 45.7523 83.4667 46.258 82.8156 46.258Z" fill="white"/>
<path d="M87.3926 45.1012C87.3926 45.9117 86.99 46.258 86.4685 46.258C85.8699 46.258 85.5829 45.9013 85.5829 45.1012V42.9331H85.0508V45.1913C85.0508 46.2546 85.5723 46.7152 86.3634 46.7152C86.829 46.7152 87.1791 46.5005 87.3926 46.1888V46.6425H87.9317V42.9366H87.3926V45.1047V45.1012Z" fill="white"/>
<path d="M90.3963 42.8604C89.9273 42.8604 89.5772 43.0786 89.3637 43.3903V42.9366H88.8281V46.6425H89.3637V44.4744C89.3637 43.6639 89.7697 43.3176 90.2913 43.3176C90.8899 43.3176 91.1734 43.6743 91.1734 44.4744V46.6425H91.709V44.3809C91.709 43.3176 91.1874 42.8569 90.3963 42.8569V42.8604Z" fill="white"/>
<path d="M94.9287 43.3557C94.6627 43.0578 94.3442 42.8569 93.8716 42.8569C93.0875 42.8569 92.4609 43.5323 92.4609 44.8484C92.4609 46.1645 93.0525 46.7152 93.8016 46.7152C94.3092 46.7152 94.6627 46.4693 94.9252 46.1888V46.6425H95.4608V41.6482H94.9252V43.3557H94.9287ZM94.9287 45.7212C94.6627 46.0433 94.3372 46.2546 93.9381 46.2546C93.3465 46.2546 92.9895 45.7697 92.9895 44.838C92.9895 43.8406 93.294 43.3141 93.9171 43.3141C94.3582 43.3141 94.7187 43.56 94.9287 43.8717V45.7178V45.7212Z" fill="white"/>
<path d="M97.7294 42.8604C97.2464 42.8604 96.8053 42.9816 96.4763 43.1582L96.6723 43.5911C96.9803 43.4145 97.3024 43.3071 97.6944 43.3071C98.2405 43.3071 98.503 43.5773 98.503 44.1245V44.5644C98.2825 44.4431 97.9464 44.3496 97.5684 44.3496C96.8298 44.3496 96.1367 44.7029 96.1367 45.5376C96.1367 46.4312 96.7528 46.7186 97.3374 46.7186C97.8729 46.7186 98.2405 46.4727 98.503 46.1922V46.6459H99.0386V44.0656C99.0386 43.1998 98.5345 42.8638 97.7259 42.8638L97.7294 42.8604ZM98.503 45.7316C98.2755 46.0363 97.9149 46.2857 97.4249 46.2857C96.9733 46.2857 96.6688 46.0467 96.6688 45.496C96.6688 45.0285 96.9943 44.7722 97.5439 44.7722C97.999 44.7722 98.265 44.8484 98.503 44.9835V45.7316Z" fill="white"/>
<path d="M100.743 41.6482H100.204V42.9331H99.7422V43.3799H100.204V45.8771C100.204 46.4901 100.456 46.7118 100.922 46.7118C101.202 46.7118 101.401 46.6702 101.608 46.5871L101.646 46.1299C101.475 46.1992 101.335 46.2338 101.118 46.2338C100.834 46.2338 100.743 46.1195 100.743 45.7905V43.3799H101.671V42.9331H100.743V41.6482Z" fill="white"/>
<path d="M102.888 41.52C102.667 41.52 102.492 41.6897 102.492 41.9045C102.492 42.1192 102.667 42.2785 102.888 42.2785C103.087 42.2785 103.255 42.1053 103.255 41.9045C103.255 41.6897 103.084 41.52 102.888 41.52Z" fill="white"/>
<path d="M103.145 42.9331H102.609V46.639H103.145V42.9331Z" fill="white"/>
<path d="M105.587 42.8604C104.677 42.8604 103.949 43.5357 103.949 44.793C103.949 46.0502 104.646 46.7186 105.559 46.7186C106.473 46.7186 107.198 46.0225 107.198 44.7653C107.198 43.508 106.498 42.8604 105.587 42.8604ZM105.573 46.258C104.926 46.258 104.488 45.7523 104.488 44.7791C104.488 43.8059 104.926 43.321 105.573 43.321C106.221 43.321 106.666 43.8059 106.666 44.7791C106.666 45.7523 106.225 46.258 105.573 46.258Z" fill="white"/>
<path d="M109.537 42.8604C109.067 42.8604 108.717 43.0786 108.5 43.3903V42.9366H107.965V46.6425H108.5V44.4744C108.5 43.6639 108.906 43.3176 109.428 43.3176C110.027 43.3176 110.314 43.6743 110.314 44.4744V46.6425H110.846V44.3809C110.846 43.3176 110.324 42.8569 109.537 42.8569V42.8604Z" fill="white"/>
<path d="M61.4244 24.6321C59.2751 24.6355 57.5039 26.298 57.5039 28.383C57.5039 30.468 59.2751 32.1131 61.4244 32.1201C63.5947 32.1131 65.3484 30.4472 65.3484 28.383C65.3484 26.3188 63.5947 24.6355 61.4244 24.6321ZM61.3719 30.4091C60.2483 30.4091 59.4011 29.5017 59.4011 28.383C59.4011 27.2643 60.3078 26.3396 61.4279 26.3396C62.548 26.3396 63.4232 27.247 63.4232 28.383C63.4232 29.519 62.506 30.4091 61.3754 30.4091H61.3719Z" fill="white"/>
<path d="M43.4351 22.052C44.0337 22.6373 44.7197 23.1499 45.3953 23.479L45.4653 23.5171L46.624 22.1628L46.512 22.1005C45.4128 21.5117 44.5517 20.7671 43.9882 19.8285C43.4281 18.9037 43.141 17.8301 43.141 16.5451V15.3398H41.0688V16.417C41.0688 17.8093 40.7502 18.9037 40.1517 19.8631C39.4831 20.9264 38.4925 21.7819 37.2253 22.575L37.1133 22.6443L38.3699 23.9327L38.4399 23.8946C39.189 23.4928 39.9836 22.8729 40.6732 22.1802C41.2718 21.5741 41.7899 20.9264 42.1049 20.3134C42.4095 20.916 42.875 21.529 43.4351 22.0555V22.052Z" fill="white"/>
<path d="M41.1914 31.2335H49.8655V25.3699H41.1914V31.2335ZM43.1412 27.0254H47.9158V29.578H43.1412V27.0254Z" fill="white"/>
<path d="M70.1133 31.2335H79.9215V25.3699H70.1133V31.2335ZM72.042 27.0254H77.9963V29.578H72.042V27.0254Z" fill="white"/>
<path d="M49.9014 14.9934H47.9727V24.698H49.9014V20.4033H52.1592V18.6785H49.9014V14.9934Z" fill="white"/>
<path d="M89.8911 22.5472C90.5247 23.091 91.2493 23.5481 91.9319 23.8425L92.0019 23.8737L93.045 22.4779L92.933 22.4225C91.9389 21.9203 91.0532 21.2969 90.4162 20.5349C89.7686 19.7591 89.3835 18.824 89.3835 17.6984V17.3693H92.2539V15.7H84.4619V17.3693H87.3288V17.7711C87.3288 18.7963 86.9857 19.7522 86.4152 20.58C85.7466 21.574 84.7699 22.374 83.8213 22.8935L83.6953 22.9593L84.9765 24.272L85.0465 24.2374C85.7361 23.8495 86.4992 23.2641 87.1503 22.6061C87.6718 22.0658 88.1409 21.4943 88.4279 20.9228C88.7745 21.477 89.3065 22.0311 89.8946 22.5472H89.8911Z" fill="white"/>
<path d="M103.84 27.0635H110.851V31.23H112.797V25.408H103.84V27.0635Z" fill="white"/>
<path d="M108.675 20.3894C108.675 19.4716 108.258 18.6265 107.642 17.9823H109.567V16.3303H105.892V14.512H103.802V16.3303H100.039V17.9823H102.006C101.404 18.6265 100.988 19.4647 100.988 20.3894C100.988 22.4363 102.692 24.0988 104.824 24.1057C106.956 24.0988 108.671 22.4363 108.675 20.3894ZM102.846 20.3132C102.846 19.1807 103.813 18.2213 104.824 18.2213C105.836 18.2213 106.798 19.1842 106.802 20.3132C106.802 21.4285 105.836 22.3913 104.824 22.3948C103.809 22.3913 102.85 21.4285 102.846 20.3132Z" fill="white"/>
<path d="M112.796 14.9934H110.871V24.7326H112.796V21.0164H115.061V19.2916H112.796V14.9934Z" fill="white"/>
<path d="M96.4604 14.9934H94.5352V24.7326H96.4604V20.4033H98.7217V18.6785H96.4604V14.9934Z" fill="white"/>
<path d="M63.7814 17.8819H60.75V19.5894H63.7814V25.0409H65.7101V14.9934H63.7814V17.8819Z" fill="white"/>
<path d="M58.8828 22.3048C59.4849 22.8867 60.1885 23.3993 60.8606 23.7456L60.9341 23.7872L62.0927 22.433L61.9807 22.3707C60.8816 21.7992 60.038 21.058 59.4709 20.1333C58.8968 19.2154 58.6098 18.1002 58.6098 16.8153V15.3398H56.534V16.6906C56.534 18.0829 56.219 19.1739 55.6344 20.1159C54.9693 21.1965 53.9577 22.0589 52.6905 22.8451L52.582 22.9144L53.8457 24.2063L53.9087 24.1647C54.6543 23.7595 55.4314 23.1742 56.121 22.5057C56.7441 21.8927 57.2621 21.2243 57.5772 20.5835C57.8747 21.1688 58.3298 21.7646 58.8828 22.3083V22.3048Z" fill="white"/>
<path d="M92.3263 24.6321C90.1771 24.6355 88.4058 26.298 88.4023 28.383C88.4058 30.4472 90.1736 32.1131 92.3263 32.1201C94.4931 32.1131 96.2503 30.4472 96.2503 28.383C96.2503 26.3188 94.4931 24.6355 92.3263 24.6321ZM92.2703 30.4091C91.1502 30.4091 90.2961 29.5017 90.2961 28.383C90.2961 27.2643 91.1992 26.3396 92.3263 26.3396C93.4535 26.3396 94.3181 27.247 94.3216 28.383C94.3216 29.4982 93.401 30.4091 92.2703 30.4091Z" fill="white"/>
<path d="M72.46 20.5592H74.3888V15.603H69.1836V17.2516H72.46V20.5592Z" fill="white"/>
<path d="M78.2495 20.5592H80.1817V15.603H74.9766V17.2516H78.2495V20.5592Z" fill="white"/>
<path d="M127.413 19.3816H125.792V15.2636H123.969V30.8145H125.792V21.2519H127.413V31.2301H129.303V14.9934H127.413V19.3816Z" fill="white"/>
<path d="M121.295 21.5323C120.86 20.5937 120.682 19.5443 120.682 18.2559V17.6428H122.87V15.8938H116.513V17.6428H118.771V18.2905C118.771 19.5096 118.61 20.5071 118.221 21.4319C117.77 22.4951 117.01 23.4511 115.799 24.4762L115.715 24.5524L116.912 25.7265L116.986 25.6711C117.588 25.2313 118.218 24.594 118.743 23.9359C119.187 23.3818 119.562 22.8069 119.796 22.3012C120.038 22.793 120.416 23.3575 120.857 23.884C121.368 24.5005 121.946 25.0858 122.499 25.4356L122.572 25.4841L123.58 24.2927L123.5 24.2199C122.415 23.2848 121.743 22.4501 121.302 21.5288L121.295 21.5323Z" fill="white"/>
<path d="M67.5703 22.8658H73.9726V24.7153H76.0624V22.8658H82.5662V21.2068H67.5703V22.8658Z" fill="white"/>
<path d="M140.284 22.3359H133.766V17.4282H138.729V15.7H131.812V24.0122H140.284V22.3359Z" fill="white"/>
<path d="M136.598 26.0557H134.648V31.2301H143.767V29.526H136.598V26.0557Z" fill="white"/>
<path d="M143.722 19.489V14.99H141.797V26.9701H143.722V21.2138H146.001V19.489H143.722Z" fill="white"/>
<path d="M40.8906 9.98167L35.8955 7.93477L40.8906 5.88787L40.0015 3.7717L35.0099 5.8186L37.0786 0.876254L34.9363 0L32.8711 4.94235L30.8023 0L28.66 0.876254L30.7288 5.8186L25.7372 3.7717L24.8516 5.88787L29.8432 7.93477L24.8516 9.98167L25.7372 12.0978L30.7288 10.0509L28.66 14.9933L30.8023 15.8695L32.8711 10.9307L34.9363 15.8695L37.0786 14.9898L35.0099 10.0509L40.0015 12.0978L40.8906 9.98167Z" fill="white"/>
<path d="M8.56827 23.7698H11.8902V14.9934H0.53125V17.9512H8.56827V23.7698Z" fill="white"/>
<path d="M21.5292 23.7698H24.8511V14.9934H13.4922V17.9512H21.5292V23.7698Z" fill="white"/>
<path d="M0 28.3103H21.5277V32.8301H24.8496V25.3525H0V28.3103Z" fill="white"/>
<path d="M8.03516 46.6424H24.8478V34.3506H8.03516V46.6424ZM11.3571 37.3084H21.5294V43.6846H11.3571V37.3084Z" fill="white"/>
</g>
<defs>
<clipPath id="clip0_35_31">
<rect width="146" height="48" fill="white"/>
</clipPath>
</defs>
</svg>
