<svg width="20" height="20" viewBox="0 0 20 20" fill="none" xmlns="http://www.w3.org/2000/svg">
<path d="M9.3737 10.6251H5.20703C5.02995 10.6251 4.88151 10.5652 4.76172 10.4454C4.64193 10.3255 4.58203 10.177 4.58203 9.99987C4.58203 9.82271 4.64193 9.6743 4.76172 9.55464C4.88151 9.43499 5.02995 9.37516 5.20703 9.37516H9.3737V5.2085C9.3737 5.03141 9.43361 4.88298 9.55345 4.76318C9.6733 4.64339 9.82179 4.5835 9.99895 4.5835C10.1761 4.5835 10.3245 4.64339 10.4442 4.76318C10.5638 4.88298 10.6237 5.03141 10.6237 5.2085V9.37516H14.7903C14.9674 9.37516 15.1158 9.43508 15.2356 9.55491C15.3554 9.67476 15.4153 9.82326 15.4153 10.0004C15.4153 10.1776 15.3554 10.326 15.2356 10.4456C15.1158 10.5653 14.9674 10.6251 14.7903 10.6251H10.6237V14.7918C10.6237 14.9689 10.5637 15.1173 10.4439 15.2371C10.3241 15.3569 10.1756 15.4168 9.99841 15.4168C9.82124 15.4168 9.67283 15.3569 9.55318 15.2371C9.43352 15.1173 9.3737 14.9689 9.3737 14.7918V10.6251Z" fill="#3D3D3D"/>
</svg>
