<svg width="50" height="50" viewBox="0 0 50 50" fill="none" xmlns="http://www.w3.org/2000/svg">
<g clip-path="url(#clip0_37_2411)">
<path d="M12.9866 17.7335C11.7766 17.7335 10.5758 17.254 9.61513 16.3779C8.73761 15.5018 8.24805 14.3122 8.24805 13.0489C8.24805 11.7855 8.73761 10.5867 9.6336 9.7014C10.5111 8.82534 11.6657 8.36426 12.9866 8.36426C14.2059 8.36426 15.3975 8.84379 16.3581 9.71985C17.2357 10.5959 17.7252 11.7855 17.7252 13.0489C17.7252 14.3122 17.2357 15.5111 16.3397 16.3963C15.4806 17.254 14.2891 17.7335 12.9866 17.7335ZM12.9866 9.64607C12.0629 9.64607 11.2039 9.9965 10.5665 10.6328C9.92918 11.2691 9.57818 12.1267 9.57818 13.0489C9.57818 13.971 9.92918 14.8287 10.5665 15.465C11.2039 16.1013 12.0629 16.4517 12.9866 16.4517C13.9103 16.4517 14.7694 16.1013 15.4067 15.465C16.7184 14.1555 16.7184 11.9423 15.4067 10.6328C14.8895 10.0057 14.0119 9.64607 12.9866 9.64607Z" fill="#2D2D2D"/>
<path d="M24.9951 12.8087C22.4088 12.8087 20.3027 10.7061 20.3027 8.12407C20.3027 5.542 22.4088 3.43945 24.9951 3.43945C27.5815 3.43945 29.6875 5.542 29.6875 8.12407C29.6875 10.7061 27.5815 12.8087 24.9951 12.8087ZM24.9951 4.72127C23.1108 4.72127 21.5867 6.25207 21.5867 8.12407C21.5867 9.99607 23.12 11.5269 24.9951 11.5269C26.8703 11.5269 28.4036 9.99607 28.4036 8.12407C28.4036 6.25207 26.8703 4.72127 24.9951 4.72127Z" fill="#2D2D2D"/>
<path d="M36.9202 17.7335C35.7102 17.7335 34.5094 17.254 33.5487 16.3779C32.6712 15.5018 32.1816 14.3122 32.1816 13.0489C32.1816 11.7855 32.6712 10.5867 33.5672 9.7014C34.4447 8.82534 35.5993 8.36426 36.9202 8.36426C38.1395 8.36426 39.3311 8.84379 40.2917 9.71985C41.1693 10.5959 41.6588 11.7855 41.6588 13.0489C41.6588 14.3122 41.1693 15.5111 40.2733 16.3963C39.3311 17.254 38.1303 17.7335 36.9202 17.7335ZM36.9202 9.64607C35.9965 9.64607 35.1375 9.9965 34.5001 10.6328C33.8628 11.2691 33.5118 12.1267 33.5118 13.0489C33.5118 13.971 33.8628 14.8287 34.5001 15.465C35.1375 16.1013 35.9965 16.4517 36.9202 16.4517C37.8439 16.4517 38.703 16.1013 39.3403 15.465C40.652 14.1555 40.652 11.9423 39.3403 10.6328C38.703 9.9965 37.8439 9.64607 36.9202 9.64607Z" fill="#2D2D2D"/>
<path d="M12.9866 41.5343C11.7766 41.5343 10.5758 41.0547 9.61513 40.1787C8.73761 39.3026 8.24805 38.113 8.24805 36.8497C8.24805 35.5863 8.73761 34.3875 9.6336 33.5022C10.5111 32.6261 11.6657 32.165 12.9866 32.165C14.2059 32.165 15.3975 32.6446 16.3581 33.5206C17.2357 34.3967 17.7252 35.5863 17.7252 36.8497C17.7252 38.113 17.2357 39.3118 16.3397 40.1971C15.5268 41.0916 14.3999 41.5343 12.9866 41.5343ZM12.9866 33.4469C12.0629 33.4469 11.2039 33.7973 10.5665 34.4336C9.92918 35.0699 9.57818 35.9275 9.57818 36.8497C9.57818 37.7718 9.92918 38.6294 10.5665 39.2657C11.2039 39.902 12.0629 40.2525 12.9866 40.2525C13.9103 40.2525 14.7694 39.902 15.4067 39.2657C16.7184 37.9563 16.7184 35.7431 15.4067 34.4336C14.8895 33.8065 14.0119 33.4469 12.9866 33.4469Z" fill="#2D2D2D"/>
<path d="M8.04592 29.6383C5.45956 29.6383 3.35352 27.5357 3.35352 24.9537C3.35352 22.3716 5.45956 20.269 8.04592 20.269C10.6323 20.269 12.7383 22.3716 12.7383 24.9537C12.7383 27.5357 10.6323 29.6383 8.04592 29.6383ZM8.04592 21.5509C6.16157 21.5509 4.63746 23.0817 4.63746 24.9537C4.63746 26.8257 6.17081 28.3565 8.04592 28.3565C9.92104 28.3565 11.4544 26.8257 11.4544 24.9537C11.4544 23.0817 9.95799 21.5509 8.04592 21.5509Z" fill="#2D2D2D"/>
<path d="M24.9939 50C22.814 50 20.5971 49.7234 18.4171 49.1793C14.2143 48.1096 10.3347 45.841 7.21262 42.6319C2.46479 37.8919 -0.0938602 31.5566 -0.00148995 24.7695C0.0908803 17.9177 2.77885 11.6101 7.57287 7.00848C12.2837 2.48986 18.4726 0 24.9939 0H25.1786C31.8847 0.0922169 38.1012 2.71118 42.6828 7.37735C45.8326 10.5219 48.068 14.3858 49.1579 18.5817C50.2387 22.63 50.2756 26.9827 49.2503 31.1601C48.8254 32.6909 47.7354 33.8159 46.2668 34.2217C45.888 34.3231 45.5001 34.3785 45.1121 34.3785C43.9852 34.3785 42.886 33.9358 42.0177 33.1335L38.4984 29.5278C37.3161 28.3475 35.6811 27.6743 34.0092 27.6743C32.9839 27.6743 31.9678 27.9325 31.0811 28.412C30.998 28.4489 30.8871 28.4766 30.7763 28.4766C30.5269 28.4766 30.3052 28.3567 30.2128 28.1723C30.1389 28.0155 30.1204 27.8311 30.1666 27.6558C30.1943 27.5636 30.2682 27.3884 30.4437 27.2962C31.5614 26.706 32.7899 26.4017 34.0092 26.4017C36.0321 26.4017 37.9534 27.2132 39.4314 28.6887L42.9691 32.2206C43.5511 32.8015 44.327 33.1335 45.0937 33.1335C45.38 33.1335 45.6571 33.0874 45.925 32.9952C46.9226 32.6632 47.6893 31.8978 48.0218 30.9019C50.0355 22.7776 47.6246 14.1092 41.7499 8.23497C37.2791 3.77167 31.3028 1.3187 24.92 1.3187C18.5372 1.3187 12.801 3.67023 8.3303 7.9491C3.82264 12.3478 1.28246 18.3143 1.19009 24.7602C1.09772 31.1324 3.52705 37.1726 8.04396 41.7743C12.487 46.2099 18.6573 48.7458 24.9847 48.7458C26.9152 48.7458 28.8365 48.5153 30.7116 48.0542C31.7277 47.8513 32.5682 47.0583 32.947 45.9425C33.2703 44.8543 32.9932 43.8122 32.1711 42.9915L28.6333 39.4596C26.2594 37.0896 25.6959 33.484 27.2385 30.4961C27.3309 30.3025 27.5525 30.1826 27.8019 30.1826C27.9128 30.1826 28.0236 30.2103 28.116 30.2564C28.3931 30.3947 28.504 30.8189 28.3469 31.1324C27.0537 33.5208 27.5064 36.564 29.4646 38.519L33.0024 42.0509C34.0924 43.1391 34.4896 44.7252 34.0739 46.2929C33.649 47.8052 32.4666 48.9487 30.9056 49.3637C29.4738 49.6496 27.2477 50 24.9847 50H24.9939Z" fill="#2D2D2D"/>
<path d="M44.6525 42.134L28.6355 24.6773C28.6817 23.082 28.0166 21.4405 26.7696 20.1956C25.0054 18.425 23.0471 18.3328 21.0889 18.3328C20.1559 18.3328 19.223 18.3328 18.2993 18.1484C17.9206 18.0561 17.5511 18.1484 17.274 18.425C16.9876 18.7017 16.8953 19.0797 16.9876 19.4486C17.1816 20.38 17.1816 21.3114 17.1816 22.2428C17.274 24.0963 17.274 26.1436 19.0382 27.9141C20.2483 29.1222 21.8371 29.7677 23.4166 29.7677C23.5921 29.7677 23.7491 29.7677 23.9061 29.7585L41.2071 45.5737C41.6689 46.044 42.2324 46.2284 42.7866 46.2284C43.3408 46.2284 43.9967 45.9517 44.5601 45.3892C45.4931 44.55 45.4931 43.0654 44.6525 42.134Z" fill="#097CBF"/>
</g>
<defs>
<clipPath id="clip0_37_2411">
<rect width="50" height="50" fill="white"/>
</clipPath>
</defs>
</svg>
