<svg width="39" height="50" viewBox="0 0 39 50" fill="none" xmlns="http://www.w3.org/2000/svg">
<g clip-path="url(#clip0_37_2425)">
<path d="M21.2073 35.8067C30.3913 35.8067 37.8364 28.1067 37.8364 18.6084C37.8364 9.11008 30.3913 1.41016 21.2073 1.41016C12.0233 1.41016 4.57812 9.11008 4.57812 18.6084C4.57812 28.1067 12.0233 35.8067 21.2073 35.8067Z" fill="#097CBF"/>
<path d="M38.5413 18.2392C38.5413 14.1432 37.1616 10.1479 34.6457 6.99198C31.3751 2.87078 26.5462 0.512207 21.3927 0.512207C16.2392 0.512207 11.4103 2.87078 8.1397 6.99198C5.63193 10.1479 4.24414 14.1432 4.24414 18.2392C4.24414 28.0177 11.9379 35.9747 21.3846 35.9747C30.8313 35.9747 38.5332 28.0177 38.5332 18.2392H38.5413ZM36.772 18.2392C36.772 19.0534 36.7152 19.8508 36.6016 20.6314C34.0776 22.4276 31.5049 23.7202 28.8998 24.4924C29.0783 23.7286 29.2082 22.948 29.2812 22.1506C29.6221 18.533 28.916 15.0162 27.8204 11.919C29.8331 11.3818 31.9107 10.4921 34.0208 9.1491C35.8063 11.8014 36.7802 14.9826 36.7802 18.2392H36.772ZM28.3966 22.0583C28.3073 22.9816 28.1531 23.8881 27.9178 24.761C23.6813 25.8102 19.3557 25.5332 14.9732 23.9049C14.8595 23.8629 14.754 23.8209 14.6485 23.7789C14.5349 23.2166 14.4537 22.6458 14.3969 22.0667C14.048 18.3903 14.8676 14.7727 16.0607 11.6336C17.9679 12.2127 20.1591 12.6156 22.537 12.6156C23.941 12.6156 25.4019 12.4729 26.9114 12.1456C28.007 15.1672 28.7131 18.5918 28.3885 22.0667L28.3966 22.0583ZM33.2823 8.15028C33.3472 8.23421 33.4121 8.32654 33.477 8.41048C31.44 9.70308 29.4273 10.5508 27.4876 11.0544C25.9781 7.16824 23.9248 4.05426 22.7156 2.40074C26.8303 2.76166 30.6203 4.80967 33.2742 8.15028H33.2823ZM21.3927 2.33359C21.4414 2.33359 21.4982 2.33359 21.5469 2.33359C22.5533 3.65137 24.8987 6.99198 26.5868 11.2643C22.7724 12.07 19.2583 11.6168 16.4015 10.769C18.0734 6.73178 20.2808 3.60101 21.2466 2.3252C21.2953 2.3252 21.344 2.3252 21.4008 2.3252L21.3927 2.33359ZM20.0698 2.40074C18.9174 3.97032 17.0021 6.87447 15.525 10.5005C12.8712 9.60235 10.8747 8.41887 9.85212 7.739C12.4816 4.6418 16.1256 2.74487 20.0698 2.40074ZM6.02149 18.2392C6.02149 14.6972 7.18204 11.2391 9.28402 8.45245C10.3147 9.1491 12.4005 10.3997 15.1923 11.3566C13.9749 14.5881 13.1552 18.3148 13.5204 22.159C13.561 22.5787 13.6178 22.9816 13.6828 23.3929C9.88458 21.7393 7.14958 19.4899 6.0296 18.4743C6.0296 18.3987 6.0296 18.3232 6.0296 18.2476L6.02149 18.2392ZM6.09453 19.7249C7.5716 20.9755 10.2823 22.9816 13.8938 24.4588C14.7053 28.0261 16.5801 31.2324 19.518 34.019C12.3923 33.1125 6.76002 27.1531 6.08641 19.7249H6.09453ZM21.4008 34.1449C21.2629 34.1449 21.133 34.1449 20.995 34.1365C17.8705 31.4506 15.8253 28.3366 14.9001 24.8533C17.1238 25.6591 19.8101 26.2718 22.8211 26.2718C24.3468 26.2718 25.9619 26.1039 27.6337 25.7346C26.6111 28.8654 24.6634 31.6772 21.7985 34.1365C21.6605 34.1365 21.5307 34.1449 21.3927 34.1449H21.4008ZM23.2837 34.019C25.9375 31.501 27.723 28.6472 28.6482 25.4912C31.1072 24.8281 33.7043 23.6866 36.3663 21.9072C34.9054 28.303 29.7032 33.2132 23.2837 34.0274V34.019Z" fill="white"/>
<path d="M18.0494 42.5221H13.0501C11.0536 42.5221 9.43049 44.2008 9.43049 46.2656C9.43049 48.3304 11.0536 50.0091 13.0501 50.0091H29.5494C31.5459 50.0091 33.169 48.3304 33.169 46.2656C33.169 44.2008 31.5459 42.5221 29.5494 42.5221H24.5501V41.6576C24.5501 41.1708 24.4446 40.7091 24.2661 40.2894C26.1733 40.0125 28.1535 39.5089 30.1906 38.7786C30.7587 38.5772 31.0589 37.9393 30.8561 37.3517C30.6613 36.7642 30.0445 36.462 29.4764 36.6635C25.8568 37.9645 22.4644 38.4932 19.3804 38.233C10.0798 37.4524 2.19937 28.27 2.17502 18.181C2.17502 16.5275 2.34545 14.9495 2.68631 13.4723C3.25441 11.0298 4.35815 8.72155 5.86768 6.80783C7.49083 4.74303 9.51165 3.08952 11.573 2.14945C12.1168 1.89764 12.3684 1.23456 12.1249 0.672194C11.8814 0.101437 11.2403 -0.150368 10.6965 0.101437C8.29429 1.19259 6.04623 3.03076 4.17961 5.39773C2.46719 7.57164 1.21736 10.182 0.576218 12.9435C0.186662 14.5886 0 16.3512 0 18.181C0.032463 29.059 8.31864 38.9885 18.301 40.3566C18.1387 40.7595 18.0494 41.1959 18.0494 41.6576V42.5221ZM18.9178 44.3183C19.3966 44.3183 19.7862 43.9154 19.7862 43.4202V41.6576C19.7862 41.2043 19.9728 40.8014 20.265 40.5161C20.4841 40.5161 20.7033 40.5329 20.9224 40.5329C21.3769 40.5329 21.8313 40.5161 22.2939 40.4825C22.6105 40.7679 22.8134 41.1875 22.8134 41.6576V43.4202C22.8134 43.9154 23.2029 44.3183 23.6817 44.3183H29.5494C30.5882 44.3183 31.4323 45.1912 31.4323 46.2656C31.4323 47.34 30.5882 48.2129 29.5494 48.2129H13.0501C12.0113 48.2129 11.1673 47.34 11.1673 46.2656C11.1673 45.1912 12.0113 44.3183 13.0501 44.3183H18.9178Z" fill="#2D2D2D"/>
</g>
<defs>
<clipPath id="clip0_37_2425">
<rect width="38.5417" height="50" fill="white"/>
</clipPath>
</defs>
</svg>
