<svg width="60" height="50" viewBox="0 0 60 50" fill="none" xmlns="http://www.w3.org/2000/svg">
<g clip-path="url(#clip0_37_2371)">
<path d="M29.6462 1.1704C29.5128 1.1704 29.3961 1.12023 29.3128 1.03662C29.1961 0.944645 29.1211 0.802504 29.1211 0.643641C29.1211 0.376083 29.3378 0.158691 29.6045 0.158691C29.8712 0.158691 30.1379 0.417889 30.1379 0.685447C30.1379 0.953006 29.9212 1.1704 29.6545 1.1704H29.6462Z" fill="#097CBF"/>
<path d="M29.6455 10.7108C29.3788 10.7108 29.1621 10.5269 29.1621 10.2593V4.59042C29.1621 4.32286 29.3788 4.10547 29.6455 4.10547C29.9122 4.10547 30.1289 4.32286 30.1289 4.59042V10.1841C30.1289 10.4516 29.9122 10.7108 29.6455 10.7108Z" fill="#097CBF"/>
<path d="M45.2484 24.1307C45.1317 24.1307 45.0234 24.0889 44.9317 24.0136L29.621 10.8113L14.3103 24.0136C14.1102 24.1892 13.8018 24.1641 13.6268 23.9634C13.4518 23.7628 13.4768 23.4534 13.6768 23.2778L29.3043 9.79956C29.496 9.63234 29.7793 9.6407 29.9627 9.81629L45.5651 23.2695C45.7652 23.445 45.7902 23.7544 45.6151 23.9551C45.5151 24.0638 45.3818 24.1223 45.2484 24.1223V24.1307Z" fill="#097CBF"/>
<path d="M35.497 5.08361H29.6377C29.371 5.08361 29.1543 4.86622 29.1543 4.59866V0.48495C29.1543 0.217391 29.371 0 29.6377 0H35.497C35.7637 0 35.9804 0.217391 35.9804 0.48495V4.5903C35.9804 4.85786 35.7637 5.07525 35.497 5.07525V5.08361ZM30.1295 4.10535H35.0135V0.978261H30.1295V4.10535Z" fill="#097CBF"/>
<path d="M31.0807 32.3412H28.1719C27.4968 32.3412 26.9551 31.8061 26.9551 31.1539V26.9231C26.9551 26.271 27.5052 25.7358 28.1719 25.7358H31.0807C31.7475 25.7358 32.2892 26.271 32.2892 26.9231V31.1539C32.2892 31.8061 31.7475 32.3412 31.0807 32.3412ZM28.1719 26.7225C28.0386 26.7225 27.9302 26.8228 27.9302 26.9315V31.1623C27.9302 31.271 28.0469 31.3713 28.1719 31.3713H31.0807C31.2057 31.3713 31.3141 31.2793 31.3141 31.1623V26.9315C31.3141 26.8144 31.2057 26.7225 31.0807 26.7225H28.1719Z" fill="#2D2D2D"/>
<path d="M23.0626 36.3461H20.1538C19.4871 36.3461 18.9453 35.811 18.9453 35.1505V30.9364C18.9453 30.2759 19.4871 29.7324 20.1538 29.7324H23.0626C23.7294 29.7324 24.2711 30.2675 24.2711 30.9364V35.1505C24.2711 35.811 23.7294 36.3461 23.0626 36.3461ZM20.1538 30.7107C20.0205 30.7107 19.9205 30.811 19.9205 30.9364V35.1505C19.9205 35.2675 20.0288 35.3679 20.1538 35.3679H23.0626C23.196 35.3679 23.3043 35.2759 23.3043 35.1505V30.9364C23.3043 30.811 23.196 30.7107 23.0626 30.7107H20.1538Z" fill="#2D2D2D"/>
<path d="M39.0802 36.3461H36.1714C35.5046 36.3461 34.9629 35.811 34.9629 35.1505V30.9364C34.9629 30.2759 35.5046 29.7324 36.1714 29.7324H39.0802C39.7553 29.7324 40.2971 30.2675 40.2971 30.9364V35.1505C40.2971 35.811 39.747 36.3461 39.0802 36.3461ZM36.1714 30.7107C36.0464 30.7107 35.938 30.811 35.938 30.9364V35.1505C35.938 35.2675 36.0464 35.3679 36.1714 35.3679H39.0802C39.2136 35.3679 39.3219 35.2675 39.3219 35.1505V30.9364C39.3219 30.811 39.2136 30.7107 39.0802 30.7107H36.1714Z" fill="#2D2D2D"/>
<path d="M9.01041 34.0301H6.10162C5.42652 34.0301 4.88477 33.495 4.88477 32.8428V28.6204C4.88477 27.9682 5.43485 27.4331 6.10162 27.4331H9.01041C9.67718 27.4331 10.2189 27.9682 10.2189 28.6204V32.8428C10.2189 33.495 9.67718 34.0301 9.01041 34.0301ZM9.24378 28.6204C9.24378 28.5033 9.14376 28.4114 9.01041 28.4114H6.10162C5.96827 28.4114 5.85992 28.5033 5.85992 28.6204V32.8428C5.85992 32.9599 5.96827 33.0518 6.10162 33.0518H9.01041C9.13543 33.0518 9.24378 32.9599 9.24378 32.8428" fill="#2D2D2D"/>
<path d="M9.01041 43.8211H6.10162C5.42652 43.8211 4.88477 43.286 4.88477 42.6338V38.4114C4.88477 37.7592 5.43485 37.2241 6.10162 37.2241H9.01041C9.67718 37.2241 10.2189 37.7592 10.2189 38.4114V42.6338C10.2189 43.286 9.67718 43.8211 9.01041 43.8211ZM6.10162 38.2024C5.96827 38.2024 5.85992 38.2944 5.85992 38.4114V42.6338C5.85992 42.7509 5.96827 42.8429 6.10162 42.8429H9.01041C9.13543 42.8429 9.24378 42.7509 9.24378 42.6338V38.4114C9.24378 38.2944 9.13543 38.2024 9.01041 38.2024H6.10162Z" fill="#2D2D2D"/>
<path d="M58.7666 41.8644C58.4999 41.8644 58.2832 41.647 58.2832 41.3795V37.0567C58.2832 36.7892 58.4999 36.5718 58.7666 36.5718C59.0333 36.5718 59.25 36.7892 59.25 37.0567V41.3795C59.25 41.647 59.0333 41.8644 58.7666 41.8644Z" fill="#2D2D2D"/>
<path d="M53.1588 34.0301H50.2501C49.575 34.0301 49.0332 33.495 49.0332 32.8428V28.6204C49.0332 27.9682 49.5833 27.4331 50.2501 27.4331H53.1588C53.8256 27.4331 54.3674 27.9682 54.3674 28.6204V32.8428C54.3674 33.495 53.8256 34.0301 53.1588 34.0301ZM50.2501 28.4114C50.1167 28.4114 50.0084 28.5033 50.0084 28.6204V32.8428C50.0084 32.9515 50.125 33.0518 50.2501 33.0518H53.1588C53.2839 33.0518 53.3922 32.9599 53.3922 32.8428V28.6204C53.3922 28.5033 53.2922 28.4114 53.1588 28.4114H50.2501Z" fill="#2D2D2D"/>
<path d="M53.1588 43.8211H50.2501C49.575 43.8211 49.0332 43.286 49.0332 42.6338V38.4114C49.0332 37.7592 49.5833 37.2241 50.2501 37.2241H53.1588C53.8256 37.2241 54.3674 37.7592 54.3674 38.4114V42.6338C54.3674 43.286 53.8256 43.8211 53.1588 43.8211ZM50.2501 38.2024C50.1167 38.2024 50.0084 38.3027 50.0084 38.4114V42.6338C50.0084 42.7425 50.125 42.8429 50.2501 42.8429H53.1588C53.2839 42.8429 53.3922 42.7509 53.3922 42.6338V38.4114C53.3922 38.2944 53.2839 38.2024 53.1588 38.2024H50.2501Z" fill="#2D2D2D"/>
<path d="M43.9228 50.0002H42.0225C41.7558 50.0002 41.5391 49.7828 41.5391 49.5152C41.5391 49.2477 41.7558 49.0303 42.0225 49.0303H43.9228C44.1895 49.0303 44.4062 49.2477 44.4062 49.5152C44.4062 49.7828 44.1895 50.0002 43.9228 50.0002Z" fill="#2D2D2D"/>
<path d="M39.3481 50.0002H14.6025C14.3358 50.0002 14.1191 49.7828 14.1191 49.5152C14.1191 49.2477 14.3358 49.0303 14.6025 49.0303H39.3481C39.6148 49.0303 39.8315 49.2477 39.8315 49.5152C39.8315 49.7828 39.6148 50.0002 39.3481 50.0002Z" fill="#2D2D2D"/>
<path d="M38.2399 41.5553H21.0205C20.7538 41.5553 20.5371 41.338 20.5371 41.0704C20.5371 40.8028 20.7538 40.5854 21.0205 40.5854H38.2399C38.5066 40.5854 38.7233 40.8028 38.7233 41.0704C38.7233 41.338 38.5066 41.5553 38.2399 41.5553Z" fill="#2D2D2D"/>
<path d="M35.7315 50.0002C35.4647 50.0002 35.248 49.7828 35.248 49.5152V41.0704C35.248 40.8028 35.4647 40.5854 35.7315 40.5854C35.9982 40.5854 36.2149 40.8028 36.2149 41.0704V49.5152C36.2149 49.7828 35.9982 50.0002 35.7315 50.0002Z" fill="#2D2D2D"/>
<path d="M29.6455 50.0002C29.3788 50.0002 29.1621 49.7828 29.1621 49.5152V41.0704C29.1621 40.8028 29.3788 40.5854 29.6455 40.5854C29.9122 40.5854 30.1289 40.8028 30.1289 41.0704V49.5152C30.1289 49.7828 29.9122 50.0002 29.6455 50.0002Z" fill="#2D2D2D"/>
<path d="M23.5459 50.0002C23.2792 50.0002 23.0625 49.7828 23.0625 49.5152V41.0704C23.0625 40.8028 23.2792 40.5854 23.5459 40.5854C23.8126 40.5854 24.0293 40.8028 24.0293 41.0704V49.5152C24.0293 49.7828 23.8126 50.0002 23.5459 50.0002Z" fill="#2D2D2D"/>
<path d="M29.7466 15.1256C28.2047 15.1256 26.9628 16.3798 26.9628 17.9183C26.9628 19.4567 28.2047 20.7109 29.7466 20.7109C31.2885 20.7109 32.522 19.4567 32.522 17.9183C32.522 16.3798 31.2802 15.1256 29.7466 15.1256ZM29.6216 23.6457H13.9941L21.8037 16.9065L29.6216 10.1758L29.6466 10.2009L37.4311 16.9149L45.249 23.654H29.6216V23.6457Z" fill="#097CBF" stroke="#097CBF" stroke-miterlimit="10"/>
<path d="M14.6273 48.0938H0.483409C0.216701 48.0938 0 47.8764 0 47.6088V23.6456C0 23.378 0.216701 23.1606 0.483409 23.1606H14.6273C14.894 23.1606 15.1107 23.378 15.1107 23.6456V47.6088C15.1107 47.8764 14.894 48.0938 14.6273 48.0938ZM0.975152 47.1155H14.1439V24.1305H0.975152V47.1155Z" fill="#2D2D2D"/>
<path d="M58.7674 48.0938H44.6318C44.3651 48.0938 44.1484 47.8764 44.1484 47.6088V23.6456C44.1484 23.378 44.3651 23.1606 44.6318 23.1606H58.7674C59.0341 23.1606 59.2508 23.378 59.2508 23.6456V37.057C59.2508 37.3245 59.0341 37.5419 58.7674 37.5419C58.5007 37.5419 58.284 37.3245 58.284 37.057V24.1389H45.1236V47.1239H58.284V41.3797C58.284 41.1122 58.5007 40.8948 58.7674 40.8948C59.0341 40.8948 59.2508 41.1122 59.2508 41.3797V47.6172C59.2508 47.8847 59.0341 48.1021 58.7674 48.1021V48.0938Z" fill="#2D2D2D"/>
<path d="M44.6326 24.1305H14.6279C14.3612 24.1305 14.1445 23.9132 14.1445 23.6456C14.1445 23.378 14.3612 23.1606 14.6279 23.1606H44.6326C44.8993 23.1606 45.116 23.378 45.116 23.6456C45.116 23.9132 44.8993 24.1305 44.6326 24.1305Z" fill="#2D2D2D"/>
</g>
<defs>
<clipPath id="clip0_37_2371">
<rect width="59.2593" height="50" fill="white"/>
</clipPath>
</defs>
</svg>
