<svg width="194" height="155" viewBox="0 0 194 155" fill="none" xmlns="http://www.w3.org/2000/svg">
<g clip-path="url(#clip0_42_198)">
<path d="M184.816 123.708V67.7327C187.003 61.854 184.816 54.8434 179.313 51.1555L100.299 2.19085C95.8891 -0.766743 90.3858 -0.766743 85.6114 2.19085L6.5973 51.1555C-2.22254 56.6691 -2.22254 69.1932 6.5973 74.7068L33.0568 91.2839V140.249C33.0568 148.355 39.6535 154.964 47.7444 154.964H137.765C145.856 154.964 152.453 148.355 152.453 140.249V91.2839L175.596 76.9341V123.671C170.092 125.497 166.411 130.682 166.411 136.561C166.411 144.302 172.644 150.545 180.37 150.545C188.096 150.545 193.964 144.302 193.964 136.561C193.964 130.682 190.283 125.534 184.78 123.671L184.816 123.708ZM143.669 140.285C143.669 143.243 141.082 145.799 138.166 145.799H48.1453C45.1932 145.799 42.642 143.206 42.642 140.285V96.834L86.0123 123.708C90.4222 126.666 95.9255 126.666 100.7 123.708L144.07 96.834V140.285H143.706H143.669ZM174.174 67.0389L95.5246 116.004C94.0668 117.099 92.208 117.099 90.7502 116.004L11.7726 67.0024C8.82048 65.1767 8.82048 60.7586 11.7726 58.8964L90.7502 9.93173C92.208 8.83632 94.0668 8.83632 95.5246 9.93173L174.539 58.8964C177.126 60.7221 177.126 65.1402 174.174 67.0024V67.0389ZM180.406 141.417C177.819 141.417 175.632 139.226 175.632 136.634C175.632 134.041 177.819 131.85 180.406 131.85C182.994 131.85 185.181 134.041 185.181 136.634C184.816 139.226 182.593 141.417 180.406 141.417Z" fill="white"/>
<path d="M67.6074 36.0755L30.8702 59.2616C28.6471 60.7221 27.9181 63.3146 29.4124 65.5054C30.8702 67.6962 33.4579 68.463 35.6446 66.9659L72.3818 43.7798C74.5685 42.3193 75.3339 39.7268 73.8396 37.536C72.3818 35.3087 69.7941 34.5784 67.6074 36.0755Z" fill="white"/>
<path d="M83.79 26.144C86.4141 26.144 88.5644 28.2983 88.5644 30.9273C88.5644 33.5563 86.4141 35.7106 83.79 35.7106C81.1659 35.7106 79.0156 33.5563 79.0156 30.9273C79.0156 28.2983 81.1659 26.144 83.79 26.144Z" fill="white"/>
</g>
<defs>
<clipPath id="clip0_42_198">
<rect width="194" height="155" fill="white"/>
</clipPath>
</defs>
</svg>
