<svg width="20" height="20" viewBox="0 0 20 20" fill="none" xmlns="http://www.w3.org/2000/svg">
<path d="M9.37565 10.6251H5.20898C5.0319 10.6251 4.88346 10.5652 4.76367 10.4454C4.64388 10.3255 4.58398 10.177 4.58398 9.99987C4.58398 9.82271 4.64388 9.6743 4.76367 9.55464C4.88346 9.43499 5.0319 9.37516 5.20898 9.37516H9.37565V5.2085C9.37565 5.03141 9.43557 4.88298 9.5554 4.76318C9.67525 4.64339 9.82375 4.5835 10.0009 4.5835C10.1781 4.5835 10.3265 4.64339 10.4461 4.76318C10.5658 4.88298 10.6256 5.03141 10.6256 5.2085V9.37516H14.7923C14.9694 9.37516 15.1178 9.43508 15.2376 9.55491C15.3574 9.67476 15.4173 9.82326 15.4173 10.0004C15.4173 10.1776 15.3574 10.326 15.2376 10.4456C15.1178 10.5653 14.9694 10.6251 14.7923 10.6251H10.6256V14.7918C10.6256 14.9689 10.5657 15.1173 10.4459 15.2371C10.326 15.3569 10.1775 15.4168 10.0004 15.4168C9.82319 15.4168 9.67478 15.3569 9.55513 15.2371C9.43548 15.1173 9.37565 14.9689 9.37565 14.7918V10.6251Z" fill="white" fill-opacity="0.8"/>
</svg>
