<svg width="28" height="27" viewBox="0 0 28 27" fill="none" xmlns="http://www.w3.org/2000/svg">
<path d="M14.0013 24.1874C12.4816 24.1874 11.0476 23.9066 9.69922 23.3448C8.35082 22.783 7.17481 22.0182 6.17116 21.0504C5.16754 20.0826 4.37444 18.9486 3.79186 17.6484C3.20927 16.3482 2.91797 14.9654 2.91797 13.5C2.91797 12.0231 3.20927 10.6374 3.79186 9.3429C4.37444 8.04844 5.16754 6.91731 6.17116 5.94951C7.17481 4.98173 8.35082 4.21695 9.69922 3.65518C11.0476 3.09339 12.4816 2.8125 14.0013 2.8125C15.5329 2.8125 16.9699 3.09339 18.3123 3.65518C19.6547 4.21695 20.8277 4.98173 21.8314 5.94951C22.835 6.91731 23.6281 8.04844 24.2107 9.3429C24.7933 10.6374 25.0846 12.0231 25.0846 13.5C25.0846 14.9654 24.7933 16.3482 24.2107 17.6484C23.6281 18.9486 22.835 20.0826 21.8314 21.0504C20.8277 22.0182 19.6547 22.783 18.3123 23.3448C16.9699 23.9066 15.5329 24.1874 14.0013 24.1874ZM14.0013 22.4762C14.5966 21.7146 15.0977 20.9466 15.5045 20.1721C15.9113 19.3975 16.2426 18.5509 16.4984 17.6322H11.5041C11.7749 18.5798 12.1099 19.4408 12.5093 20.2154C12.9086 20.9899 13.406 21.7435 14.0013 22.4762ZM11.742 22.1668C11.2948 21.5481 10.8932 20.8446 10.5372 20.0563C10.1812 19.2681 9.9045 18.46 9.70706 17.6322H5.74932C6.36558 18.8004 7.19197 19.782 8.22852 20.5767C9.26508 21.3714 10.4363 21.9014 11.742 22.1668ZM16.2605 22.1668C17.5663 21.9014 18.7375 21.3714 19.774 20.5767C20.8106 19.782 21.637 18.8004 22.2532 17.6322H18.2955C18.0607 18.4673 17.7652 19.2789 17.4093 20.0672C17.0533 20.8554 16.6704 21.5553 16.2605 22.1668ZM5.01569 15.9447H9.35257C9.27929 15.5264 9.22619 15.1165 9.19329 14.7148C9.16039 14.3131 9.14394 13.9081 9.14394 13.5C9.14394 13.0918 9.16039 12.6869 9.19329 12.2852C9.22619 11.8835 9.27929 11.4735 9.35257 11.0552H5.01569C4.90352 11.4375 4.81752 11.8348 4.75769 12.2473C4.69785 12.6598 4.66794 13.0774 4.66794 13.5C4.66794 13.9226 4.69785 14.3401 4.75769 14.7526C4.81752 15.1651 4.90352 15.5625 5.01569 15.9447ZM11.1025 15.9447H16.9C16.9733 15.5264 17.0264 15.1201 17.0593 14.7256C17.0922 14.3311 17.1087 13.9226 17.1087 13.5C17.1087 13.0774 17.0922 12.6688 17.0593 12.2744C17.0264 11.8799 16.9733 11.4735 16.9 11.0552H11.1025C11.0293 11.4735 10.9762 11.8799 10.9432 12.2744C10.9103 12.6688 10.8939 13.0774 10.8939 13.5C10.8939 13.9226 10.9103 14.3311 10.9432 14.7256C10.9762 15.1201 11.0293 15.5264 11.1025 15.9447ZM18.65 15.9447H22.9869C23.099 15.5625 23.185 15.1651 23.2449 14.7526C23.3047 14.3401 23.3346 13.9226 23.3346 13.5C23.3346 13.0774 23.3047 12.6598 23.2449 12.2473C23.185 11.8348 23.099 11.4375 22.9869 11.0552H18.65C18.7233 11.4735 18.7764 11.8835 18.8093 12.2852C18.8422 12.6869 18.8586 13.0918 18.8586 13.5C18.8586 13.9081 18.8422 14.3131 18.8093 14.7148C18.7764 15.1165 18.7233 15.5264 18.65 15.9447ZM18.2955 9.36779H22.2532C21.6295 8.18508 20.8087 7.20357 19.7909 6.42327C18.773 5.64299 17.5962 5.10934 16.2605 4.82231C16.7077 5.47712 17.1056 6.19323 17.4541 6.97064C17.8026 7.74805 18.0831 8.5471 18.2955 9.36779ZM11.5041 9.36779H16.4984C16.2277 8.4274 15.887 7.56093 15.4764 6.76837C15.0659 5.97582 14.5741 5.22762 14.0013 4.52377C13.4284 5.22762 12.9367 5.97582 12.5261 6.76837C12.1155 7.56093 11.7749 8.4274 11.5041 9.36779ZM5.74932 9.36779H9.70706C9.91946 8.5471 10.1999 7.74805 10.5484 6.97064C10.8969 6.19323 11.2948 5.47712 11.742 4.82231C10.3989 5.10934 9.22022 5.6448 8.20609 6.4287C7.19198 7.2126 6.37306 8.1923 5.74932 9.36779Z" fill="#3D3D3D"/>
</svg>
