<svg width="146" height="48" viewBox="0 0 146 48" fill="none" xmlns="http://www.w3.org/2000/svg">
<g clip-path="url(#clip0_37_2580)">
<path d="M42.7098 36.4979C41.7122 36.1446 41.5232 35.9091 41.5232 35.5039C41.5232 35.0987 41.8102 34.7766 42.4928 34.7766C42.9934 34.7766 43.3259 34.9394 43.6899 35.2372L44.047 34.8043C43.6269 34.4718 43.1999 34.2778 42.5278 34.2778C41.5967 34.2778 40.9666 34.7489 40.9666 35.5385C40.9666 36.252 41.3306 36.5983 42.4088 36.9793C43.3224 37.3049 43.5989 37.5646 43.5989 38.0218C43.5989 38.5448 43.1859 38.8704 42.5243 38.8704C42.0097 38.8704 41.5757 38.6349 41.1976 38.2781L40.8301 38.6868C41.2221 39.0816 41.8277 39.3726 42.5068 39.3726C43.5464 39.3726 44.159 38.7699 44.159 37.9976C44.159 37.2252 43.8195 36.8962 42.7133 36.5014L42.7098 36.4979Z" fill="#004289"/>
<path d="M46.4212 35.5143C45.9347 35.5143 45.4936 35.632 45.1646 35.8086L45.3676 36.2381C45.6721 36.0615 45.9942 35.9541 46.3862 35.9541C46.9323 35.9541 47.1983 36.2208 47.1983 36.7749V37.2113C46.9778 37.0901 46.6383 36.9966 46.2637 36.9966C45.5251 36.9966 44.832 37.3499 44.832 38.1811C44.832 39.0747 45.4446 39.3656 46.0257 39.3656C46.5647 39.3656 46.9323 39.1162 47.1983 38.8357V39.2894H47.7304V36.7057C47.7304 35.8467 47.2263 35.5073 46.4212 35.5073V35.5143ZM47.1983 38.3855C46.9708 38.6937 46.6068 38.9396 46.1237 38.9396C45.6651 38.9396 45.3571 38.7006 45.3571 38.1499C45.3571 37.6858 45.6861 37.4226 46.2357 37.4226C46.6908 37.4226 46.9533 37.5057 47.1983 37.6373V38.3889V38.3855Z" fill="#004289"/>
<path d="M53.0987 37.1249V39.293H53.6308V37.0383C53.6308 35.9577 53.1547 35.5144 52.3916 35.5144C51.7825 35.5144 51.478 35.7949 51.2575 36.1482C51.0789 35.7949 50.7604 35.5144 50.2318 35.5144C49.7908 35.5144 49.4757 35.7257 49.2832 36.0443V35.5941H48.7441V39.2965H49.2832V37.1284C49.2832 36.3075 49.6017 35.9716 50.1163 35.9716C50.6309 35.9716 50.9214 36.2798 50.9214 37.1284V39.2965H51.457V37.1284C51.457 36.3075 51.7825 35.9716 52.2901 35.9716C52.8292 35.9716 53.0952 36.2798 53.0952 37.1284L53.0987 37.1249Z" fill="#004289"/>
<path d="M55.7776 37.1386C55.144 36.8546 54.955 36.7333 54.955 36.4182C54.955 36.148 55.179 35.961 55.5745 35.961C55.9701 35.961 56.2151 36.0649 56.5057 36.2935L56.8032 35.9021C56.5197 35.6701 56.1206 35.5107 55.6095 35.5107C54.927 35.5107 54.4404 35.8917 54.4404 36.4528C54.4404 37.0451 54.7519 37.2702 55.5045 37.5888C56.1661 37.8694 56.3866 38.0391 56.3866 38.3438C56.3866 38.704 56.1451 38.9153 55.6305 38.9153C55.2595 38.9153 54.9095 38.7664 54.6119 38.5066L54.2969 38.8911C54.6539 39.1751 55.102 39.3656 55.6165 39.3656C56.2641 39.3656 56.8977 39.0504 56.8977 38.3196C56.8977 37.6581 56.4847 37.4537 55.7741 37.1351L55.7776 37.1386Z" fill="#004289"/>
<path d="M60.0195 37.7552C60.0195 38.5657 59.61 38.9086 59.0954 38.9086C58.4933 38.9086 58.2098 38.5518 58.2098 37.7552V35.5906H57.6777V37.8453C57.6777 38.9086 58.1993 39.3692 58.9869 39.3692C59.4595 39.3692 59.806 39.151 60.0195 38.8393V39.293H60.5551V35.5906H60.0195V37.7552Z" fill="#004289"/>
<path d="M64.3359 39.293V37.0383C64.3359 35.9716 63.8144 35.5144 63.0233 35.5144C62.5542 35.5144 62.2042 35.7326 61.9941 36.0443V35.5941H61.4551V39.2965H61.9941V37.1284C61.9941 36.3179 62.3967 35.9716 62.9148 35.9716C63.5133 35.9716 63.8004 36.3318 63.8004 37.1284V39.2965H64.3359V39.293Z" fill="#004289"/>
<path d="M66.0202 40.2487L66.1917 40.6505C67.5813 40.6089 68.0854 40.0721 68.0854 38.9569V35.5869H67.5498V36.0026C67.2873 35.7047 66.9653 35.5107 66.4962 35.5107C65.7121 35.5107 65.082 36.1861 65.082 37.4988C65.082 38.8114 65.6771 39.3656 66.4227 39.3656C66.9303 39.3656 67.2873 39.1162 67.5498 38.8357V39.0261C67.5498 39.8885 67.2663 40.2141 66.0166 40.2453L66.0202 40.2487ZM66.5592 38.9084C65.9676 38.9084 65.6106 38.4235 65.6106 37.4918C65.6106 36.4978 65.9151 35.9679 66.5382 35.9679C66.9828 35.9679 67.3433 36.2138 67.5498 36.5221V38.375C67.2873 38.7006 66.9583 38.9084 66.5592 38.9084Z" fill="#004289"/>
<path d="M73.9856 36.7888C73.9856 35.0952 73.0195 34.354 71.7103 34.354H70.3906V39.2929H71.6123C72.946 39.2929 73.9856 38.5794 73.9856 36.7888ZM70.9472 34.8527H71.6683C72.8164 34.8527 73.429 35.5454 73.429 36.8061C73.429 38.2261 72.7569 38.7907 71.6823 38.7907H70.9472V34.8527Z" fill="#004289"/>
<path d="M75.4106 36.0477V35.5906H74.875V39.293H75.4106V37.1179C75.4106 36.4114 75.7046 35.9992 76.2262 35.9992C76.4747 35.9992 76.6357 36.0547 76.7862 36.1412L76.9193 35.6079C76.7932 35.5525 76.6147 35.5178 76.3347 35.5178C75.9321 35.5178 75.5786 35.7568 75.4106 36.0512V36.0477Z" fill="#004289"/>
<path d="M80.1192 38.9397L79.8672 38.5587C79.5241 38.7839 79.2686 38.912 78.8311 38.912C78.222 38.912 77.8404 38.4098 77.7914 37.6236H80.2837C80.3012 37.537 80.3082 37.4608 80.3082 37.3361C80.3082 36.2798 79.7762 35.5178 78.7996 35.5178C77.9104 35.5178 77.2559 36.2486 77.2559 37.4227C77.2559 38.8808 78.089 39.3726 78.7751 39.3726C79.3386 39.3726 79.6677 39.2237 80.1192 38.9432V38.9397ZM78.7996 35.9715C79.4541 35.9715 79.7692 36.4737 79.8112 37.1907H77.7914C77.8544 36.3629 78.243 35.9715 78.7996 35.9715Z" fill="#004289"/>
<path d="M82.0928 39.369C82.6284 39.369 82.9959 39.1197 83.2585 38.8391V39.2928H83.794V36.7091C83.794 35.8502 83.29 35.5107 82.4849 35.5107C81.9983 35.5107 81.5573 35.6285 81.2282 35.8051L81.4277 36.2346C81.7358 36.058 82.0543 35.9506 82.4464 35.9506C82.9959 35.9506 83.2585 36.2173 83.2585 36.7714V37.2078C83.0379 37.0866 82.7019 36.9931 82.3274 36.9931C81.5853 36.9931 80.8887 37.3464 80.8887 38.1776C80.8887 39.0712 81.5047 39.3621 82.0893 39.3621L82.0928 39.369ZM82.2994 37.4191C82.7544 37.4191 83.0204 37.5022 83.262 37.6338V38.3854C83.0344 38.6937 82.6704 38.9396 82.1873 38.9396C81.7323 38.9396 81.4207 38.7006 81.4207 38.1499C81.4207 37.6858 81.7533 37.4226 82.2994 37.4226V37.4191Z" fill="#004289"/>
<path d="M89.1648 37.1249V39.293H89.7003V37.0383C89.7003 35.9577 89.2243 35.5144 88.4612 35.5144C87.8556 35.5144 87.5476 35.7949 87.3305 36.1482C87.152 35.7949 86.8335 35.5144 86.3049 35.5144C85.8603 35.5144 85.5488 35.7257 85.3563 36.0443V35.5941H84.8242V39.2965H85.3563V37.1284C85.3563 36.3075 85.6783 35.9716 86.1929 35.9716C86.7075 35.9716 87.0015 36.2798 87.0015 37.1284V39.2965H87.5336V37.1284C87.5336 36.3075 87.8591 35.9716 88.3702 35.9716C88.9092 35.9716 89.1753 36.2798 89.1753 37.1284L89.1648 37.1249Z" fill="#004289"/>
<path d="M42.7098 43.844C41.7087 43.4908 41.5267 43.2587 41.5267 42.85C41.5267 42.4414 41.8137 42.1262 42.4963 42.1262C42.9969 42.1262 43.3329 42.2855 43.6934 42.5834L44.0505 42.1539C43.6304 41.8249 43.1999 41.6274 42.5313 41.6274C41.5967 41.6274 40.9701 42.0915 40.9701 42.8881C40.9701 43.6016 41.3341 43.9445 42.4123 44.3255C43.3259 44.6545 43.6024 44.9108 43.6024 45.3714C43.6024 45.891 43.1894 46.2165 42.5243 46.2165C42.0097 46.2165 41.5757 45.981 41.1976 45.6243L40.8301 46.033C41.2221 46.4278 41.8277 46.7153 42.5068 46.7153C43.5464 46.7153 44.1555 46.1161 44.1555 45.3403C44.1555 44.5645 43.816 44.2389 42.7133 43.844H42.7098Z" fill="#004289"/>
<path d="M46.4264 43.3176C46.8044 43.3176 47.0529 43.4492 47.3225 43.6916L47.6445 43.2968C47.3505 43.0405 46.9619 42.8569 46.4614 42.8569C45.6773 42.8569 44.8477 43.4353 44.8477 44.8034C44.8477 46.0953 45.6003 46.7118 46.4229 46.7118C46.9479 46.7118 47.312 46.5143 47.627 46.1957L47.305 45.8598C47.0494 46.1057 46.8079 46.2511 46.4439 46.2511C45.7823 46.2511 45.3867 45.6658 45.3867 44.7549C45.3867 43.844 45.8383 43.3106 46.4229 43.3106L46.4264 43.3176Z" fill="#004289"/>
<path d="M49.9315 42.8604C49.4624 42.8604 49.1089 43.0786 48.8953 43.3903V41.6516H48.3633V46.6459H48.8953V44.4778C48.8953 43.6673 49.3049 43.321 49.823 43.321C50.425 43.321 50.7086 43.6777 50.7086 44.4778V46.6459H51.2441V44.3843C51.2441 43.321 50.7226 42.8604 49.9315 42.8604Z" fill="#004289"/>
<path d="M53.6308 42.8604C52.7207 42.8604 51.9961 43.5357 51.9961 44.793C51.9961 46.0502 52.6927 46.7186 53.6028 46.7186C54.5129 46.7186 55.2445 46.0225 55.2445 44.7653C55.2445 43.508 54.5409 42.8604 53.6308 42.8604ZM53.6203 46.258C52.9692 46.258 52.5317 45.7523 52.5317 44.7791C52.5317 43.8059 52.9692 43.321 53.6203 43.321C54.2714 43.321 54.7089 43.8059 54.7089 44.7791C54.7089 45.7523 54.2679 46.258 53.6203 46.258Z" fill="#004289"/>
<path d="M56.5863 41.6482H56.0508V46.6425H56.5863V41.6482Z" fill="#004289"/>
<path d="M59.033 42.8604C58.5464 42.8604 58.1053 42.9816 57.7798 43.1582L57.9793 43.5911C58.2874 43.4145 58.6094 43.3071 59.0015 43.3071C59.5475 43.3071 59.8136 43.5773 59.8136 44.1245V44.5644C59.593 44.4431 59.257 44.3496 58.8824 44.3496C58.1404 44.3496 57.4473 44.7029 57.4473 45.5376C57.4473 46.4312 58.0598 46.7186 58.6444 46.7186C59.18 46.7186 59.5475 46.4727 59.8136 46.1922V46.6459H60.3491V44.0656C60.3491 43.1998 59.8416 42.8638 59.0365 42.8638L59.033 42.8604ZM59.8101 45.7316C59.586 46.0363 59.215 46.2857 58.7354 46.2857C58.2804 46.2857 57.9723 46.0467 57.9723 45.496C57.9723 45.0285 58.3014 44.7722 58.8509 44.7722C59.306 44.7722 59.5685 44.8484 59.8101 44.9835V45.7316Z" fill="#004289"/>
<path d="M61.8988 43.3973V42.9332H61.3633V46.6391H61.8988V44.464C61.8988 43.7609 62.1859 43.3419 62.7109 43.3419C62.963 43.3419 63.124 43.3973 63.2745 43.4839L63.411 42.947C63.2815 42.8916 63.1065 42.8535 62.8265 42.8535C62.4274 42.8535 62.0669 43.0925 61.9023 43.3938L61.8988 43.3973Z" fill="#004289"/>
<path d="M65.4627 44.4882C64.8291 44.2042 64.6366 44.076 64.6366 43.7678C64.6366 43.5011 64.8641 43.3106 65.2562 43.3106C65.6482 43.3106 65.9003 43.418 66.1908 43.6431L66.4883 43.2552C66.2013 43.0231 65.8057 42.8604 65.2912 42.8604C64.6121 42.8604 64.1185 43.2413 64.1185 43.8059C64.1185 44.3704 64.4336 44.6232 65.1827 44.9384C65.8443 45.219 66.0648 45.3921 66.0648 45.6935C66.0648 46.0571 65.8232 46.2649 65.3122 46.2649C64.9376 46.2649 64.5911 46.116 64.2901 45.8562L63.9785 46.2441C64.3356 46.5281 64.7836 46.7152 65.2982 46.7152C65.9458 46.7152 66.5793 46.3965 66.5793 45.6727C66.5793 45.0077 66.1663 44.8068 65.4592 44.4882H65.4627Z" fill="#004289"/>
<path d="M69.0229 42.8604C68.5468 42.8604 68.2003 43.0786 67.9867 43.3903V41.6516H67.4512V46.6459H67.9867V44.4778C67.9867 43.6673 68.3928 43.321 68.9144 43.321C69.5129 43.321 69.7965 43.6777 69.7965 44.4778V46.6459H70.332V44.3843C70.332 43.321 69.814 42.8604 69.0229 42.8604Z" fill="#004289"/>
<path d="M71.9207 42.9331H71.3887V46.639H71.9207V42.9331Z" fill="#004289"/>
<path d="M71.6659 41.52C71.4489 41.52 71.2773 41.6897 71.2773 41.9045C71.2773 42.1192 71.4489 42.2785 71.6659 42.2785C71.8654 42.2785 72.0369 42.1053 72.0369 41.9045C72.0369 41.6897 71.8654 41.52 71.6659 41.52Z" fill="#004289"/>
<path d="M74.6627 42.8604C74.1586 42.8604 73.8016 43.1097 73.5356 43.3903V42.9365H73V48.0036H73.5356V46.2268C73.7981 46.5212 74.1201 46.7186 74.5927 46.7186C75.3733 46.7186 76.0034 46.0398 76.0034 44.7306C76.0034 43.4214 75.4083 42.8604 74.6627 42.8604ZM74.5472 46.258C74.1061 46.258 73.7421 46.0121 73.5356 45.7004V43.8509C73.7981 43.5288 74.1271 43.3175 74.5262 43.3175C75.1213 43.3175 75.4783 43.8024 75.4783 44.7341C75.4783 45.7281 75.1703 46.2545 74.5507 46.2545L74.5472 46.258Z" fill="#004289"/>
<path d="M78.8339 42.2023H81.2072V41.7036H78.2773V46.6425H78.8339V44.3393H80.2026V43.8406H78.8339V42.2023Z" fill="#004289"/>
<path d="M82.8316 42.8604C81.9215 42.8604 81.1934 43.5357 81.1934 44.793C81.1934 46.0502 81.8935 46.7186 82.8036 46.7186C83.7137 46.7186 84.4453 46.0225 84.4453 44.7653C84.4453 43.508 83.7487 42.8604 82.8316 42.8604ZM82.8176 46.258C82.1665 46.258 81.7359 45.7523 81.7359 44.7791C81.7359 43.8059 82.17 43.321 82.8176 43.321C83.4651 43.321 83.9097 43.8059 83.9097 44.7791C83.9097 45.7523 83.4686 46.258 82.8176 46.258Z" fill="#004289"/>
<path d="M87.3965 45.1012C87.3965 45.9117 86.9939 46.258 86.4724 46.258C85.8738 46.258 85.5868 45.9013 85.5868 45.1012V42.9331H85.0547V45.1913C85.0547 46.2546 85.5763 46.7152 86.3674 46.7152C86.8329 46.7152 87.183 46.5005 87.3965 46.1888V46.6425H87.9356V42.9366H87.3965V45.1047V45.1012Z" fill="#004289"/>
<path d="M90.4002 42.8604C89.9312 42.8604 89.5811 43.0786 89.3676 43.3903V42.9366H88.832V46.6425H89.3676V44.4744C89.3676 43.6639 89.7737 43.3176 90.2952 43.3176C90.8938 43.3176 91.1773 43.6743 91.1773 44.4744V46.6425H91.7129V44.3809C91.7129 43.3176 91.1913 42.8569 90.4002 42.8569V42.8604Z" fill="#004289"/>
<path d="M94.9287 43.3557C94.6627 43.0578 94.3442 42.8569 93.8716 42.8569C93.0875 42.8569 92.4609 43.5323 92.4609 44.8484C92.4609 46.1645 93.0525 46.7152 93.8016 46.7152C94.3092 46.7152 94.6627 46.4693 94.9252 46.1888V46.6425H95.4608V41.6482H94.9252V43.3557H94.9287ZM94.9287 45.7212C94.6627 46.0433 94.3372 46.2546 93.9381 46.2546C93.3465 46.2546 92.9895 45.7697 92.9895 44.838C92.9895 43.8406 93.294 43.3141 93.9171 43.3141C94.3582 43.3141 94.7187 43.56 94.9287 43.8717V45.7178V45.7212Z" fill="#004289"/>
<path d="M97.7294 42.8604C97.2464 42.8604 96.8053 42.9816 96.4763 43.1582L96.6723 43.5911C96.9803 43.4145 97.3024 43.3071 97.6944 43.3071C98.2405 43.3071 98.503 43.5773 98.503 44.1245V44.5644C98.2825 44.4431 97.9464 44.3496 97.5684 44.3496C96.8298 44.3496 96.1367 44.7029 96.1367 45.5376C96.1367 46.4312 96.7528 46.7186 97.3374 46.7186C97.8729 46.7186 98.2405 46.4727 98.503 46.1922V46.6459H99.0386V44.0656C99.0386 43.1998 98.5345 42.8638 97.7259 42.8638L97.7294 42.8604ZM98.503 45.7316C98.2755 46.0363 97.9149 46.2857 97.4249 46.2857C96.9733 46.2857 96.6688 46.0467 96.6688 45.496C96.6688 45.0285 96.9943 44.7722 97.5439 44.7722C97.999 44.7722 98.265 44.8484 98.503 44.9835V45.7316Z" fill="#004289"/>
<path d="M100.747 41.6482H100.208V42.9331H99.7461V43.3799H100.208V45.8771C100.208 46.4901 100.46 46.7118 100.926 46.7118C101.206 46.7118 101.405 46.6702 101.612 46.5871L101.65 46.1299C101.479 46.1992 101.339 46.2338 101.122 46.2338C100.838 46.2338 100.747 46.1195 100.747 45.7905V43.3799H101.675V42.9331H100.747V41.6482Z" fill="#004289"/>
<path d="M102.89 41.52C102.669 41.52 102.494 41.6897 102.494 41.9045C102.494 42.1192 102.669 42.2785 102.89 42.2785C103.089 42.2785 103.257 42.1053 103.257 41.9045C103.257 41.6897 103.086 41.52 102.89 41.52Z" fill="#004289"/>
<path d="M103.145 42.9331H102.609V46.639H103.145V42.9331Z" fill="#004289"/>
<path d="M105.587 42.8604C104.677 42.8604 103.949 43.5357 103.949 44.793C103.949 46.0502 104.646 46.7186 105.559 46.7186C106.473 46.7186 107.198 46.0225 107.198 44.7653C107.198 43.508 106.498 42.8604 105.587 42.8604ZM105.573 46.258C104.926 46.258 104.488 45.7523 104.488 44.7791C104.488 43.8059 104.926 43.321 105.573 43.321C106.221 43.321 106.666 43.8059 106.666 44.7791C106.666 45.7523 106.225 46.258 105.573 46.258Z" fill="#004289"/>
<path d="M109.54 42.8604C109.071 42.8604 108.721 43.0786 108.504 43.3903V42.9366H107.969V46.6425H108.504V44.4744C108.504 43.6639 108.91 43.3176 109.432 43.3176C110.031 43.3176 110.318 43.6743 110.318 44.4744V46.6425H110.85V44.3809C110.85 43.3176 110.328 42.8569 109.54 42.8569V42.8604Z" fill="#004289"/>
<path d="M61.4224 24.6321C59.2732 24.6355 57.502 26.298 57.502 28.383C57.502 30.468 59.2732 32.1131 61.4224 32.1201C63.5927 32.1131 65.3464 30.4472 65.3464 28.383C65.3464 26.3188 63.5927 24.6355 61.4224 24.6321ZM61.3699 30.4091C60.2463 30.4091 59.3992 29.5017 59.3992 28.383C59.3992 27.2643 60.3058 26.3396 61.4259 26.3396C62.5461 26.3396 63.4212 27.247 63.4212 28.383C63.4212 29.519 62.5041 30.4091 61.3734 30.4091H61.3699Z" fill="#004289"/>
<path d="M43.4331 22.052C44.0317 22.6373 44.7178 23.1499 45.3934 23.479L45.4634 23.5171L46.622 22.1628L46.51 22.1005C45.4109 21.5117 44.5498 20.7671 43.9862 19.8285C43.4261 18.9037 43.1391 17.8301 43.1391 16.5451V15.3398H41.0668V16.417C41.0668 17.8093 40.7483 18.9037 40.1497 19.8631C39.4811 20.9264 38.4905 21.7819 37.2233 22.575L37.1113 22.6443L38.368 23.9327L38.438 23.8946C39.1871 23.4928 39.9817 22.8729 40.6713 22.1802C41.2699 21.5741 41.7879 20.9264 42.103 20.3134C42.4075 20.916 42.8731 21.529 43.4331 22.0555V22.052Z" fill="#004289"/>
<path d="M41.1895 31.2335H49.8636V25.3699H41.1895V31.2335ZM43.1392 27.0254H47.9138V29.578H43.1392V27.0254Z" fill="#004289"/>
<path d="M70.1094 31.2335H79.9176V25.3699H70.1094V31.2335ZM72.0381 27.0254H77.9924V29.578H72.0381V27.0254Z" fill="#004289"/>
<path d="M49.8975 14.9934H47.9688V24.698H49.8975V20.4033H52.1553V18.6785H49.8975V14.9934Z" fill="#004289"/>
<path d="M89.8872 22.5472C90.5208 23.091 91.2454 23.5481 91.9279 23.8425L91.998 23.8737L93.0411 22.4779L92.9291 22.4225C91.935 21.9203 91.0493 21.2969 90.4123 20.5349C89.7647 19.7591 89.3796 18.824 89.3796 17.6984V17.3693H92.25V15.7H84.458V17.3693H87.3249V17.7711C87.3249 18.7963 86.9818 19.7522 86.4113 20.58C85.7427 21.574 84.766 22.374 83.8174 22.8935L83.6914 22.9593L84.9726 24.272L85.0426 24.2374C85.7322 23.8495 86.4953 23.2641 87.1463 22.6061C87.6679 22.0658 88.137 21.4943 88.424 20.9228C88.7706 21.477 89.3026 22.0311 89.8907 22.5472H89.8872Z" fill="#004289"/>
<path d="M103.836 27.0635H110.847V31.23H112.794V25.408H103.836V27.0635Z" fill="#004289"/>
<path d="M108.675 20.3894C108.675 19.4716 108.258 18.6265 107.642 17.9823H109.567V16.3303H105.892V14.512H103.802V16.3303H100.039V17.9823H102.006C101.404 18.6265 100.988 19.4647 100.988 20.3894C100.988 22.4363 102.692 24.0988 104.824 24.1057C106.956 24.0988 108.671 22.4363 108.675 20.3894ZM102.846 20.3132C102.846 19.1807 103.813 18.2213 104.824 18.2213C105.836 18.2213 106.798 19.1842 106.802 20.3132C106.802 21.4285 105.836 22.3913 104.824 22.3948C103.809 22.3913 102.85 21.4285 102.846 20.3132Z" fill="#004289"/>
<path d="M112.794 14.9934H110.869V24.7326H112.794V21.0164H115.059V19.2916H112.794V14.9934Z" fill="#004289"/>
<path d="M96.4584 14.9934H94.5332V24.7326H96.4584V20.4033H98.7197V18.6785H96.4584V14.9934Z" fill="#004289"/>
<path d="M63.7775 17.8819H60.7461V19.5894H63.7775V25.0409H65.7062V14.9934H63.7775V17.8819Z" fill="#004289"/>
<path d="M58.8809 22.3048C59.483 22.8867 60.1865 23.3993 60.8586 23.7456L60.9321 23.7872L62.0908 22.433L61.9788 22.3707C60.8796 21.7992 60.036 21.058 59.4689 20.1333C58.8949 19.2154 58.6078 18.1002 58.6078 16.8153V15.3398H56.5321V16.6906C56.5321 18.0829 56.217 19.1739 55.6325 20.1159C54.9674 21.1965 53.9558 22.0589 52.6886 22.8451L52.5801 22.9144L53.8437 24.2063L53.9067 24.1647C54.6523 23.7595 55.4294 23.1742 56.119 22.5057C56.7421 21.8927 57.2602 21.2243 57.5752 20.5835C57.8727 21.1688 58.3278 21.7646 58.8809 22.3083V22.3048Z" fill="#004289"/>
<path d="M92.3244 24.6321C90.1751 24.6355 88.4039 26.298 88.4004 28.383C88.4039 30.4472 90.1716 32.1131 92.3244 32.1201C94.4912 32.1131 96.2484 30.4472 96.2484 28.383C96.2484 26.3188 94.4912 24.6355 92.3244 24.6321ZM92.2684 30.4091C91.1482 30.4091 90.2941 29.5017 90.2941 28.383C90.2941 27.2643 91.1972 26.3396 92.3244 26.3396C93.4515 26.3396 94.3161 27.247 94.3196 28.383C94.3196 29.4982 93.399 30.4091 92.2684 30.4091Z" fill="#004289"/>
<path d="M72.4581 20.5592H74.3868V15.603H69.1816V17.2516H72.4581V20.5592Z" fill="#004289"/>
<path d="M78.2495 20.5592H80.1817V15.603H74.9766V17.2516H78.2495V20.5592Z" fill="#004289"/>
<path d="M127.413 19.3816H125.792V15.2636H123.969V30.8145H125.792V21.2519H127.413V31.2301H129.303V14.9934H127.413V19.3816Z" fill="#004289"/>
<path d="M121.293 21.5323C120.859 20.5937 120.68 19.5443 120.68 18.2559V17.6428H122.868V15.8938H116.511V17.6428H118.769V18.2905C118.769 19.5096 118.608 20.5071 118.219 21.4319C117.768 22.4951 117.008 23.4511 115.797 24.4762L115.713 24.5524L116.91 25.7265L116.984 25.6711C117.586 25.2313 118.216 24.594 118.741 23.9359C119.185 23.3818 119.56 22.8069 119.794 22.3012C120.036 22.793 120.414 23.3575 120.855 23.884C121.366 24.5005 121.944 25.0858 122.497 25.4356L122.57 25.4841L123.578 24.2927L123.498 24.2199C122.413 23.2848 121.741 22.4501 121.3 21.5288L121.293 21.5323Z" fill="#004289"/>
<path d="M67.5684 22.8658H73.9707V24.7153H76.0604V22.8658H82.5643V21.2068H67.5684V22.8658Z" fill="#004289"/>
<path d="M140.284 22.3359H133.766V17.4282H138.729V15.7H131.812V24.0122H140.284V22.3359Z" fill="#004289"/>
<path d="M136.598 26.0557H134.648V31.2301H143.767V29.526H136.598V26.0557Z" fill="#004289"/>
<path d="M143.72 19.489V14.99H141.795V26.9701H143.72V21.2138H145.999V19.489H143.72Z" fill="#004289"/>
<path d="M40.8886 9.98167L35.8935 7.93477L40.8886 5.88787L39.9995 3.7717L35.0079 5.8186L37.0767 0.876254L34.9344 0L32.8691 4.94235L30.8004 0L28.6581 0.876254L30.7269 5.8186L25.7352 3.7717L24.8496 5.88787L29.8412 7.93477L24.8496 9.98167L25.7352 12.0978L30.7269 10.0509L28.6581 14.9933L30.8004 15.8695L32.8691 10.9307L34.9344 15.8695L37.0767 14.9898L35.0079 10.0509L39.9995 12.0978L40.8886 9.98167Z" fill="#009FE3"/>
<path d="M8.56827 23.7698H11.8902V14.9934H0.53125V17.9512H8.56827V23.7698Z" fill="#009FE3"/>
<path d="M21.5273 23.7698H24.8492V14.9934H13.4902V17.9512H21.5273V23.7698Z" fill="#009FE3"/>
<path d="M0 28.3103H21.5277V32.8301H24.8496V25.3525H0V28.3103Z" fill="#009FE3"/>
<path d="M8.03711 46.6424H24.8497V34.3506H8.03711V46.6424ZM11.359 37.3084H21.5313V43.6846H11.359V37.3084Z" fill="#009FE3"/>
</g>
<defs>
<clipPath id="clip0_37_2580">
<rect width="146" height="48" fill="white"/>
</clipPath>
</defs>
</svg>
