<svg width="64" height="44" viewBox="0 0 64 44" fill="none" xmlns="http://www.w3.org/2000/svg">
<g clip-path="url(#clip0_37_2397)">
<path d="M32.005 18.143C30.218 18.143 28.7637 16.7106 28.7637 14.9506C28.7637 13.1906 30.218 11.7583 32.005 11.7583C33.792 11.7583 35.2464 13.1906 35.2464 14.9506C35.2464 16.7106 33.792 18.143 32.005 18.143ZM32.005 12.7881C30.7978 12.7881 29.8188 13.7523 29.8188 14.9413C29.8188 16.1302 30.7978 17.0945 32.005 17.0945C33.2122 17.0945 34.2008 16.1302 34.2008 14.9413C34.2008 13.7523 33.2217 12.7881 32.005 12.7881Z" fill="#2D2D2D"/>
<path d="M32.727 43.9998C26.3394 43.9998 19.7141 42.2117 13.0413 38.6823C12.8702 38.5887 12.7656 38.4202 12.7656 38.2236V20.8015C12.7656 20.6236 12.8607 20.4645 13.0128 20.3615C13.1649 20.2679 13.355 20.2492 13.5166 20.3334L31.9951 28.8057L51.12 20.0432C51.2531 19.987 51.3957 19.9777 51.5287 20.0338C51.6618 20.0806 51.7664 20.1836 51.8234 20.3147C51.8519 20.3802 51.8709 20.4645 51.8709 20.53V38.233C51.8709 38.4202 51.7759 38.5887 51.6143 38.6823C45.4738 42.2211 39.1242 44.0092 32.727 44.0092V43.9998ZM13.8207 37.9147C20.2464 41.2662 26.6055 42.9606 32.727 42.9606C38.8485 42.9606 44.9225 41.2662 50.8253 37.924V21.307L32.2232 29.8355C32.0806 29.9011 31.919 29.9011 31.7765 29.8355L13.8207 21.6066V37.9053V37.9147Z" fill="#2D2D2D"/>
<path d="M32.0047 29.8918C31.9287 29.8918 31.8527 29.8731 31.7861 29.845L0.304173 15.4186C0.12357 15.3344 0 15.1471 0 14.9505C0 14.7539 0.114065 14.5667 0.304173 14.4825L31.7766 0.0467075C31.9192 -0.0188244 32.0808 -0.0188244 32.2234 0.0467075L63.6958 14.4731C63.8859 14.5573 64 14.7446 64 14.9412C64 15.1378 63.8764 15.325 63.6958 15.4093L32.2234 29.8356C32.1568 29.8637 32.0808 29.8825 32.0047 29.8825V29.8918ZM1.77751 14.9505L32.0047 28.8059L62.232 14.9505L32.0047 1.08586L1.77751 14.9505ZM32.0047 18.1429C30.2177 18.1429 28.7634 16.7105 28.7634 14.9505C28.7634 13.1905 30.2177 11.7582 32.0047 11.7582C33.7918 11.7582 35.2461 13.1905 35.2461 14.9505C35.2461 16.7105 33.7918 18.1429 32.0047 18.1429ZM32.0047 12.788C30.7976 12.788 29.8185 13.7522 29.8185 14.9412C29.8185 16.1301 30.7976 17.0944 32.0047 17.0944C33.2119 17.0944 34.2005 16.1301 34.2005 14.9412C34.2005 13.7522 33.2214 12.788 32.0047 12.788Z" fill="#2D2D2D"/>
<path d="M32.7273 43.9625C26.2826 43.9625 19.7143 42.2025 13.051 38.6732C12.88 38.5796 12.7754 38.4111 12.7754 38.2145V20.7923C12.7754 20.5021 13.013 20.2774 13.2982 20.2774C13.5834 20.2774 13.821 20.5115 13.821 20.7923V37.9055C26.7959 44.674 38.9058 44.674 50.8256 37.9149V20.5115C50.8256 20.2213 51.0632 19.9966 51.3484 19.9966C51.6336 19.9966 51.8712 20.2306 51.8712 20.5115V38.2145C51.8712 38.4017 51.7761 38.5702 51.6145 38.6638C45.4835 42.1932 39.1719 43.9625 32.7273 43.9625Z" fill="#2D2D2D"/>
<path d="M32.0047 29.8918C31.9287 29.8918 31.8527 29.8731 31.7861 29.845L0.304173 15.4186C0.12357 15.3344 0 15.1471 0 14.9505C0 14.7539 0.114065 14.5667 0.304173 14.4825L31.7766 0.0467075C31.9192 -0.0188244 32.0808 -0.0188244 32.2234 0.0467075L63.6958 14.4731C63.8859 14.5573 64 14.7446 64 14.9412C64 15.1378 63.8764 15.325 63.6958 15.4093L32.2234 29.8356C32.1568 29.8637 32.0808 29.8825 32.0047 29.8825V29.8918Z" fill="#097CBF"/>
<path d="M57.8969 18.0214C57.8969 18.0214 57.8589 18.0214 57.8398 18.0214L34.6656 15.4657C34.3805 15.4376 34.1714 15.1755 34.1999 14.8946C34.2284 14.6138 34.4945 14.3984 34.7797 14.4359L57.9539 16.9916C58.2391 17.0197 58.4482 17.2818 58.4197 17.5627C58.3912 17.8248 58.163 18.0214 57.8969 18.0214Z" fill="#2D2D2D"/>
<path d="M57.888 32.6444C57.5934 32.6444 57.3652 32.4103 57.3652 32.1295V17.5159C57.3652 17.2257 57.6029 17.001 57.888 17.001C58.1732 17.001 58.4108 17.235 58.4108 17.5159V32.1295C58.4108 32.4197 58.1732 32.6444 57.888 32.6444Z" fill="#2D2D2D"/>
<path d="M57.945 36.754C56.5667 36.754 55.4355 35.6493 55.4355 34.2825C55.4355 32.9157 56.5572 31.811 57.945 31.811C59.3328 31.811 60.4544 32.9157 60.4544 34.2825C60.4544 35.6493 59.3328 36.754 57.945 36.754Z" fill="#097CBF"/>
<path d="M25.0656 39.029C25.0656 39.029 24.98 39.029 24.942 39.0197C21.2444 38.149 17.4518 36.698 13.6876 34.7039C13.431 34.5729 13.3359 34.2546 13.4785 34.0018C13.6116 33.749 13.9347 33.6554 14.1914 33.7958C17.8795 35.7524 21.5771 37.1754 25.1892 38.018C25.4743 38.0835 25.6454 38.3644 25.5789 38.6452C25.5219 38.8792 25.3032 39.0478 25.0656 39.0478V39.029Z" fill="#2D2D2D"/>
<path d="M31.8251 39.9841C31.8251 39.9841 31.8156 39.9841 31.8061 39.9841C30.6464 39.9466 29.4202 39.8249 28.1845 39.6377C27.8993 39.5909 27.6997 39.3287 27.7472 39.0479C27.7948 38.767 28.0609 38.5704 28.3461 38.6173C29.5438 38.8045 30.7129 38.9168 31.8346 38.9543C32.1292 38.9543 32.3479 39.207 32.3384 39.4879C32.3384 39.7687 32.0912 39.9934 31.8156 39.9934L31.8251 39.9841Z" fill="#2D2D2D"/>
<path d="M32.0622 17.4034C33.4481 17.4034 34.5716 16.2969 34.5716 14.9319C34.5716 13.567 33.4481 12.4604 32.0622 12.4604C30.6762 12.4604 29.5527 13.567 29.5527 14.9319C29.5527 16.2969 30.6762 17.4034 32.0622 17.4034Z" fill="white"/>
<path d="M32.005 18.143C30.218 18.143 28.7637 16.7106 28.7637 14.9506C28.7637 13.1906 30.218 11.7583 32.005 11.7583C33.792 11.7583 35.2464 13.1906 35.2464 14.9506C35.2464 16.7106 33.792 18.143 32.005 18.143ZM32.005 12.7881C30.7978 12.7881 29.8188 13.7523 29.8188 14.9413C29.8188 16.1302 30.7978 17.0945 32.005 17.0945C33.2122 17.0945 34.2008 16.1302 34.2008 14.9413C34.2008 13.7523 33.2217 12.7881 32.005 12.7881Z" fill="white"/>
</g>
<defs>
<clipPath id="clip0_37_2397">
<rect width="64" height="44" fill="white"/>
</clipPath>
</defs>
</svg>
