<svg width="52" height="50" viewBox="0 0 52 50" fill="none" xmlns="http://www.w3.org/2000/svg">
<g clip-path="url(#clip0_37_2419)">
<path d="M20.2801 49.9999C20.1522 49.9999 19.8452 49.965 19.7428 49.6071C19.6575 49.2929 19.7343 48.935 20.0925 48.8302L22.9239 47.9224L19.1032 46.7615H16.0159C15.8794 46.7615 15.6833 46.744 15.5895 46.648L11.6834 42.8247H11.5129C9.40632 42.6501 7.49595 41.6026 6.4043 40.0052C6.21668 39.7171 6.24226 39.3941 6.48106 39.2021C7.13775 38.6173 7.86267 38.1197 8.66435 37.7094L9.20164 37.4388L8.81786 36.9675C8.44261 36.5048 8.11853 36.0247 7.77739 35.405L7.64093 35.1693H7.37655C3.79459 35.082 0.698759 32.7077 0.0164814 29.5303C-0.0858603 29.2161 0.127351 28.9717 0.374677 28.8844C1.33839 28.5352 2.31064 28.3606 3.27436 28.3606C3.71784 28.3606 4.16132 28.3955 4.59627 28.4741L5.27002 28.5876L5.13356 27.898C5.03122 27.3481 4.97152 26.9291 4.97152 26.6148V26.318L4.71567 26.1784C1.31281 24.3627 -0.469641 20.5045 0.596417 17.2398C0.681702 16.9605 0.929027 16.8645 1.13371 16.8645C1.16782 16.8645 1.21047 16.8645 1.24458 16.8732C2.58355 17.1002 3.86282 17.7025 5.05681 18.6714L5.55146 19.0729L5.78173 18.4706C5.9523 18.0342 6.12286 17.5104 6.29343 16.9779L6.35313 16.8034L6.2849 16.6375C4.81801 13.0411 5.73056 9.02578 8.46819 7.0792C8.58759 7.00064 8.72405 6.95699 8.85197 6.95699C9.01402 6.95699 9.159 7.02683 9.26134 7.15776C9.8498 7.84736 10.3189 8.5806 10.6259 9.28765L10.9073 9.9336L11.3935 9.43604C11.8881 8.92976 12.468 8.4322 13.0139 8.03067L13.1844 7.90846L13.21 7.69896C13.7132 3.44792 17.099 -6.00116e-05 20.7577 -6.00116e-05C21.1415 -6.00116e-05 21.5253 0.0348562 21.9005 0.113418C22.1905 0.165792 22.3611 0.488767 22.3611 0.759367C22.0626 5.23737 18.6512 8.9123 14.7707 8.9123C14.5405 8.9123 14.3017 8.89484 14.0714 8.86866L13.8923 8.8512L13.7473 8.95595C12.8859 9.57571 12.0928 10.2915 11.3935 11.0946L11.2399 11.2691L11.2826 11.5048C11.8625 14.6386 10.7879 17.6501 8.54495 19.1777C8.41702 19.265 8.28057 19.3086 8.15264 19.3086C7.9906 19.3086 7.84561 19.2388 7.74327 19.1078L7.0013 18.3397L6.7625 19.0904C6.71986 19.2213 6.67722 19.3872 6.63457 19.5443C6.59193 19.6839 6.55782 19.8323 6.51517 19.9546L6.43842 20.1902L6.5834 20.391C8.00766 22.3638 8.44261 24.6857 7.77739 26.737C7.6921 27.0164 7.44478 27.1124 7.24009 27.1124C7.20598 27.1124 7.16334 27.1124 7.12922 27.1036L6.99277 27.0775C6.91601 27.0513 6.79661 27.0076 6.63457 27.0076H6.16551V27.4877C6.16551 27.8107 6.22521 28.2297 6.3446 28.7185L6.39578 28.9455L6.60899 29.0415C8.86903 30.0715 10.4297 31.8872 10.8732 34.0258C10.9159 34.1742 10.9073 34.2789 10.8647 34.3749C10.7965 34.5059 10.6685 34.6194 10.515 34.6717L8.85197 35.0994L9.2784 35.6843C9.40632 35.8589 9.55131 36.0509 9.70482 36.2517C9.8498 36.4437 9.99479 36.6358 10.1227 36.8016L10.3018 37.0548L10.6003 36.9849C11.1973 36.8453 11.8114 36.7754 12.4254 36.7754C14.839 36.7754 16.937 37.8142 18.1736 39.6211C18.3612 39.9092 18.3356 40.2321 18.0968 40.4242C16.8517 41.524 15.5127 42.2398 14.0885 42.5628L13.2271 42.7548L16.1012 45.5743H16.8517V44.5792C16.8517 43.3746 17.8069 42.3969 18.9838 42.3969C19.4955 42.3969 19.9646 42.5453 20.2887 42.8072L20.5616 43.0254L20.8515 42.8334C21.2694 42.5453 21.7385 42.3969 22.2161 42.3969C22.6937 42.3969 23.1286 42.5453 23.5039 42.8159L23.7683 43.0167L24.0412 42.8334C24.4591 42.5453 24.9281 42.3969 25.4057 42.3969C25.8833 42.3969 26.3183 42.5453 26.6935 42.8159L26.9579 43.0167L27.2308 42.8334C27.6487 42.5453 28.1178 42.3969 28.5954 42.3969C29.073 42.3969 29.5079 42.5453 29.8832 42.8159L30.1731 43.0342L30.4546 42.8072C30.7701 42.5453 31.2477 42.3969 31.7509 42.3969C32.9278 42.3969 33.883 43.3746 33.883 44.5792V45.5743H34.6335L37.4735 42.781L36.6633 42.5628C35.0088 42.1176 33.6954 41.4193 32.6635 40.4416C32.4588 40.2321 32.3394 39.9004 32.5441 39.6386C33.8404 37.8142 35.9469 36.7754 38.3434 36.7754C38.9404 36.7754 39.5459 36.8453 40.1344 36.9762L40.3903 37.0286L40.5693 36.8453C40.919 36.4874 41.2005 36.112 41.4819 35.6319L41.806 35.0733L40.1856 34.6543C39.9127 34.5583 39.8188 34.244 39.8615 33.9996C40.305 31.8784 41.8571 30.0628 44.1257 29.0328L44.3389 28.9367L44.3901 28.7098C44.4413 28.5177 44.4583 28.2995 44.4839 28.09C44.501 27.9154 44.518 27.7496 44.5521 27.5925L44.6971 26.9902H44.0916C43.9296 26.9902 43.8102 27.0338 43.7334 27.06H43.6567L43.5202 27.1036C43.5202 27.1036 43.4434 27.1211 43.4008 27.1211C43.2046 27.1211 43.017 26.9552 42.9403 26.7196C42.275 24.677 42.71 22.3638 44.1342 20.3648L44.2792 20.164L44.2025 19.9284C44.1598 19.8062 44.1257 19.6578 44.0831 19.5181C44.0404 19.361 43.9978 19.2039 43.9552 19.0642L43.7164 18.3222L43.0085 19.0467C42.855 19.2039 42.6759 19.2911 42.5053 19.2911C42.3944 19.2911 42.3006 19.2562 42.2068 19.1864C39.9297 17.6326 38.8551 14.6211 39.4351 11.4874L39.4777 11.2517L39.3242 11.0771C38.6334 10.2828 37.8402 9.55825 36.9703 8.93849L36.8254 8.83374L36.6548 8.8512C36.4586 8.86866 36.2539 8.87739 36.0578 8.87739C32.1859 8.87739 28.6551 5.13262 28.3481 0.698264C28.3054 0.418934 28.5357 0.139605 28.7915 0.0872305C29.1412 0.0261271 29.4994 -0.00878906 29.8576 -0.00878906C33.6272 -0.00878906 36.9703 3.36062 37.482 7.66405L37.5076 7.87354L37.6782 7.99575C38.2325 8.39729 38.804 8.89484 39.2986 9.40113L39.7421 9.85504L40.0491 9.29638C40.4755 8.51076 40.8678 7.78625 41.4222 7.1403C41.5501 7.00937 41.7377 6.92208 41.9083 6.92208C42.0192 6.92208 42.113 6.95699 42.2068 7.02683C44.97 8.99086 45.8911 13.015 44.4157 16.6026L44.3389 16.7859L44.4072 16.9692C44.5692 17.3795 44.7312 17.877 44.8933 18.3746L45.1065 19.0293L45.6438 18.6365C46.7269 17.7636 47.9806 17.1787 49.4816 16.8383C49.5669 16.8121 49.6095 16.8034 49.6436 16.8034C49.8398 16.8034 50.0274 16.9692 50.1042 17.2049C51.1617 20.4434 49.3793 24.2929 45.9593 26.1696L45.7632 26.2744L45.7205 26.5013C45.6779 26.7283 45.6523 26.9902 45.6267 27.2433C45.6097 27.4615 45.5926 27.6798 45.55 27.8805L45.422 28.5265L46.0617 28.4566C46.5137 28.4043 46.9572 28.3781 47.3836 28.3781C48.4326 28.3781 49.4219 28.5439 50.3089 28.8582C50.5562 28.9455 50.7438 29.1986 50.9741 29.5129C51.0252 29.5827 51.0764 29.6525 51.1276 29.7224C50.4283 32.7077 47.3836 34.9685 43.8102 35.1344H43.5714C43.5714 35.1344 43.2473 35.6494 43.1535 35.8065C42.9147 36.1906 42.6674 36.5921 42.3774 36.9413L41.9936 37.4127L42.5309 37.6833C43.3326 38.0935 44.0575 38.5911 44.6971 39.1585C44.8848 39.3592 45.0127 39.6909 44.808 39.9528C43.5884 41.6201 41.7719 42.6239 39.6824 42.781H39.5118L35.6143 46.6131C35.5034 46.6829 35.3414 46.7353 35.1879 46.7353H31.0857L27.2649 47.8962L30.0879 48.7953C30.3352 48.8826 30.5484 49.2143 30.4461 49.5722C30.3778 49.7817 30.1305 49.9563 29.8661 49.9563C29.8064 49.9563 29.7467 49.9476 29.687 49.9301L25.1072 48.516L20.5189 49.9301C20.4507 49.9476 20.3739 49.965 20.2972 49.965L20.2801 49.9999ZM31.5548 43.6714C31.043 43.6714 30.5825 44.1515 30.5825 44.6665V45.6616H32.5355V44.6665C32.5355 44.1427 32.0665 43.6714 31.5548 43.6714ZM28.4504 43.5841C27.879 43.5841 27.3929 44.038 27.3929 44.5792V45.5743H29.4312V44.5792C29.4312 44.0555 28.9621 43.5841 28.4504 43.5841ZM25.2607 43.5841C24.7661 43.5841 24.3567 44.0205 24.2288 44.4308L24.2032 44.5006V45.5743H26.2415V44.5792C26.2415 44.0555 25.7725 43.5841 25.2607 43.5841ZM22.1564 43.5841C21.585 43.5841 21.0989 44.038 21.0989 44.5792V45.5743H23.1372V44.5792C23.1372 44.0555 22.6681 43.5841 22.1564 43.5841ZM17.9092 45.583H19.9475V44.5879C19.9475 44.0642 19.4784 43.5928 18.9667 43.5928C18.6256 43.5928 18.3015 43.811 18.1224 44.1078H17.9007V45.5918L17.9092 45.583ZM38.2922 38.0586C36.6974 38.0586 35.2391 38.5998 34.1901 39.5862L33.7466 40.0052L34.2498 40.3456C35.5546 41.236 37.0471 41.7248 38.4628 41.7248C38.5822 41.7248 38.7016 41.7248 38.821 41.7161C40.2367 41.6288 41.5842 41.0963 42.6247 40.2321L43.1108 39.8306L42.5991 39.464C41.3369 38.5649 39.8103 38.0673 38.3008 38.0673L38.2922 38.0586ZM12.3231 38.0935C10.8135 38.0935 9.28693 38.5823 8.04177 39.4552L7.55565 39.8044L7.99913 40.2147C8.9799 41.1312 10.2336 41.6201 11.8199 41.7161C13.4829 41.7161 15.0948 41.2272 16.3911 40.3456L16.9028 39.9964L16.4423 39.5775C15.3763 38.6173 13.9179 38.0935 12.3316 38.0935H12.3231ZM3.06114 29.6351C2.60061 29.6351 2.14007 29.6787 1.68806 29.7573L1.07401 29.862L1.34692 30.4381C2.39592 32.6553 4.86918 34.0869 7.64946 34.0869C8.10147 34.0869 8.55348 34.0432 8.99696 33.9647L9.59395 33.8599L9.34663 33.2925C8.37438 31.0666 5.90965 29.6263 3.06967 29.6263L3.06114 29.6351ZM47.4518 29.5478C46.2578 29.5478 45.1065 29.8096 44.1257 30.3159C42.7953 30.9532 41.7889 31.9483 41.2175 33.2052L40.9702 33.7552L41.5501 33.8774C42.0448 33.9821 42.565 34.0432 43.0767 34.0432C45.8144 34.0432 48.2194 32.5855 49.2087 30.3421L49.4645 29.766L48.859 29.6613C48.39 29.5827 47.9124 29.539 47.4433 29.539L47.4518 29.5478ZM48.5435 18.3484C47.3239 18.7936 46.1555 19.6054 45.2429 20.6267L45.1747 20.6965C44.0234 22.1892 43.5287 23.7691 43.6993 25.3055L43.7675 25.9078L44.3304 25.707C45.8911 25.1483 47.2216 24.1008 48.0915 22.7653C48.8761 21.6043 49.2769 20.1466 49.1746 18.7674L49.1319 18.1302L48.5435 18.3397V18.3484ZM1.37251 18.7587C1.10813 21.5956 3.18907 24.5809 6.21668 25.707L6.7625 25.9078L6.84778 25.3142C7.01835 24.0747 6.6431 22.6867 5.7732 21.2901C4.92888 19.9458 3.5558 18.8721 1.99509 18.3397L1.43221 18.1476L1.37251 18.7499V18.7587ZM8.21234 8.76391C6.21668 10.9898 6.08875 14.6036 7.91384 17.3533L8.23792 17.8508L8.63876 17.4144C10.5833 15.3282 10.7197 11.6358 8.94579 8.82501L8.61318 8.30127L8.20381 8.76391H8.21234ZM41.5842 8.82501C39.8103 11.6358 39.9468 15.3282 41.8913 17.4144L42.2921 17.8508L42.6162 17.3533C44.4413 14.5949 44.3219 10.9811 42.3177 8.76391L41.9083 8.30127L41.5757 8.82501H41.5842ZM29.6785 1.79812C30.0367 3.44792 30.8384 4.90567 32.0068 6.00553C33.0728 7.00937 34.3606 7.58549 35.7337 7.68151L36.3648 7.72515L36.2284 7.09666C35.8702 5.44687 35.0685 3.98912 33.9086 2.88926C32.8767 1.92033 31.5206 1.3093 30.1817 1.21328L29.5506 1.16963L29.687 1.80685L29.6785 1.79812ZM20.3654 1.21328C19.0264 1.3093 17.6619 1.92033 16.6385 2.88926C15.4786 3.98912 14.6684 5.43814 14.3102 7.09666L14.1823 7.70769L14.7878 7.69023C17.5937 7.60294 20.2034 5.07152 20.8601 1.80685L20.988 1.17836L20.3654 1.22201V1.21328Z" fill="black"/>
<path d="M25.2606 38.2593C17.4145 38.2593 11.0352 31.7299 11.0352 23.6992C11.0352 15.6685 17.4145 9.13916 25.2606 9.13916C33.1068 9.13916 39.4861 15.6685 39.4861 23.6992C39.4861 31.7299 33.1068 38.2593 25.2606 38.2593Z" fill="#097CBF"/>
<path d="M21.0562 30.7788C20.7321 30.7788 20.4336 30.4733 20.4336 30.1416C20.4336 29.8099 20.7321 29.5044 21.0562 29.5044H28.4418C28.6977 29.5044 29.0644 29.8274 29.0644 30.1416C29.0644 30.482 28.7744 30.7788 28.4418 30.7788H21.0562Z" fill="white"/>
<path d="M18.9585 27.6011C18.6259 27.6011 18.3359 27.3043 18.3359 26.9639C18.3359 26.6234 18.6259 26.3267 18.9585 26.3267H31.5551C31.8877 26.3267 32.1776 26.6234 32.1776 26.9639C32.1776 27.3043 31.8877 27.6011 31.5551 27.6011H18.9585Z" fill="white"/>
<path d="M16.8609 24.2491C16.5112 24.2491 16.2895 23.8999 16.2383 23.5508C16.2383 23.2802 16.5282 22.9834 16.8609 22.9834H33.6534C33.9775 22.9834 34.276 23.2889 34.276 23.6206C34.276 23.9523 33.9775 24.2578 33.6534 24.2578H16.8609V24.2491Z" fill="white"/>
</g>
<defs>
<clipPath id="clip0_37_2419">
<rect width="51.1111" height="50" fill="white"/>
</clipPath>
</defs>
</svg>
