<svg xmlns="http://www.w3.org/2000/svg" xmlns:xlink="http://www.w3.org/1999/xlink" width="123.831" height="43.911" viewBox="0 0 123.831 43.911">
  <defs>
    <clipPath id="clip-path">
      <rect id="사각형_12" data-name="사각형 12" width="123.831" height="43.911" transform="translate(0 32)" fill="none"/>
    </clipPath>
  </defs>
  <g id="logo_w" transform="translate(0 -32)">
    <g id="그룹_1" data-name="그룹 1" transform="translate(0 0)" clip-path="url(#clip-path)">
      <path id="패스_1" data-name="패스 1" d="M92.268,25.67a2.891,2.891,0,0,1-2.722-3.854L94.58,7.631,79.434,12.99a2.888,2.888,0,0,1-1.926-5.445L98.364.165a2.888,2.888,0,0,1,3.685,3.688L94.989,23.747a2.889,2.889,0,0,1-2.722,1.923" transform="translate(19.93 35)" fill="#e60019"/>
      <rect id="사각형_10" data-name="사각형 10" width="3.215" height="10.967" transform="translate(92.297 51.619)" fill="#fff"/>
      <rect id="사각형_11" data-name="사각형 11" width="3.215" height="6.287" transform="translate(92.297 65.091)" fill="#fff"/>
      <path id="패스_2" data-name="패스 2" d="M4.254,66.038h0s0,.045,0,.113v.264l.014.01c.065.886.428,2.992,2.445,2.992H19.57V67.573h-.024v-6.1h.024V59.631H4.254Zm3.214-4.563h8.863v6.1H7.468Zm12.1-15.835H3.308v1.844H16.356v7.7H0v1.844H24.392V55.187H19.57ZM95.085,58.994h-15.6v1.844h15.6ZM68,61.026h3.215v-15.5H68V51.9H63.131v1.844H68ZM95.181,50.012H88.75v1.844h6.43ZM39.737,61.283a6.866,6.866,0,0,0,5.693-6.545,6.461,6.461,0,0,0-2.369-4.94h4.713V47.956H39.737V45.332H36.523v2.624H28.487V49.8H33.2a6.458,6.458,0,0,0-2.369,4.94,6.865,6.865,0,0,0,5.692,6.545v3.335h-10.8v1.844H50.539V64.619h-10.8Zm-5.673-6.544a4.07,4.07,0,1,1,4.066,3.875,3.975,3.975,0,0,1-4.066-3.875M58.816,67.967,58.789,60.1l-3.214.011.02,6.335v.377l.015.011c.067.885.437,2.991,2.454,2.983l13.614-.043-.006-1.844Zm36.777-.041-12.862.041-.014-2.687H95.275V63.436H79.51v.074h-.016l.023,3.308.015.011c.067.886.437,2.991,2.454,2.983L95.6,69.769Zm-33.031-21.7H52.447v1.844h6.914c-.28,5.063-7.835,9.36-7.835,9.36l.851,1.229c10.588-4.538,10.186-12.433,10.186-12.433M81.4,48.736c1.04.661,4.349,4.349,4.065,7.847h2.742s-1.7-7.658-6.334-10.4c0,0-1.892-.851-2.648.284s-3.5,10.021-3.5,10.021h2.553s2.08-8.413,3.12-7.752" transform="translate(0 6.098)" fill="#fff"/>
    </g>
  </g>
</svg>
