<?xml version="1.0" encoding="UTF-8"?>
<svg id="Layer_1" data-name="Layer 1" xmlns="http://www.w3.org/2000/svg" viewBox="0 0 16 16">
  <defs>
    <style>
      .cls-1 {
        fill: #0084a4;
      }
    </style>
  </defs>
  <path class="cls-1" d="m13.69,8c-.56-1.91-1.78-2.43-1.78-2.43,0,0,1.03-1.28.58-2.75-.45-1.47-1.48-2.62-3.33-2.69-1.84-.06-3.5,1.69-3.47,2.97l.03,1.28s-2.12.91-3.03,2.31c-.91,1.41-1,5.5.16,5.66,1.16.16,1.81-1.09,1.87-2.41s-.31-2.37-.22-2.69c.09-.31.31-.19.72.19s.91.94,1.59.84c.69-.09,1.53.25,1.97.41.44.16,2.81.22,3.09.37,0,0-1.09.41-.78,1.03.31.62,1.84.12,1.84.12,0,0,.07,1.41-.95,1.78s-2.21.97-3.96.84c-1.75-.12-2.87,2.81-.91,3s4.09-1.06,5.36-2c1.66-1.22,1.77-3.94,1.2-5.85Zm-6.92.1s-.08-1.35.38-1.7c.46-.35.52.27.69.6s.6,1.13.81,1.24c0,0-1.39-.28-1.88-.14Z"/>
  <path class="cls-1" d="m7.92,9.77c0-.25-.12-.45-.27-.45s-.27.2-.27.45.12.45.27.45.27-.2.27-.45Z"/>
</svg>