<svg width="72" height="36" viewBox="0 0 72 36" fill="none" xmlns="http://www.w3.org/2000/svg">
<path d="M18.7779 33.8303C17.1879 32.4903 16.1779 30.4803 16.1779 28.2403V12.8903C14.7579 10.5003 13.0979 8.78027 10.7179 8.78027C8.12792 8.78027 5.37792 12.7303 4.00792 16.5703C2.64792 20.4103 -1.62208 29.7003 0.657918 33.2203C2.56792 36.1503 13.6379 35.4603 18.7679 33.8303H18.7779Z" fill="#35763C"/>
<path d="M54.5179 24.15C54.5179 28.11 52.5479 31.6 49.5379 33.72C54.1379 36.79 68.3979 34.7 71.0479 31.97C72.4579 30.52 71.2079 19.5 68.7679 13.06C66.3279 6.63 64.0979 0 59.6079 0C56.7279 0 53.6679 5.26 52.1479 10.38C51.7679 11.67 51.1779 13.42 50.5579 15.38C52.9879 17.53 54.5179 20.65 54.5179 24.14V24.15Z" fill="#648943"/>
<path d="M21.0079 32.78C20.5779 33.15 19.7879 33.51 18.7779 33.83C20.0479 34.91 21.6979 35.56 23.4979 35.56H29.3479C31.6079 35.56 33.5779 34.34 34.6479 32.52C32.4679 30.39 31.1079 27.43 31.1079 24.14C31.1079 20.44 32.8279 17.15 35.4979 15.01V7.16996C35.4979 4.01996 32.9379 1.45996 29.7879 1.45996H24.6679C19.9779 1.45996 16.1779 5.25996 16.1779 9.94996V12.89C17.1779 14.57 18.0479 16.59 18.9579 18.58C21.1579 23.41 22.2679 31.69 21.0079 32.78Z" fill="#A4BC49"/>
<path d="M18.7779 33.8301C19.7879 33.5101 20.5779 33.1501 21.0079 32.7801C22.2679 31.6901 21.1579 23.4101 18.9579 18.5801C18.0479 16.5801 17.1779 14.5701 16.1779 12.8901V28.2401C16.1779 30.4801 17.1879 32.4901 18.7779 33.8301Z" fill="#245F2E"/>
<path d="M34.6479 32.5199C36.7579 34.5799 39.638 35.8499 42.818 35.8499C45.328 35.8499 47.648 35.0499 49.548 33.7099C49.058 33.3799 48.6679 32.9999 48.4279 32.5499C46.5279 29.0499 48.7079 21.2399 50.5579 15.3799C48.4979 13.5499 45.788 12.4399 42.818 12.4399C40.048 12.4399 37.508 13.4099 35.498 15.0199V29.4199C35.498 30.5599 35.1879 31.6199 34.6479 32.5299V32.5199Z" fill="#68AC45"/>
<path d="M18.7779 33.8298C17.1879 32.4898 16.1779 30.4798 16.1779 28.2398V12.8898C14.7579 10.4998 13.0979 8.77979 10.7179 8.77979C8.12795 8.77979 5.37795 12.7298 4.00795 16.5698C2.64795 20.4098 -1.62205 29.6998 0.657949 33.2198C2.56795 36.1498 13.6379 35.4598 18.7679 33.8298H18.7779Z" fill="#35763C"/>
<path d="M54.5179 24.15C54.5179 28.11 52.5479 31.6 49.5379 33.72C54.1379 36.79 68.3979 34.7 71.0479 31.97C72.4579 30.52 71.2079 19.5 68.7679 13.06C66.3279 6.63 64.0979 0 59.6079 0C56.7279 0 53.6679 5.26 52.1479 10.38C51.7679 11.67 51.1779 13.42 50.5579 15.38C52.9879 17.53 54.5179 20.65 54.5179 24.14V24.15Z" fill="#648943"/>
<path d="M21.0079 32.78C20.5779 33.15 19.7879 33.51 18.7779 33.83C20.0479 34.91 21.6979 35.56 23.4979 35.56H29.3479C31.6079 35.56 33.5779 34.34 34.6479 32.52C32.4679 30.39 31.1079 27.43 31.1079 24.14C31.1079 20.44 32.8279 17.15 35.4979 15.01V7.16996C35.4979 4.01996 32.9379 1.45996 29.7879 1.45996H24.6679C19.9779 1.45996 16.1779 5.25996 16.1779 9.94996V12.89C17.1779 14.57 18.0479 16.59 18.9579 18.58C21.1579 23.41 22.2679 31.69 21.0079 32.78Z" fill="#A4BC49"/>
<path d="M34.6479 32.5199C36.7579 34.5799 39.638 35.8499 42.818 35.8499C45.328 35.8499 47.648 35.0499 49.548 33.7099C49.058 33.3799 48.6679 32.9999 48.4279 32.5499C46.5279 29.0499 48.7079 21.2399 50.5579 15.3799C48.4979 13.5499 45.788 12.4399 42.818 12.4399C40.048 12.4399 37.508 13.4099 35.498 15.0199V29.4199C35.498 30.5599 35.1879 31.6199 34.6479 32.5299V32.5199Z" fill="#68AC45"/>
<path d="M48.4279 32.5499C48.6679 32.9999 49.0579 33.3899 49.5479 33.7099C52.5579 31.5899 54.5279 28.0999 54.5279 24.1399C54.5279 20.6499 52.9879 17.5199 50.5679 15.3799C48.7179 21.2299 46.5379 29.0499 48.4379 32.5499H48.4279Z" fill="#35763C"/>
<path d="M31.1079 24.15C31.1079 27.44 32.4679 30.4 34.6479 32.53C35.1879 31.62 35.4979 30.56 35.4979 29.42V15.02C32.8279 17.17 31.1079 20.46 31.1079 24.15Z" fill="#458C39"/>
</svg>
