<svg width="156" height="36" viewBox="0 0 156 36" fill="none" xmlns="http://www.w3.org/2000/svg">
<g clip-path="url(#clip0_27_234)">
<path d="M18.77 33.8298C17.18 32.4898 16.17 30.4798 16.17 28.2398V12.8898C14.75 10.4998 13.09 8.77979 10.71 8.77979C8.11998 8.77979 5.36998 12.7298 3.99998 16.5698C2.63998 20.4098 -1.63002 29.6998 0.649984 33.2198C2.55998 36.1498 13.63 35.4598 18.76 33.8298H18.77Z" fill="#35763C"/>
<path d="M54.51 24.15C54.51 28.11 52.54 31.6 49.53 33.72C54.13 36.79 68.39 34.7 71.04 31.97C72.45 30.52 71.2 19.5 68.76 13.06C66.32 6.63 64.09 0 59.6 0C56.72 0 53.66 5.26 52.14 10.38C51.76 11.67 51.17 13.42 50.55 15.38C52.98 17.53 54.51 20.65 54.51 24.14V24.15Z" fill="#648943"/>
<path d="M21 32.78C20.57 33.15 19.78 33.51 18.77 33.83C20.04 34.91 21.69 35.56 23.49 35.56H29.34C31.6 35.56 33.57 34.34 34.64 32.52C32.46 30.39 31.1 27.43 31.1 24.14C31.1 20.44 32.82 17.15 35.49 15.01V7.16996C35.49 4.01996 32.93 1.45996 29.78 1.45996H24.66C19.97 1.45996 16.17 5.25996 16.17 9.94996V12.89C17.17 14.57 18.04 16.59 18.95 18.58C21.15 23.41 22.26 31.69 21 32.78Z" fill="#A4BC49"/>
<path d="M18.77 33.8301C19.78 33.5101 20.57 33.1501 21 32.7801C22.26 31.6901 21.15 23.4101 18.95 18.5801C18.04 16.5801 17.17 14.5701 16.17 12.8901V28.2401C16.17 30.4801 17.18 32.4901 18.77 33.8301Z" fill="#245F2E"/>
<path d="M34.64 32.5199C36.75 34.5799 39.63 35.8499 42.81 35.8499C45.32 35.8499 47.64 35.0499 49.54 33.7099C49.05 33.3799 48.66 32.9999 48.42 32.5499C46.52 29.0499 48.7 21.2399 50.55 15.3799C48.49 13.5499 45.78 12.4399 42.81 12.4399C40.04 12.4399 37.5 13.4099 35.49 15.0199V29.4199C35.49 30.5599 35.18 31.6199 34.64 32.5299V32.5199Z" fill="#68AC45"/>
<path d="M48.42 32.5499C48.66 32.9999 49.05 33.3899 49.54 33.7099C52.55 31.5899 54.52 28.0999 54.52 24.1399C54.52 20.6499 52.98 17.5199 50.56 15.3799C48.71 21.2299 46.53 29.0499 48.43 32.5499H48.42Z" fill="#35763C"/>
<path d="M31.1 24.15C31.1 27.44 32.46 30.4 34.64 32.53C35.18 31.62 35.49 30.56 35.49 29.42V15.02C32.82 17.17 31.1 20.46 31.1 24.15Z" fill="#458C39"/>
<path d="M90.15 9.91988H92.67V15.7399H94.87V2.37988H92.67V8.02988H90.15V2.77988H88.01V15.0599H90.15V9.91988Z" fill="#5F4622"/>
<path d="M81.13 17.9802C80.54 18.5802 80.25 19.2802 80.25 20.1002C80.25 20.9202 80.54 21.6202 81.13 22.2002C81.72 22.7902 82.57 23.2402 83.68 23.5602C84.79 23.8802 86.1 24.0402 87.61 24.0402C89.12 24.0402 90.4 23.8802 91.52 23.5602C92.64 23.2402 93.49 22.7902 94.09 22.2002C94.69 21.6202 94.99 20.9102 94.99 20.1002C94.99 19.2902 94.69 18.5802 94.09 17.9802C93.49 17.3802 92.63 16.9302 91.52 16.6202C90.41 16.3102 89.11 16.1602 87.61 16.1602C86.11 16.1602 84.79 16.3102 83.68 16.6202C82.57 16.9302 81.72 17.3802 81.13 17.9802ZM87.61 17.9002C88.64 17.9002 89.54 17.9802 90.31 18.1502C91.08 18.3302 91.66 18.5802 92.07 18.9102C92.47 19.2402 92.68 19.6302 92.69 20.0802C92.69 20.5402 92.48 20.9302 92.07 21.2502C91.67 21.5702 91.08 21.8202 90.32 21.9902C89.56 22.1602 88.65 22.2402 87.61 22.2402C86.57 22.2402 85.64 22.1602 84.88 21.9902C84.12 21.8202 83.54 21.5702 83.14 21.2502C82.74 20.9302 82.54 20.5402 82.55 20.0802C82.55 19.6302 82.74 19.2402 83.14 18.9102C83.54 18.5802 84.12 18.3302 84.88 18.1502C85.64 17.9702 86.55 17.8902 87.61 17.9002Z" fill="#5F4622"/>
<path d="M80.27 12.7802C80.98 11.9802 81.52 11.0802 81.91 10.0902C82.28 10.9302 82.77 11.6802 83.41 12.3502C84.15 13.1202 85.05 13.7102 86.12 14.1202L87.33 12.3602C86.42 12.0102 85.64 11.5302 84.99 10.9202C84.34 10.3102 83.85 9.6202 83.51 8.8702C83.17 8.1202 83 7.3302 82.99 6.5102V3.7002H80.79V6.5102C80.79 7.3402 80.61 8.1702 80.26 9.0002C79.92 9.8302 79.4 10.5902 78.72 11.3002C78.04 12.0102 77.22 12.5602 76.28 12.9702L77.53 14.7502C78.6 14.3002 79.51 13.6402 80.28 12.7802H80.27Z" fill="#5F4622"/>
<path d="M107.38 11.9801H112.1V15.1701H114.4V2.3501H112.1V5.7701H107.38V3.9901H97.29V13.7401H107.38V11.9801ZM112.1 7.6301V10.0601H107.38V7.6301H112.1ZM105.11 11.8801H99.57V5.8401H105.11V11.8801Z" fill="#5F4622"/>
<path d="M111.05 16.27C109.95 15.95 108.64 15.79 107.13 15.79C105.62 15.79 104.32 15.95 103.22 16.27C102.12 16.59 101.28 17.07 100.69 17.69C100.1 18.31 99.8101 19.06 99.8101 19.93C99.8101 20.8 100.1 21.53 100.69 22.15C101.28 22.76 102.12 23.23 103.22 23.55C104.32 23.87 105.62 24.03 107.13 24.03C108.64 24.03 109.96 23.87 111.05 23.55C112.15 23.23 112.99 22.76 113.59 22.15C114.18 21.54 114.48 20.8 114.48 19.93C114.48 19.06 114.18 18.31 113.59 17.69C113 17.07 112.15 16.6 111.05 16.27ZM111.59 21.17C111.19 21.52 110.61 21.78 109.85 21.96C109.09 22.14 108.18 22.23 107.12 22.23C106.06 22.23 105.16 22.14 104.4 21.96C103.64 21.78 103.07 21.51 102.67 21.17C102.27 20.83 102.07 20.41 102.07 19.92C102.07 19.43 102.27 18.99 102.67 18.64C103.07 18.29 103.65 18.02 104.4 17.83C105.15 17.64 106.06 17.55 107.12 17.55C108.19 17.55 109.1 17.65 109.85 17.83C110.6 18.01 111.18 18.28 111.58 18.64C111.98 19 112.18 19.42 112.18 19.92C112.18 20.42 111.98 20.82 111.58 21.17H111.59Z" fill="#5F4622"/>
<path d="M134.2 2.3501H131.91V24.1101H134.2V2.3501Z" fill="#5F4622"/>
<path d="M120.28 13.5999C121.18 14.0399 122.2 14.2599 123.34 14.2599C124.48 14.2599 125.47 14.0399 126.37 13.5999C127.27 13.1599 127.97 12.5499 128.47 11.7599C128.97 10.9699 129.23 10.0799 129.23 9.0799C129.23 8.0799 128.98 7.1799 128.47 6.3999C127.97 5.6099 127.26 4.9999 126.37 4.5599C125.47 4.1199 124.46 3.8999 123.34 3.8999C122.22 3.8999 121.18 4.1199 120.28 4.5599C119.38 4.9999 118.68 5.6099 118.17 6.3999C117.67 7.1899 117.41 8.0799 117.41 9.0799C117.41 10.0799 117.66 10.9799 118.17 11.7599C118.67 12.5499 119.38 13.1599 120.28 13.5999ZM120.16 7.4099C120.47 6.9199 120.91 6.5499 121.46 6.2899C122.01 6.0299 122.64 5.8999 123.34 5.8999C124.04 5.8999 124.66 6.0299 125.22 6.2899C125.78 6.5499 126.21 6.9199 126.52 7.4099C126.83 7.8999 126.99 8.4499 126.99 9.0799C126.99 9.7099 126.83 10.2599 126.52 10.7399C126.21 11.2199 125.77 11.5899 125.22 11.8499C124.66 12.1199 124.04 12.2499 123.34 12.2499C122.64 12.2499 122.01 12.1199 121.46 11.8499C120.91 11.5799 120.47 11.2099 120.16 10.7399C119.84 10.2599 119.69 9.7099 119.69 9.0799C119.69 8.4499 119.85 7.8999 120.16 7.4099Z" fill="#5F4622"/>
<path d="M121.4 19.3798C122.83 19.3398 124.36 19.2498 126 19.1098C127.64 18.9698 129.21 18.7598 130.72 18.4798L130.55 16.7998C128.45 17.1098 126.23 17.2998 123.89 17.3898C121.55 17.4798 119.04 17.5198 116.37 17.5198L116.67 19.4298C118.4 19.4298 119.98 19.4098 121.41 19.3698L121.4 19.3798Z" fill="#5F4622"/>
<path d="M142.55 9.42982C143.88 8.74982 144.94 7.89982 145.73 6.86982C145.88 6.67982 145.99 6.47982 146.11 6.28982C146.23 6.47982 146.34 6.66982 146.48 6.84982C147.27 7.86982 148.33 8.72982 149.66 9.41982C150.99 10.1098 152.47 10.5698 154.08 10.7898L154.92 8.99982C153.54 8.81982 152.27 8.45982 151.1 7.89982C149.93 7.33982 149.01 6.67982 148.32 5.90982C147.63 5.12982 147.29 4.32982 147.29 3.48982V2.56982H144.93V3.48982C144.93 4.34982 144.59 5.15982 143.91 5.92982C143.23 6.69982 142.3 7.35982 141.12 7.90982C139.95 8.45982 138.67 8.81982 137.29 8.99982L138.15 10.7898C139.76 10.5598 141.23 10.1098 142.56 9.42982H142.55Z" fill="#5F4622"/>
<path d="M136.2 12.27V14.12H144.94V16.37H138.38V18.21H141.6V21.86H138.2V23.73H154.02V21.86H150.63V18.21H153.84V16.37H147.22V14.12H156V12.27H136.21H136.2ZM148.38 21.86H143.89V18.21H148.38V21.86Z" fill="#5F4622"/>
<path d="M83.42 28.6901V27.8701H78.98V35.2401H79.9V31.9501H83.08V31.1501H79.9V28.6901H83.42Z" fill="#5F4622"/>
<path d="M89.0099 28.23C88.5199 27.92 87.9599 27.77 87.3299 27.77C86.6999 27.77 86.1399 27.92 85.6499 28.23C85.1599 28.54 84.7699 28.98 84.4899 29.55C84.2099 30.12 84.0699 30.79 84.0699 31.55C84.0699 32.31 84.2099 32.98 84.4899 33.55C84.7699 34.12 85.1499 34.56 85.6499 34.87C86.1399 35.18 86.6999 35.33 87.3299 35.33C87.9599 35.33 88.5199 35.18 89.0099 34.87C89.4999 34.56 89.8899 34.12 90.1699 33.55C90.4499 32.98 90.5899 32.31 90.5899 31.55C90.5899 30.79 90.4499 30.12 90.1699 29.55C89.8899 28.98 89.5099 28.54 89.0099 28.23ZM89.3899 33.13C89.1799 33.57 88.8999 33.9 88.5399 34.13C88.1799 34.36 87.7799 34.48 87.3299 34.48C86.8799 34.48 86.4699 34.36 86.1199 34.13C85.7599 33.9 85.4799 33.57 85.2699 33.13C85.0599 32.69 84.9599 32.16 84.9599 31.55C84.9599 30.94 85.0599 30.4 85.2699 29.96C85.4799 29.52 85.7599 29.19 86.1199 28.96C86.4799 28.73 86.8799 28.62 87.3299 28.62C87.7799 28.62 88.1799 28.73 88.5399 28.96C88.8999 29.19 89.1799 29.52 89.3899 29.96C89.5999 30.4 89.6999 30.93 89.6999 31.55C89.6999 32.17 89.5999 32.69 89.3899 33.13Z" fill="#5F4622"/>
<path d="M95.42 32.0901C95.8 31.9001 96.07 31.6401 96.25 31.3001C96.43 30.9701 96.52 30.5801 96.52 30.1301C96.52 29.6801 96.43 29.2901 96.25 28.9401C96.07 28.6001 95.79 28.3301 95.41 28.1401C95.04 27.9501 94.57 27.8501 94.01 27.8501H91.51V35.2101H92.43V32.3501H94.03C94.09 32.3501 94.14 32.3401 94.2 32.3301L95.75 35.2001H96.82L95.15 32.1501C95.24 32.1201 95.35 32.1001 95.43 32.0601L95.42 32.0901ZM92.43 28.6901H93.98C94.36 28.6901 94.68 28.7501 94.92 28.8601C95.16 28.9701 95.34 29.1401 95.45 29.3601C95.56 29.5801 95.62 29.8401 95.62 30.1401C95.62 30.4401 95.56 30.6901 95.45 30.9001C95.34 31.1101 95.16 31.2701 94.92 31.3801C94.68 31.4901 94.37 31.5501 93.98 31.5501H92.42V28.6901H92.43Z" fill="#5F4622"/>
<path d="M101.9 28.6901V27.8701H97.4301V35.2401H101.95V34.4201H98.3501V31.9501H101.67V31.1501H98.3501V28.6901H101.9Z" fill="#5F4622"/>
<path d="M106.18 34.3698C105.91 34.4798 105.6 34.5298 105.26 34.5298C104.96 34.5298 104.69 34.4898 104.44 34.3998C104.19 34.3098 103.98 34.1698 103.82 33.9898C103.66 33.8098 103.57 33.5798 103.54 33.3198H102.6C102.63 33.7298 102.76 34.0798 102.98 34.3898C103.2 34.6998 103.51 34.9298 103.89 35.1098C104.28 35.2798 104.73 35.3698 105.25 35.3698C105.81 35.3698 106.29 35.2798 106.69 35.0898C107.09 34.8998 107.4 34.6498 107.61 34.3198C107.82 33.9998 107.93 33.6298 107.93 33.2298C107.93 32.6198 107.72 32.1698 107.31 31.8698C106.9 31.5698 106.41 31.3398 105.84 31.1998L105.11 30.9998C104.72 30.8998 104.39 30.7698 104.11 30.5898C103.83 30.4098 103.69 30.1498 103.69 29.7998C103.69 29.5698 103.76 29.3598 103.89 29.1698C104.03 28.9898 104.22 28.8398 104.46 28.7398C104.7 28.6398 104.99 28.5898 105.3 28.5898C105.59 28.5898 105.86 28.6298 106.1 28.7198C106.34 28.8098 106.53 28.9398 106.68 29.1098C106.82 29.2798 106.91 29.4898 106.93 29.7298H107.83C107.83 29.3598 107.71 29.0298 107.49 28.7298C107.27 28.4298 106.98 28.1998 106.6 28.0298C106.22 27.8598 105.8 27.7798 105.33 27.7798C104.86 27.7798 104.42 27.8598 104.04 28.0298C103.66 28.1998 103.35 28.4398 103.13 28.7598C102.91 29.0798 102.8 29.4398 102.8 29.8398C102.8 30.3198 102.96 30.7198 103.28 31.0298C103.6 31.3398 104.07 31.5898 104.67 31.7598L105.58 31.9998C105.88 32.0798 106.14 32.1698 106.35 32.2698C106.56 32.3598 106.73 32.4898 106.85 32.6398C106.97 32.7898 107.04 32.9898 107.04 33.2098C107.04 33.4698 106.96 33.6998 106.81 33.8998C106.66 34.0998 106.45 34.2598 106.17 34.3698H106.18Z" fill="#5F4622"/>
<path d="M111.68 35.2401V28.6901H113.99V27.8701H108.43V28.6901H110.75V35.2401H111.68Z" fill="#5F4622"/>
<path d="M121.42 28.6901V27.8701H116.99V35.2401H117.9V31.9501H121.09V31.1501H117.9V28.6901H121.42Z" fill="#5F4622"/>
<path d="M123.66 34.8798C124.15 35.1898 124.71 35.3398 125.34 35.3398C125.97 35.3398 126.53 35.1898 127.02 34.8798C127.51 34.5698 127.9 34.1298 128.18 33.5598C128.46 32.9898 128.6 32.3198 128.6 31.5598C128.6 30.7998 128.46 30.1298 128.18 29.5598C127.9 28.9898 127.52 28.5498 127.02 28.2398C126.53 27.9298 125.97 27.7798 125.34 27.7798C124.71 27.7798 124.15 27.9298 123.66 28.2398C123.17 28.5498 122.78 28.9898 122.51 29.5598C122.24 30.1298 122.09 30.7998 122.09 31.5598C122.09 32.3198 122.23 32.9898 122.51 33.5598C122.79 34.1298 123.17 34.5698 123.66 34.8798ZM123.28 29.9698C123.49 29.5298 123.77 29.1998 124.13 28.9698C124.49 28.7398 124.89 28.6298 125.34 28.6298C125.79 28.6298 126.2 28.7398 126.55 28.9698C126.91 29.1998 127.19 29.5298 127.4 29.9698C127.61 30.4098 127.71 30.9398 127.71 31.5598C127.71 32.1798 127.61 32.6998 127.4 33.1398C127.19 33.5798 126.91 33.9098 126.55 34.1398C126.19 34.3698 125.79 34.4898 125.34 34.4898C124.89 34.4898 124.48 34.3698 124.13 34.1398C123.78 33.9098 123.49 33.5798 123.28 33.1398C123.07 32.6998 122.97 32.1698 122.97 31.5598C122.97 30.9498 123.07 30.4098 123.28 29.9698Z" fill="#5F4622"/>
<path d="M133.43 32.0901C133.81 31.9001 134.08 31.6401 134.26 31.3001C134.44 30.9701 134.53 30.5801 134.53 30.1301C134.53 29.6801 134.44 29.2901 134.26 28.9401C134.08 28.6001 133.8 28.3301 133.42 28.1401C133.04 27.9501 132.58 27.8501 132.02 27.8501H129.52V35.2101H130.44V32.3501H132.04C132.1 32.3501 132.15 32.3401 132.21 32.3301L133.76 35.2001H134.83L133.16 32.1501C133.25 32.1201 133.36 32.1001 133.44 32.0501L133.43 32.0901ZM130.44 28.6901H131.99C132.37 28.6901 132.69 28.7501 132.93 28.8601C133.18 28.9801 133.35 29.1401 133.46 29.3601C133.57 29.5801 133.63 29.8401 133.63 30.1401C133.63 30.4401 133.57 30.6901 133.46 30.9001C133.35 31.1101 133.17 31.2701 132.93 31.3801C132.69 31.4901 132.37 31.5501 131.99 31.5501H130.43V28.6901H130.44Z" fill="#5F4622"/>
<path d="M137.64 27.8701V35.2401H141.97V34.4201H138.55V27.8701H137.64Z" fill="#5F4622"/>
<path d="M143.7 27.8701H142.78V35.2301H143.7V27.8701Z" fill="#5F4622"/>
<path d="M149.34 28.6901V27.8701H144.9V35.2401H145.82V31.9501H149V31.1501H145.82V28.6901H149.34Z" fill="#5F4622"/>
<path d="M154.75 28.6901V27.8701H150.28V35.2401H154.8V34.4201H151.2V31.9501H154.51V31.1501H151.2V28.6901H154.75Z" fill="#5F4622"/>
</g>
<defs>
<clipPath id="clip0_27_234">
<rect width="155.99" height="35.85" fill="white"/>
</clipPath>
</defs>
</svg>
