<svg xmlns="http://www.w3.org/2000/svg" xmlns:xlink="http://www.w3.org/1999/xlink" width="178.357" height="54.32" viewBox="0 0 178.357 54.32">
  <defs>
    <clipPath id="clip-path">
      <rect id="사각형_159" data-name="사각형 159" width="178.357" height="54.32" fill="none"/>
    </clipPath>
  </defs>
  <g id="그룹_139" data-name="그룹 139" transform="translate(0 0)">
    <path id="패스_185" data-name="패스 185" d="M108.69,35.317,103.046,48.1h3.69l1-2.5h5.407l1,2.5h3.762l-5.661-12.785Zm.113,7.634,1.641-4.088,1.64,4.088Z" transform="translate(-52.527 -18.003)" fill="#fff"/>
    <path id="패스_186" data-name="패스 186" d="M138.983,41.288l5.644,6.814H147.6V35.316H144.06v6.809l-5.625-6.809h-2.977V48.1h3.525Z" transform="translate(-69.049 -18.002)" fill="#fff"/>
    <rect id="사각형_157" data-name="사각형 157" width="3.616" height="12.785" transform="translate(81.13 17.314)" fill="#fff"/>
    <path id="패스_187" data-name="패스 187" d="M181.438,41.508l3.269,5.333h1.608l3.292-5.523.033,6.783h3.323l-.018-12.785h-2.977L185.576,42.7l-4.485-7.386h-2.977V48.1h3.324Z" transform="translate(-90.792 -18.002)" fill="#fff"/>
    <path id="패스_188" data-name="패스 188" d="M215.219,45.6h5.407l1,2.5h3.762l-5.661-12.785h-3.562L210.525,48.1h3.69Zm1.063-2.648,1.64-4.088,1.64,4.088Z" transform="translate(-107.314 -18.003)" fill="#fff"/>
    <path id="패스_189" data-name="패스 189" d="M252.634,45.234h-6.082V35.316h-3.616V48.1h9.7Z" transform="translate(-123.835 -18.002)" fill="#fff"/>
    <g id="그룹_140" data-name="그룹 140" transform="translate(0 0)">
      <g id="그룹_139-2" data-name="그룹 139" clip-path="url(#clip-path)">
        <path id="패스_190" data-name="패스 190" d="M115.072,71.883a7.453,7.453,0,0,0-3.032-.566h-5.826V84.1h3.616V80.759h2.21a7.345,7.345,0,0,0,3.032-.575,4.46,4.46,0,0,0,1.963-1.626,4.983,4.983,0,0,0,0-5.041,4.358,4.358,0,0,0-1.963-1.635m-1.553,5.525a2.559,2.559,0,0,1-1.7.484h-1.99V74.166h1.99a2.494,2.494,0,0,1,1.7.5,1.94,1.94,0,0,1,0,2.74" transform="translate(-54.142 -36.353)" fill="#fff"/>
        <path id="패스_191" data-name="패스 191" d="M144.491,78.549a4.481,4.481,0,0,0,.685-2.52,4.55,4.55,0,0,0-.685-2.512,4.355,4.355,0,0,0-1.963-1.635,7.442,7.442,0,0,0-3.032-.566H133.67V84.1h3.617V80.7h1.956l2.318,3.4h3.872l-2.763-4.026a4.313,4.313,0,0,0,1.822-1.526m-3.516-3.881a1.952,1.952,0,0,1,0,2.749,2.526,2.526,0,0,1-1.7.493h-1.99V74.165h1.99a2.5,2.5,0,0,1,1.7.5" transform="translate(-68.137 -36.353)" fill="#fff"/>
        <path id="패스_192" data-name="패스 192" d="M172.041,72.676a6.712,6.712,0,0,0-2.246-1.388,8.37,8.37,0,0,0-5.661,0A6.582,6.582,0,0,0,160.4,74.8a6.368,6.368,0,0,0-.539,2.63,6.475,6.475,0,0,0,.539,2.657,6.541,6.541,0,0,0,3.744,3.516,8.345,8.345,0,0,0,5.653,0,6.817,6.817,0,0,0,2.256-1.388,6.29,6.29,0,0,0,1.488-2.11,6.621,6.621,0,0,0,.529-2.675,6.429,6.429,0,0,0-.538-2.648,6.507,6.507,0,0,0-1.489-2.1m-1.89,6.274a3.5,3.5,0,0,1-.73,1.151,3.128,3.128,0,0,1-1.1.74,3.751,3.751,0,0,1-2.721,0,3.222,3.222,0,0,1-1.105-.74,3.309,3.309,0,0,1-.731-1.151,4.572,4.572,0,0,1,0-3.014,3.318,3.318,0,0,1,.731-1.151,3.242,3.242,0,0,1,1.105-.739,3.744,3.744,0,0,1,2.721,0,3.147,3.147,0,0,1,1.1.739,3.5,3.5,0,0,1,.73,1.151,4.42,4.42,0,0,1,0,3.014" transform="translate(-81.487 -36.087)" fill="#fff"/>
        <path id="패스_193" data-name="패스 193" d="M190.258,74.184h3.927V84.1H197.8V74.184h3.908V71.317H190.258Z" transform="translate(-96.983 -36.353)" fill="#fff"/>
        <path id="패스_194" data-name="패스 194" d="M219.973,78.951h5.68V76.266h-5.68V74.129h6.447V71.317H216.411V84.1h10.246V81.289h-6.685Z" transform="translate(-110.314 -36.353)" fill="#fff"/>
        <path id="패스_195" data-name="패스 195" d="M244.716,74.786a3.089,3.089,0,0,1,1.123-.74,3.958,3.958,0,0,1,1.443-.256,3.551,3.551,0,0,1,1.644.384,4.5,4.5,0,0,1,1.37,1.114l2.3-2.082a5.938,5.938,0,0,0-2.329-1.8,8.416,8.416,0,0,0-5.963-.128,6.713,6.713,0,0,0-2.229,1.37,6.241,6.241,0,0,0-1.479,2.11,7.072,7.072,0,0,0,0,5.37,6.241,6.241,0,0,0,1.479,2.11,6.7,6.7,0,0,0,2.229,1.37,7.839,7.839,0,0,0,2.794.484,7.722,7.722,0,0,0,3.169-.621,6.011,6.011,0,0,0,2.329-1.808l-2.3-2.082a4.394,4.394,0,0,1-1.37,1.132,3.557,3.557,0,0,1-1.644.383,3.947,3.947,0,0,1-1.443-.255,3.083,3.083,0,0,1-1.123-.74,3.464,3.464,0,0,1-.73-1.16,4.367,4.367,0,0,1,0-2.995,3.469,3.469,0,0,1,.73-1.16" transform="translate(-122.373 -36.087)" fill="#fff"/>
        <path id="패스_196" data-name="패스 196" d="M266.444,74.184h3.927V84.1h3.616V74.184H277.9V71.317H266.444Z" transform="translate(-135.818 -36.353)" fill="#fff"/>
        <rect id="사각형_158" data-name="사각형 158" width="3.616" height="12.785" transform="translate(143.448 34.963)" fill="#fff"/>
        <path id="패스_197" data-name="패스 197" d="M316.029,72.676a6.716,6.716,0,0,0-2.246-1.388,8.37,8.37,0,0,0-5.661,0,6.585,6.585,0,0,0-3.736,3.507,6.375,6.375,0,0,0-.538,2.63,6.483,6.483,0,0,0,.538,2.657A6.543,6.543,0,0,0,308.13,83.6a8.345,8.345,0,0,0,5.653,0,6.815,6.815,0,0,0,2.256-1.388,6.29,6.29,0,0,0,1.488-2.11,6.613,6.613,0,0,0,.53-2.675,6.421,6.421,0,0,0-.539-2.648,6.506,6.506,0,0,0-1.489-2.1m-1.89,6.274a3.5,3.5,0,0,1-.73,1.151,3.137,3.137,0,0,1-1.1.74,3.751,3.751,0,0,1-2.721,0,3.218,3.218,0,0,1-1.105-.74,3.31,3.31,0,0,1-.731-1.151,4.573,4.573,0,0,1,0-3.014,3.319,3.319,0,0,1,.731-1.151,3.237,3.237,0,0,1,1.105-.739,3.744,3.744,0,0,1,2.721,0,3.156,3.156,0,0,1,1.1.739,3.513,3.513,0,0,1,.73,1.151,4.42,4.42,0,0,1,0,3.014" transform="translate(-154.884 -36.087)" fill="#fff"/>
        <path id="패스_198" data-name="패스 198" d="M345.345,78.125l-5.626-6.809h-2.977V84.1h3.525V77.287l5.643,6.814h2.977V71.316h-3.543Z" transform="translate(-171.652 -36.353)" fill="#fff"/>
        <path id="패스_199" data-name="패스 199" d="M34.217,18.771s3.562-4.422,2-9.491S31.089.221,24.726.005,12.646,5.829,12.754,10.251l.108,4.422S5.528,17.8,2.4,22.654-1.05,41.636,2.94,42.175,9.2,38.4,9.411,33.871s-1.079-8.2-.755-9.275,1.079-.647,2.48.647,3.128,3.235,5.5,2.912,5.284.863,6.794,1.4,9.707.755,10.677,1.294a4.766,4.766,0,0,1,2.615.2,2.39,2.39,0,0,1,1.611,2.487,2.165,2.165,0,0,1-.936,1.411c.237-.067.377-.112.377-.112s.237,4.853-3.278,6.147S26.883,44.332,20.843,43.9s-9.922,9.707-3.127,10.354,14.113-3.664,18.5-6.9c5.721-4.225,6.1-13.609,4.157-20.188s-6.154-8.393-6.154-8.393M16.493,27.5s-.275-4.664,1.317-5.871,1.787.932,2.375,2.085,2.069,3.9,2.783,4.279c0,0-4.805-.955-6.475-.494" transform="translate(0 0)" fill="#fff"/>
        <path id="패스_200" data-name="패스 200" d="M39.744,66.255c0-.849-.421-1.536-.941-1.536s-.941.688-.941,1.536.421,1.536.941,1.536.941-.688.941-1.536" transform="translate(-19.3 -32.99)" fill="#fff"/>
        <path id="패스_201" data-name="패스 201" d="M70.63,65.529a2.39,2.39,0,0,0-1.611-2.487,4.764,4.764,0,0,0-2.615-.2c-1.908.3-3.221,1.947-3.03,3.172s2.42,1.868,4.328,1.57a5.06,5.06,0,0,0,1.992-.639,2.163,2.163,0,0,0,.936-1.411" transform="translate(-32.295 -31.986)" fill="#0084a4"/>
        <path id="패스_202" data-name="패스 202" d="M70.63,65.529a2.39,2.39,0,0,0-1.611-2.487,4.764,4.764,0,0,0-2.615-.2c-1.908.3-3.221,1.947-3.03,3.172s2.42,1.868,4.328,1.57a5.06,5.06,0,0,0,1.992-.639A2.163,2.163,0,0,0,70.63,65.529Z" transform="translate(-32.295 -31.986)" fill="none" stroke="#0084a4" stroke-miterlimit="10" stroke-width="1"/>
        <path id="패스_203" data-name="패스 203" d="M307.2,53.259a1.8,1.8,0,0,1,.6-.391,2.169,2.169,0,0,1,1.491-.013,1.655,1.655,0,0,1,.6.4l.174.178.682-.682-.156-.173a2.335,2.335,0,0,0-.918-.623,3.275,3.275,0,0,0-2.283.008,2.812,2.812,0,0,0-.93.595,2.74,2.74,0,0,0-.616.9,3.012,3.012,0,0,0,0,2.261,2.731,2.731,0,0,0,1.538,1.5,3.252,3.252,0,0,0,2.292,0,2.373,2.373,0,0,0,.917-.626l.156-.173-.682-.682-.174.177a1.692,1.692,0,0,1-.6.408,2.143,2.143,0,0,1-1.49-.01,1.8,1.8,0,0,1-.6-.391,1.836,1.836,0,0,1-.4-.592,2,2,0,0,1,0-1.49,1.846,1.846,0,0,1,.4-.592" transform="translate(-155.793 -26.384)" fill="#0084a4"/>
        <path id="패스_204" data-name="패스 204" d="M317.524,55.076h2.638v-.95h-2.638V52.8h2.959v-.956h-3.988v5.591h4.1V56.48h-3.068Z" transform="translate(-161.331 -26.428)" fill="#0084a4"/>
        <path id="패스_205" data-name="패스 205" d="M329.426,55.526,326.5,51.847H325.7v5.591h1.029V53.76l2.916,3.677h.808V51.847h-1.022Z" transform="translate(-166.021 -26.428)" fill="#0084a4"/>
        <path id="패스_206" data-name="패스 206" d="M335.4,52.8h1.792v4.634h1.03V52.8h1.792v-.956H335.4Z" transform="translate(-170.968 -26.428)" fill="#0084a4"/>
        <path id="패스_207" data-name="패스 207" d="M345.852,55.076h2.638v-.95h-2.638V52.8h2.959v-.956h-3.988v5.591h4.1V56.48h-3.068Z" transform="translate(-175.771 -26.428)" fill="#0084a4"/>
        <path id="패스_208" data-name="패스 208" d="M357.474,55.552a1.823,1.823,0,0,0,.742-.65,1.92,1.92,0,0,0,.291-1.062,1.95,1.95,0,0,0-.291-1.077,1.854,1.854,0,0,0-.824-.688,2.978,2.978,0,0,0-1.214-.229h-2.155v5.591h1.03V55.819h1.125a2.54,2.54,0,0,0,.287-.019l1.16,1.636h1.192ZM355.053,52.8h1.11a1.537,1.537,0,0,1,1,.277,1.078,1.078,0,0,1,0,1.512,1.537,1.537,0,0,1-1,.277h-1.11Z" transform="translate(-180.461 -26.428)" fill="#0084a4"/>
      </g>
    </g>
  </g>
</svg>
