<svg xmlns="http://www.w3.org/2000/svg" xmlns:xlink="http://www.w3.org/1999/xlink" width="130" height="130" viewBox="0 0 130 130">
  <defs>
    <clipPath id="clip-path">
      <rect id="사각형_119" data-name="사각형 119" width="124.843" height="120.748" fill="none"/>
    </clipPath>
  </defs>
  <g id="slogan" transform="translate(585 -456)">
    <g id="그룹_107" data-name="그룹 107" transform="translate(-582 461)" style="isolation: isolate">
      <path id="패스_135" data-name="패스 135" d="M6.211,64.764l-.559,4.367-4.6-2.809Zm-6.09.952L0,66.662l8.544,5.309.127-1-2.285-1.4.648-5.063L9.6,63.741l.13-1.012Z" transform="translate(0 -11.492)" fill="#fff"/>
      <path id="패스_136" data-name="패스 136" d="M10.155,59.927,1.4,57.259l.232-.762,9.441-3.721-.122.4-7.6-2.317.278-.912,8.75,2.668-.232.761-9.437,3.71.122-.4L10.438,59Z" transform="translate(-0.257 -9.15)" fill="#fff"/>
      <rect id="사각형_117" data-name="사각형 117" width="0.967" height="9.148" transform="translate(4.661 37.91) rotate(-66.216)" fill="#fff"/>
      <path id="패스_137" data-name="패스 137" d="M15.521,44.6l-7.8-4.784.417-.68,8.269.167-.219.356L12.277,32.4l.417-.68,7.8,4.786-.486.79-6.56-4.026.116-.189,3.573,6.67-.239.39-7.579-.143.131-.212,6.56,4.027Z" transform="translate(-1.415 -5.81)" fill="#fff"/>
      <path id="패스_138" data-name="패스 138" d="M22.8,34.9l-4-9.231.639-.709,9.6,3.018-.683.757-8.951-2.894.263-.291,3.805,8.6Zm-.713-2.859-.39-.738,3.561-3.951.775.31Z" transform="translate(-3.445 -4.573)" fill="#fff"/>
      <path id="패스_139" data-name="패스 139" d="M30.638,26.622,24.77,19.6l.742-.621,5.332,6.377,3.93-3.286.537.64Z" transform="translate(-4.538 -3.478)" fill="#fff"/>
      <g id="그룹_106" data-name="그룹 106">
        <g id="그룹_105" data-name="그룹 105" clip-path="url(#clip-path)">
          <path id="패스_140" data-name="패스 140" d="M40.068,19l-4.42-8.01,3-1.655a4.878,4.878,0,0,1,1.932-.64,2.882,2.882,0,0,1,1.644.316,3.07,3.07,0,0,1,1.213,1.264,3.012,3.012,0,0,1,.409,1.676,2.91,2.91,0,0,1-.606,1.566,4.805,4.805,0,0,1-1.567,1.3l-2.529,1.4L39.3,15.6l1.616,2.929Zm-.732-3.328-.6-.2,2.505-1.383a3.172,3.172,0,0,0,1.538-1.527,2.06,2.06,0,0,0-.188-1.814A2.1,2.1,0,0,0,41.143,9.6a3.153,3.153,0,0,0-2.115.481L36.521,11.46l.157-.609Z" transform="translate(-6.531 -1.59)" fill="#fff"/>
          <path id="패스_141" data-name="패스 141" d="M49.433,14.257l-3.1-8.607,3.221-1.161a4.882,4.882,0,0,1,2.008-.328,2.853,2.853,0,0,1,1.573.573,3.05,3.05,0,0,1,1,1.438,3,3,0,0,1,.14,1.721,2.87,2.87,0,0,1-.847,1.443,4.884,4.884,0,0,1-1.755,1.029l-2.717.979.255-.564,1.134,3.146Zm-.2-3.4-.561-.284,2.693-.97a3.158,3.158,0,0,0,1.758-1.273,2.086,2.086,0,0,0,.1-1.828,2.1,2.1,0,0,0-1.246-1.356,3.162,3.162,0,0,0-2.165.14l-2.692.97.251-.576Zm6.075,1.284L51.972,9.813l.983-.354,3.351,2.321Z" transform="translate(-8.488 -0.761)" fill="#fff"/>
          <path id="패스_142" data-name="패스 142" d="M63.445,10.314a5.172,5.172,0,0,1-1.946-.007,4.5,4.5,0,0,1-2.924-1.979A4.65,4.65,0,0,1,57.9,6.57a4.657,4.657,0,0,1,.032-1.884,4.53,4.53,0,0,1,2.062-2.859,5.217,5.217,0,0,1,1.831-.675,5.14,5.14,0,0,1,1.94.009,4.576,4.576,0,0,1,1.668.694,4.427,4.427,0,0,1,1.248,1.279A4.718,4.718,0,0,1,67.359,4.9a4.735,4.735,0,0,1-.032,1.891,4.437,4.437,0,0,1-.733,1.629,4.581,4.581,0,0,1-1.33,1.224,5.131,5.131,0,0,1-1.819.673m-.15-.849a4.032,4.032,0,0,0,1.451-.541,3.579,3.579,0,0,0,1.058-1A3.7,3.7,0,0,0,66.386,6.6a3.861,3.861,0,0,0,.02-1.536,3.864,3.864,0,0,0-.546-1.437,3.728,3.728,0,0,0-1-1.044,3.584,3.584,0,0,0-1.335-.573A4.039,4.039,0,0,0,61.976,2a4.1,4.1,0,0,0-1.456.542,3.7,3.7,0,0,0-1.071,1,3.648,3.648,0,0,0-.589,1.326,3.861,3.861,0,0,0-.02,1.536,3.885,3.885,0,0,0,.544,1.429,3.632,3.632,0,0,0,2.357,1.621,4.054,4.054,0,0,0,1.554.011" transform="translate(-10.592 -0.195)" fill="#fff"/>
          <path id="패스_143" data-name="패스 143" d="M73.343,9.241,73.155.932l-3.214.074L69.922.168,77.316,0l.02.836L74.121.91l.189,8.31Z" transform="translate(-12.809 0)" fill="#fff"/>
          <path id="패스_144" data-name="패스 144" d="M80.994,8.534l5.468.614-.093.831L79.94,9.258,80.96.167l6.234.7L87.1,1.7l-5.273-.591Zm.367-4.206,4.805.538-.091.819L81.27,5.147Z" transform="translate(-14.645 -0.031)" fill="#fff"/>
          <path id="패스_145" data-name="패스 145" d="M93.218,11.811a5.12,5.12,0,0,1-1.751-.832,4.445,4.445,0,0,1-1.79-3.021,4.7,4.7,0,0,1,.136-1.884,4.71,4.71,0,0,1,.831-1.7A4.439,4.439,0,0,1,92,3.212a4.569,4.569,0,0,1,1.723-.543,5.115,5.115,0,0,1,1.933.163,5.207,5.207,0,0,1,1.718.808,3.755,3.755,0,0,1,1.165,1.35l-.753.434A3.387,3.387,0,0,0,96.8,4.3a4.31,4.31,0,0,0-2.9-.756,3.655,3.655,0,0,0-1.394.449,3.731,3.731,0,0,0-1.1.948,3.789,3.789,0,0,0-.678,1.379,3.826,3.826,0,0,0-.109,1.535A3.754,3.754,0,0,0,91.1,9.229a3.654,3.654,0,0,0,.978,1.09,4.105,4.105,0,0,0,1.4.669,4.045,4.045,0,0,0,1.481.13,3.483,3.483,0,0,0,1.417-.483l.432.751a3.8,3.8,0,0,1-1.688.587,5.149,5.149,0,0,1-1.906-.163" transform="translate(-16.421 -0.483)" fill="#fff"/>
          <path id="패스_146" data-name="패스 146" d="M101.226,14.122l3.266-7.642-2.957-1.264.329-.769,6.8,2.907-.328.769-2.957-1.264L102.115,14.5Z" transform="translate(-18.544 -0.815)" fill="#fff"/>
          <rect id="사각형_118" data-name="사각형 118" width="9.149" height="0.967" transform="matrix(0.475, -0.88, 0.88, 0.475, 87.082, 15.382)" fill="#fff"/>
          <path id="패스_147" data-name="패스 147" d="M113.407,21.5a5.174,5.174,0,0,1-1.362-1.389,4.5,4.5,0,0,1-.649-3.471,4.948,4.948,0,0,1,2.138-3.017,4.519,4.519,0,0,1,3.484-.542,5.454,5.454,0,0,1,3.123,2.214,4.547,4.547,0,0,1,.68,1.674,4.465,4.465,0,0,1-.032,1.786,4.969,4.969,0,0,1-2.147,3.029,4.454,4.454,0,0,1-1.674.624,4.582,4.582,0,0,1-1.805-.087,5.13,5.13,0,0,1-1.757-.821m.5-.7a4.056,4.056,0,0,0,1.4.651,3.609,3.609,0,0,0,1.453.052,3.729,3.729,0,0,0,1.35-.516,4.116,4.116,0,0,0,1.746-2.463,3.722,3.722,0,0,0,.039-1.447,3.6,3.6,0,0,0-.531-1.353,4.281,4.281,0,0,0-2.49-1.763,3.643,3.643,0,0,0-2.82.453,4.083,4.083,0,0,0-1.741,2.458,3.633,3.633,0,0,0,.5,2.815,4.094,4.094,0,0,0,1.086,1.114" transform="translate(-20.388 -2.37)" fill="#fff"/>
          <path id="패스_148" data-name="패스 148" d="M119.7,26.272l6.546-6.39.557.57-1.276,10.067-.292-.3,5.686-5.551.667.683-6.546,6.391-.557-.57,1.286-10.058.292.3-5.687,5.551Z" transform="translate(-21.929 -3.642)" fill="#fff"/>
          <path id="패스_149" data-name="패스 149" d="M131.968,41.455a5.153,5.153,0,0,1-.712-1.8,4.452,4.452,0,0,1,.755-3.43,4.974,4.974,0,0,1,3.153-1.958,4.448,4.448,0,0,1,1.786.076,4.586,4.586,0,0,1,1.63.78,5.135,5.135,0,0,1,1.3,1.438,5.215,5.215,0,0,1,.7,1.763,3.756,3.756,0,0,1-.071,1.782l-.845-.2a3.4,3.4,0,0,0,.05-1.493,4.146,4.146,0,0,0-.555-1.378,4.093,4.093,0,0,0-1.046-1.15,3.639,3.639,0,0,0-1.325-.624,3.758,3.758,0,0,0-1.452-.06,4.02,4.02,0,0,0-2.565,1.593,3.747,3.747,0,0,0-.591,1.328,3.63,3.63,0,0,0-.029,1.464,4.106,4.106,0,0,0,.568,1.447,4.048,4.048,0,0,0,.995,1.106,3.487,3.487,0,0,0,1.365.613l-.2.845a3.807,3.807,0,0,1-1.634-.724,5.181,5.181,0,0,1-1.281-1.42" transform="translate(-24.031 -6.267)" fill="#fff"/>
          <path id="패스_150" data-name="패스 150" d="M136.047,47.5l2.16,5.06-.769.328-2.54-5.949,8.413-3.593,2.464,5.769-.769.328-2.084-4.879Zm3.841-1.754,1.9,4.447-.757.324-1.9-4.448Z" transform="translate(-24.713 -7.94)" fill="#fff"/>
          <path id="패스_151" data-name="패스 151" d="M138.524,56.009l8.884-2.182.19.774-6.211,8.026-.1-.407,7.716-1.9.228.926-8.884,2.183-.19-.774,6.213-8.014.1.407-7.716,1.9Z" transform="translate(-25.377 -9.861)" fill="#fff"/>
          <path id="패스_152" data-name="패스 152" d="M141.219,69.268,149.5,68.5l-.3-3.2.833-.078.68,7.366-.833.077-.3-3.2-8.277.765Z" transform="translate(-25.871 -11.949)" fill="#fff"/>
          <path id="패스_153" data-name="패스 153" d="M142.378,76.989l-.228,5.5-.836-.034.268-6.464,9.14.38-.26,6.267-.836-.035.22-5.3Zm4.222.069-.2,4.832-.823-.034.2-4.831Z" transform="translate(-25.888 -13.921)" fill="#fff"/>
          <path id="패스_154" data-name="패스 154" d="M139.579,91.588l3.71-1.669-.2,1.026-3.712,1.682Zm1.2-6.131,8.977,1.764-.66,3.36a4.858,4.858,0,0,1-.751,1.89,2.876,2.876,0,0,1-1.3,1.057,3.051,3.051,0,0,1-1.747.116,3.008,3.008,0,0,1-1.549-.764,2.877,2.877,0,0,1-.8-1.469,4.914,4.914,0,0,1,.02-2.034l.557-2.833.354.508-3.284-.644Zm3.02,1.581.532-.336-.551,2.808a3.151,3.151,0,0,0,.189,2.161,2.367,2.367,0,0,0,3.321.653,3.165,3.165,0,0,0,.992-1.932l.551-2.807.365.511Z" transform="translate(-25.533 -15.655)" fill="#fff"/>
          <path id="패스_155" data-name="패스 155" d="M109.011,126.15a1.591,1.591,0,0,1-.172,1.7A8.416,8.416,0,0,1,105.6,130.2a8.329,8.329,0,0,1-3.837,1.106,1.6,1.6,0,0,1-1.456-.9,1.652,1.652,0,0,1,.181-1.714,8.394,8.394,0,0,1,3.243-2.325,8.46,8.46,0,0,1,3.838-1.136,1.631,1.631,0,0,1,1.447.918m-.976.477a.837.837,0,0,0-.742-.449,10.612,10.612,0,0,0-5.91,2.889.813.813,0,0,0-.1.863.84.84,0,0,0,.742.451,10.64,10.64,0,0,0,5.91-2.89.87.87,0,0,0,.1-.863m-3.6,11.634,7.285-3.562-.921-1.887-7.358,3.6-.39-.8,3.728-1.822-.693-1.417-4.39,2.146-.395-.809,9.722-4.753.4.809-4.354,2.129.692,1.418,3.618-1.769,1.7,3.493-8.251,4.033Z" transform="translate(-18.345 -22.941)" fill="#fff"/>
          <path id="패스_156" data-name="패스 156" d="M96.246,136.457l.205.875-10.537,2.453-.2-.876,4.758-1.108-.3-1.282-3.962.922-.658-2.818,7.9-1.838-.265-1.143L85,133.547l-.192-.826,9.229-2.147.653,2.806-7.9,1.838.27,1.155,7.9-1.839.192.826-3.935.916.3,1.282Zm-9.274,4.26,8.941-2.081.769,3.3-8.941,2.081Zm1.242.595.376,1.612,6.85-1.6-.376-1.612Z" transform="translate(-15.536 -23.92)" fill="#fff"/>
          <path id="패스_157" data-name="패스 157" d="M78.314,142.857l-7.237.045.016,2.452-1.075.007-.039-6.992,4.12-.026-.017-3.039-4.779.029,0-.913,10.685-.066,0,.913-4.819.029.017,3.039,4.176-.025L79.4,145.3l-1.074.007Zm-7.257-3.569.016,2.687,7.236-.045-.016-2.687Z" transform="translate(-12.695 -24.613)" fill="#fff"/>
          <path id="패스_158" data-name="패스 158" d="M52.5,140.453l9.745,2.1-.193.892-4.342-.937-.326,1.517L56.31,143.8l.329-1.518-4.328-.934Zm10.214-1.464a1.9,1.9,0,0,1-1.163,1.377,6.792,6.792,0,0,1-3.937.057,6.8,6.8,0,0,1-3.564-1.677,1.89,1.89,0,0,1-.491-1.734,1.913,1.913,0,0,1,1.161-1.377,6.122,6.122,0,0,1,3.382-.15l.46-2.129-4.682-1.011.194-.892,10.44,2.254-.194.893-4.708-1.017-.46,2.129a6.246,6.246,0,0,1,3.071,1.543,1.912,1.912,0,0,1,.49,1.734m-1.05-.226a1.06,1.06,0,0,0-.275-.953,5.23,5.23,0,0,0-2.919-1.351,5.271,5.271,0,0,0-3.218.025,1.067,1.067,0,0,0-.644.756,1.1,1.1,0,0,0,.272.965,5.379,5.379,0,0,0,2.923,1.339,5.353,5.353,0,0,0,3.216-.013,1.1,1.1,0,0,0,.645-.768" transform="translate(-9.583 -24.081)" fill="#fff"/>
          <path id="패스_159" data-name="패스 159" d="M39.723,128.7l-3.373,7.267-.95-.44,3.373-7.267Zm0,6.284-.944,2.036-.939-.435,3.253-7.007.938.435-1.923,4.143,1.741.807-.385.828Zm.41-10.193,8.4,3.894-1.609,3.468-.974-.452,1.23-2.651-7.43-3.442Zm4.109,9.958a4.98,4.98,0,0,1,3.534-1.08l-.412.888a3.789,3.789,0,0,0-3.509,2.3l-.961,2.071-.962-.446.951-2.048a3.356,3.356,0,0,0-.609-3.948l.412-.889a4.609,4.609,0,0,1,1.557,3.152" transform="translate(-6.485 -22.861)" fill="#fff"/>
          <path id="패스_160" data-name="패스 160" d="M20.864,125.49l7.142-9.233.859.665-3.607,4.663,1.995,1.544-.566.733-2-1.544-2.968,3.837Zm9.767,1.21-3.248-2.513.56-.721,3.247,2.512,2.457-3.177-2.619-2.029a7.107,7.107,0,0,0-2.33-1.308l.535-.692a6.689,6.689,0,0,1,2.378,1.313l3.427,2.652-6.512,8.419-4.457-3.449.559-.722,3.618,2.8Z" transform="translate(-3.822 -21.298)" fill="#fff"/>
          <path id="패스_161" data-name="패스 161" d="M12.167,98.495c.988.531,3.074,1.518,4.634-.542s-.68-3.959-.68-3.959c-.2-4.537-4.557-3.445-5.271-1.986A40.194,40.194,0,0,0,9.6,96.52a9.4,9.4,0,0,0,2.565,1.975" transform="translate(-1.759 -16.623)" fill="#fff"/>
          <path id="패스_162" data-name="패스 162" d="M14.428,99.362a5.222,5.222,0,0,1-2.4-.733A9.649,9.649,0,0,1,9.4,96.6a.2.2,0,0,1-.042-.176,39.193,39.193,0,0,1,1.263-4.556,3.27,3.27,0,0,1,3.367-1.319c.8.167,2.151.818,2.288,3.3.377.357,2.139,2.2.644,4.176a3.021,3.021,0,0,1-2.49,1.332m-4.65-2.943a9.447,9.447,0,0,0,2.44,1.85c1.223.657,3.007,1.321,4.375-.486,1.424-1.879-.564-3.608-.649-3.68a.21.21,0,0,1-.073-.147c-.073-1.688-.772-2.754-1.967-3a2.916,2.916,0,0,0-2.917,1.1,37.883,37.883,0,0,0-1.209,4.367" transform="translate(-1.713 -16.577)" fill="#fff"/>
          <path id="패스_163" data-name="패스 163" d="M6.941,99.655c.868-.314,1.732-.127,1.928.417s-.349,1.239-1.217,1.553-1.732.127-1.928-.417.349-1.239,1.217-1.553" transform="translate(-1.041 -18.228)" fill="#fff"/>
          <path id="패스_164" data-name="패스 164" d="M6.776,101.935a2.026,2.026,0,0,1-.429-.043,1.005,1.005,0,0,1-.621-1.719,2.462,2.462,0,0,1,1.1-.757c.991-.357,1.952-.118,2.19.541s-.35,1.457-1.34,1.815a2.7,2.7,0,0,1-.9.163M6.964,99.8h0a2.049,2.049,0,0,0-.917.624.606.606,0,0,0,.386,1.068,2.046,2.046,0,0,0,1.1-.105c.748-.27,1.249-.862,1.095-1.291s-.92-.565-1.667-.295" transform="translate(-0.995 -18.182)" fill="#fff"/>
          <path id="패스_165" data-name="패스 165" d="M5.434,95.482c.868-.314,1.732-.127,1.928.417s-.349,1.239-1.217,1.553-1.732.127-1.928-.417.349-1.239,1.217-1.553" transform="translate(-0.765 -17.464)" fill="#fff"/>
          <path id="패스_166" data-name="패스 166" d="M5.265,97.764a1.272,1.272,0,0,1-1.286-.706c-.238-.661.35-1.457,1.34-1.815a2.466,2.466,0,0,1,1.329-.12,1.006,1.006,0,0,1,.621,1.719,2.461,2.461,0,0,1-1.1.756,2.7,2.7,0,0,1-.9.166m.953-2.276a2.257,2.257,0,0,0-.76.14c-.749.27-1.25.862-1.095,1.291s.918.565,1.667.294a2.052,2.052,0,0,0,.916-.623.607.607,0,0,0-.386-1.068,1.662,1.662,0,0,0-.343-.034" transform="translate(-0.719 -17.418)" fill="#fff"/>
          <path id="패스_167" data-name="패스 167" d="M8.094,90.772c.7.223,1.139.787.988,1.26s-.839.677-1.536.454-1.139-.787-.988-1.26.84-.677,1.536-.454" transform="translate(-1.196 -16.612)" fill="#fff"/>
          <path id="패스_168" data-name="패스 168" d="M8.068,92.737a2.089,2.089,0,0,1-.631-.1c-.817-.261-1.309-.928-1.121-1.518a.98.98,0,0,1,.7-.622,2,2,0,0,1,2,.64.982.982,0,0,1,.21.912,1.139,1.139,0,0,1-1.162.688m-.583-1.9a1.26,1.26,0,0,0-.352.048.589.589,0,0,0-.427.354c-.114.359.278.819.856,1s1.165.038,1.279-.321a.588.588,0,0,0-.142-.537,1.469,1.469,0,0,0-.713-.467,1.633,1.633,0,0,0-.5-.082" transform="translate(-1.15 -16.567)" fill="#fff"/>
          <path id="패스_169" data-name="패스 169" d="M10.559,102.419c.408-.608,1.073-.875,1.486-.6s.417.994.008,1.6-1.073.875-1.486.6-.417-.994-.008-1.6" transform="translate(-1.879 -18.633)" fill="#fff"/>
          <path id="패스_170" data-name="패스 170" d="M10.9,104.29a.873.873,0,0,1-.493-.146,1.353,1.353,0,0,1-.063-1.884c.479-.712,1.255-1,1.769-.654a1.354,1.354,0,0,1,.064,1.884,1.645,1.645,0,0,1-1.277.8m.722-2.421a1.269,1.269,0,0,0-.939.618c-.339.5-.361,1.108-.047,1.318s.863-.038,1.2-.542.36-1.108.047-1.318a.461.461,0,0,0-.263-.075" transform="translate(-1.832 -18.587)" fill="#fff"/>
          <path id="패스_171" data-name="패스 171" d="M132.9,111.728c.315-1.077.851-3.321-1.488-4.422s-3.733,1.484-3.733,1.484c-4.4,1.13-2.43,5.171-.854,5.567a40.121,40.121,0,0,0,4.672.288,9.422,9.422,0,0,0,1.4-2.918" transform="translate(-22.898 -19.608)" fill="#fff"/>
          <path id="패스_172" data-name="패스 172" d="M131.45,114.8h0a39.1,39.1,0,0,1-4.72-.295,3.266,3.266,0,0,1-1.986-3.021c0-.817.356-2.274,2.758-2.921.271-.443,1.71-2.549,3.953-1.492,2.6,1.225,1.846,3.814,1.6,4.664a9.68,9.68,0,0,1-1.439,2.988.2.2,0,0,1-.16.077m-1.23-7.613a3.121,3.121,0,0,0-2.408,1.649.208.208,0,0,1-.129.1c-1.636.421-2.535,1.325-2.533,2.545a2.915,2.915,0,0,0,1.679,2.627,37.677,37.677,0,0,0,4.523.28,9.448,9.448,0,0,0,1.306-2.769c.39-1.332.671-3.215-1.379-4.18a2.474,2.474,0,0,0-1.059-.253m2.633,4.491h0Z" transform="translate(-22.852 -19.562)" fill="#fff"/>
          <path id="패스_173" data-name="패스 173" d="M135.2,117.828c-.486-.785-.482-1.669.01-1.973s1.285.085,1.771.871.482,1.668-.01,1.973-1.285-.085-1.771-.87" transform="translate(-24.701 -21.205)" fill="#fff"/>
          <path id="패스_174" data-name="패스 174" d="M136.541,118.961a1.361,1.361,0,0,1-.6-.152,2.462,2.462,0,0,1-.966-.92c-.555-.894-.521-1.884.075-2.254s1.5.042,2.053.936a2.456,2.456,0,0,1,.392,1.275,1.1,1.1,0,0,1-.468.979.912.912,0,0,1-.489.136m-1-3.052a.517.517,0,0,0-.276.074c-.389.241-.363,1.016.056,1.692a2.057,2.057,0,0,0,.8.768.606.606,0,0,0,.965-.6,2.035,2.035,0,0,0-.331-1.058,1.667,1.667,0,0,0-1.214-.878" transform="translate(-24.655 -21.159)" fill="#fff"/>
          <path id="패스_175" data-name="패스 175" d="M131.426,120.164c-.486-.785-.482-1.669.01-1.973s1.285.085,1.771.871.482,1.668-.01,1.973-1.285-.085-1.771-.87" transform="translate(-24.01 -21.633)" fill="#fff"/>
          <path id="패스_176" data-name="패스 176" d="M132.769,121.3a1.361,1.361,0,0,1-.6-.152,2.639,2.639,0,0,1-1.359-2.195,1.1,1.1,0,0,1,.468-.979c.6-.369,1.5.042,2.053.936s.52,1.884-.076,2.254a.912.912,0,0,1-.489.136m-1-3.052a.517.517,0,0,0-.276.074.714.714,0,0,0-.275.635,2.227,2.227,0,0,0,1.131,1.826.71.71,0,0,0,.689.036c.389-.24.363-1.015-.056-1.692a1.667,1.667,0,0,0-1.214-.878" transform="translate(-23.964 -21.587)" fill="#fff"/>
          <path id="패스_177" data-name="패스 177" d="M126.32,118.661c.074-.728.535-1.277,1.029-1.228s.836.681.761,1.41-.534,1.277-1.029,1.227-.836-.681-.761-1.409" transform="translate(-23.139 -21.513)" fill="#fff"/>
          <path id="패스_178" data-name="패스 178" d="M127.1,120.232a.763.763,0,0,1-.086,0c-.616-.062-1.03-.78-.943-1.634a1.876,1.876,0,0,1,.4-1.015.974.974,0,0,1,.849-.394c.616.062,1.03.779.943,1.633-.083.814-.586,1.414-1.167,1.414m-.623-1.6h0c-.061.6.2,1.148.579,1.186s.744-.44.805-1.046-.2-1.147-.579-1.185a.6.6,0,0,0-.495.25,1.475,1.475,0,0,0-.31.795" transform="translate(-23.093 -21.467)" fill="#fff"/>
          <path id="패스_179" data-name="패스 179" d="M137.192,113.961c-.679-.274-1.078-.869-.892-1.331s.887-.613,1.565-.338,1.078.869.893,1.33-.887.613-1.566.339" transform="translate(-24.961 -20.546)" fill="#fff"/>
          <path id="패스_180" data-name="패스 180" d="M137.82,114.255a2.014,2.014,0,0,1-.75-.151,1.88,1.88,0,0,1-.863-.67.982.982,0,0,1-.142-.926,1.356,1.356,0,0,1,1.831-.452,1.889,1.889,0,0,1,.864.671.918.918,0,0,1-.6,1.494,1.576,1.576,0,0,1-.337.034m-.675-1.941a.711.711,0,0,0-.7.346.589.589,0,0,0,.1.546,1.593,1.593,0,0,0,1.525.615.515.515,0,0,0,.35-.867,1.484,1.484,0,0,0-.678-.519,1.62,1.62,0,0,0-.6-.121" transform="translate(-24.915 -20.5)" fill="#fff"/>
        </g>
      </g>
    </g>
    <rect id="사각형_160" data-name="사각형 160" width="130" height="130" transform="translate(-585 456)" fill="none"/>
  </g>
</svg>
